<?xml version="1.0" encoding="UTF-8" standalone="no"?>
<svg
   xmlns:dc="http://purl.org/dc/elements/1.1/"
   xmlns:cc="http://creativecommons.org/ns#"
   xmlns:rdf="http://www.w3.org/1999/02/22-rdf-syntax-ns#"
   xmlns:svg="http://www.w3.org/2000/svg"
   xmlns="http://www.w3.org/2000/svg"
   xmlns:sodipodi="http://sodipodi.sourceforge.net/DTD/sodipodi-0.dtd"
   xmlns:inkscape="http://www.inkscape.org/namespaces/inkscape"
   width="210mm"
   height="297mm"
   viewBox="0 0 210 297"
   version="1.1"
   id="svg8"
   inkscape:version="1.0.2 (e86c870879, 2021-01-15, custom)"
   sodipodi:docname="holes.svg">
  <defs
     id="defs2">
    <inkscape:path-effect
       effect="skeletal"
       id="path-effect990"
       is_visible="true"
       lpeversion="1"
       pattern="M 10.394598,9.982398 A 0.65217382,0.65217382 0 0 1 9.742424,10.634572 0.65217382,0.65217382 0 0 1 9.0902502,9.982398 0.65217382,0.65217382 0 0 1 9.742424,9.3302242 0.65217382,0.65217382 0 0 1 10.394598,9.982398 Z"
       copytype="repeated_stretched"
       prop_scale="1"
       scale_y_rel="false"
       spacing="5"
       normal_offset="0"
       tang_offset="2"
       prop_units="false"
       vertical_pattern="false"
       hide_knot="false"
       fuse_tolerance="0" />
    <inkscape:path-effect
       effect="skeletal"
       id="path-effect859"
       is_visible="true"
       lpeversion="1"
       pattern="M 10.394598,9.982398 A 0.65217382,0.65217382 0 0 1 9.742424,10.634572 0.65217382,0.65217382 0 0 1 9.0902502,9.982398 0.65217382,0.65217382 0 0 1 9.742424,9.3302242 0.65217382,0.65217382 0 0 1 10.394598,9.982398 Z"
       copytype="repeated_stretched"
       prop_scale="1"
       scale_y_rel="false"
       spacing="5"
       normal_offset="0"
       tang_offset="2"
       prop_units="false"
       vertical_pattern="false"
       hide_knot="false"
       fuse_tolerance="0" />
    <inkscape:path-effect
       effect="skeletal"
       id="path-effect959"
       is_visible="true"
       lpeversion="1"
       pattern="m 61.959204,64.113051 h 6.242005 c 0.0059,0 0.01062,0.0023 0.01062,0.0052 v 0.709367 c 0,0.0028 -0.0048,0.0052 -0.01062,0.0052 h -6.242005 c -0.0059,0 -0.01062,-0.0023 -0.01062,-0.0052 V 64.11822 c 0,-0.0028 0.0048,-0.0052 0.01062,-0.0052 z"
       copytype="repeated"
       prop_scale="1"
       scale_y_rel="false"
       spacing="0"
       normal_offset="0"
       tang_offset="2"
       prop_units="false"
       vertical_pattern="false"
       hide_knot="false"
       fuse_tolerance="0" />
    <inkscape:path-effect
       effect="skeletal"
       id="path-effect890"
       is_visible="true"
       lpeversion="1"
       pattern="M 10.394598,9.982398 A 0.65217382,0.65217382 0 0 1 9.742424,10.634572 0.65217382,0.65217382 0 0 1 9.0902502,9.982398 0.65217382,0.65217382 0 0 1 9.742424,9.3302242 0.65217382,0.65217382 0 0 1 10.394598,9.982398 Z"
       copytype="repeated_stretched"
       prop_scale="1"
       scale_y_rel="false"
       spacing="5"
       normal_offset="0"
       tang_offset="2"
       prop_units="false"
       vertical_pattern="false"
       hide_knot="false"
       fuse_tolerance="0" />
    <inkscape:path-effect
       effect="skeletal"
       id="path-effect875"
       is_visible="true"
       lpeversion="1"
       pattern="M 10.394598,9.982398 A 0.65217382,0.65217382 0 0 1 9.742424,10.634572 0.65217382,0.65217382 0 0 1 9.0902502,9.982398 0.65217382,0.65217382 0 0 1 9.742424,9.3302242 0.65217382,0.65217382 0 0 1 10.394598,9.982398 Z"
       copytype="repeated_stretched"
       prop_scale="1"
       scale_y_rel="false"
       spacing="5"
       normal_offset="0"
       tang_offset="0"
       prop_units="false"
       vertical_pattern="false"
       hide_knot="false"
       fuse_tolerance="0" />
    <inkscape:path-effect
       effect="skeletal"
       id="path-effect865"
       is_visible="true"
       lpeversion="1"
       pattern="M 10.394598,9.982398 A 0.65217382,0.65217382 0 0 1 9.742424,10.634572 0.65217382,0.65217382 0 0 1 9.0902502,9.982398 0.65217382,0.65217382 0 0 1 9.742424,9.3302242 0.65217382,0.65217382 0 0 1 10.394598,9.982398 Z"
       copytype="repeated"
       prop_scale="1"
       scale_y_rel="false"
       spacing="5"
       normal_offset="0"
       tang_offset="2"
       prop_units="false"
       vertical_pattern="false"
       hide_knot="false"
       fuse_tolerance="0" />
  </defs>
  <sodipodi:namedview
     id="base"
     pagecolor="#ffffff"
     bordercolor="#666666"
     borderopacity="1.0"
     inkscape:pageopacity="0.0"
     inkscape:pageshadow="2"
     inkscape:zoom="0.35355339"
     inkscape:cx="903.17476"
     inkscape:cy="550.26693"
     inkscape:document-units="mm"
     inkscape:current-layer="layer1"
     inkscape:document-rotation="0"
     showgrid="false"
     inkscape:window-width="1920"
     inkscape:window-height="1017"
     inkscape:window-x="-8"
     inkscape:window-y="-8"
     inkscape:window-maximized="1" />
  <metadata
     id="metadata5">
    <rdf:RDF>
      <cc:Work
         rdf:about="">
        <dc:format>image/svg+xml</dc:format>
        <dc:type
           rdf:resource="http://purl.org/dc/dcmitype/StillImage" />
        <dc:title />
      </cc:Work>
    </rdf:RDF>
  </metadata>
  <g
     inkscape:label="Layer 1"
     inkscape:groupmode="layer"
     id="layer1">
    <path
       style="color:#000000;font-style:normal;font-variant:normal;font-weight:normal;font-stretch:normal;font-size:medium;line-height:normal;font-family:sans-serif;font-variant-ligatures:normal;font-variant-position:normal;font-variant-caps:normal;font-variant-numeric:normal;font-variant-alternates:normal;font-variant-east-asian:normal;font-feature-settings:normal;text-indent:0;text-align:start;text-decoration:none;text-decoration-line:none;text-decoration-style:solid;text-decoration-color:#000000;letter-spacing:normal;word-spacing:normal;text-transform:none;writing-mode:lr-tb;direction:ltr;text-orientation:mixed;dominant-baseline:auto;baseline-shift:baseline;text-anchor:start;white-space:normal;shape-padding:0;shape-margin:0;inline-size:0;clip-rule:nonzero;display:inline;overflow:visible;visibility:visible;opacity:0.83;isolation:auto;mix-blend-mode:normal;color-interpolation:sRGB;color-interpolation-filters:linearRGB;solid-color:#000000;solid-opacity:1;vector-effect:none;fill:none;fill-opacity:1;fill-rule:nonzero;stroke:#000000;stroke-width:0.3;stroke-linecap:butt;stroke-linejoin:miter;stroke-miterlimit:4;stroke-dasharray:none;stroke-dashoffset:0;stroke-opacity:1;color-rendering:auto;image-rendering:auto;shape-rendering:auto;text-rendering:auto;enable-background:accumulate;stop-color:#000000;stop-opacity:1"
       d="m 100.79978,137.38141 c -0.0932,0.34791 -0.45663,0.55283 -0.811683,0.45769 -0.355057,-0.0951 -0.567316,-0.4543 -0.474092,-0.80221 0.09322,-0.34791 0.456626,-0.55283 0.811685,-0.45769 0.35506,0.0951 0.56731,0.4543 0.47409,0.80221 z m 6.21459,1.6652 c -0.0932,0.34791 -0.45663,0.55282 -0.81169,0.45769 -0.35505,-0.0951 -0.56731,-0.4543 -0.47409,-0.80222 0.0932,-0.34791 0.45663,-0.55282 0.81168,-0.45769 0.35506,0.0951 0.56732,0.4543 0.4741,0.80222 z m 6.21458,1.66519 c -0.0932,0.34792 -0.45662,0.55283 -0.81168,0.45769 -0.35506,-0.0951 -0.56732,-0.4543 -0.47409,-0.80221 0.0932,-0.34791 0.45662,-0.55283 0.81168,-0.45769 0.35506,0.0951 0.56732,0.4543 0.47409,0.80221 z m 6.21459,1.6652 c -0.0932,0.34791 -0.45663,0.55283 -0.81168,0.45769 -0.35506,-0.0951 -0.56732,-0.4543 -0.4741,-0.80222 0.0932,-0.34791 0.45663,-0.55282 0.81169,-0.45769 0.35505,0.0951 0.56731,0.45431 0.47409,0.80222 z m 6.21459,1.66519 c -0.0932,0.34792 -0.45663,0.55283 -0.81169,0.45769 -0.35505,-0.0951 -0.56731,-0.4543 -0.47409,-0.80221 0.0932,-0.34791 0.45663,-0.55283 0.81168,-0.45769 0.35506,0.0951 0.56732,0.4543 0.4741,0.80221 z m 6.21458,1.6652 c -0.0932,0.34791 -0.45662,0.55283 -0.81168,0.45769 -0.35506,-0.0951 -0.56732,-0.4543 -0.47409,-0.80221 0.0932,-0.34792 0.45662,-0.55283 0.81168,-0.45769 0.35506,0.0951 0.56732,0.4543 0.47409,0.80221 z m 4.7793,3.5357 c -0.31193,0.18009 -0.71379,0.068 -0.89758,-0.25031 -0.18379,-0.31834 -0.0799,-0.7224 0.23202,-0.90249 0.31193,-0.18009 0.71379,-0.068 0.89758,0.25031 0.18379,0.31834 0.0799,0.72239 -0.23202,0.90249 z m 3.21691,5.57184 c -0.31193,0.1801 -0.71379,0.068 -0.89758,-0.25031 -0.18379,-0.31833 -0.0799,-0.72239 0.23201,-0.90248 0.31193,-0.1801 0.71379,-0.068 0.89759,0.25031 0.18379,0.31833 0.0799,0.72239 -0.23202,0.90248 z m 3.21691,5.57185 c -0.31193,0.18009 -0.71379,0.068 -0.89759,-0.25031 -0.18379,-0.31834 -0.0799,-0.72239 0.23202,-0.90249 0.31193,-0.18009 0.71379,-0.068 0.89758,0.25031 0.18379,0.31834 0.0799,0.7224 -0.23201,0.90249 z m 3.2169,5.57184 c -0.31193,0.1801 -0.71379,0.068 -0.89758,-0.25031 -0.18379,-0.31833 -0.0799,-0.72239 0.23202,-0.90248 0.31193,-0.18009 0.71379,-0.068 0.89758,0.25031 0.18379,0.31834 0.0799,0.72239 -0.23202,0.90248 z m 3.21691,5.57185 c -0.31193,0.18009 -0.71379,0.068 -0.89758,-0.25031 -0.18379,-0.31834 -0.0799,-0.72239 0.23201,-0.90248 0.31193,-0.1801 0.7138,-0.068 0.89759,0.25031 0.18379,0.31833 0.0799,0.72239 -0.23202,0.90248 z m 3.21691,5.57185 c -0.31193,0.18009 -0.71379,0.068 -0.89758,-0.25031 -0.1838,-0.31834 -0.0799,-0.7224 0.23201,-0.90249 0.31193,-0.18009 0.71379,-0.068 0.89758,0.25031 0.1838,0.31834 0.0799,0.72239 -0.23201,0.90249 z m 1.06854,5.85468 c -0.34791,-0.0932 -0.55282,-0.45663 -0.45769,-0.81168 0.0951,-0.35506 0.4543,-0.56732 0.80222,-0.4741 0.34791,0.0932 0.55282,0.45663 0.45769,0.81169 -0.0951,0.35505 -0.4543,0.56731 -0.80222,0.47409 z m -1.66519,6.21459 c -0.34791,-0.0932 -0.55283,-0.45663 -0.45769,-0.81169 0.0951,-0.35505 0.4543,-0.56731 0.80221,-0.47409 0.34791,0.0932 0.55283,0.45663 0.45769,0.81168 -0.0951,0.35506 -0.4543,0.56732 -0.80221,0.4741 z m -1.6652,6.21458 c -0.34791,-0.0932 -0.55283,-0.45662 -0.45769,-0.81168 0.0951,-0.35506 0.4543,-0.56732 0.80222,-0.47409 0.34791,0.0932 0.55282,0.45662 0.45769,0.81168 -0.0951,0.35506 -0.4543,0.56732 -0.80222,0.47409 z m -1.66519,6.21459 c -0.34792,-0.0932 -0.55283,-0.45663 -0.45769,-0.81168 0.0951,-0.35506 0.4543,-0.56732 0.80221,-0.4741 0.34791,0.0932 0.55283,0.45663 0.45769,0.81169 -0.0951,0.35505 -0.4543,0.56731 -0.80221,0.47409 z m -1.6652,6.21459 c -0.34791,-0.0932 -0.55283,-0.45663 -0.45769,-0.81169 0.0951,-0.35505 0.4543,-0.56731 0.80222,-0.47409 0.34791,0.0932 0.55282,0.45663 0.45768,0.81168 -0.0951,0.35506 -0.4543,0.56732 -0.80221,0.4741 z m -1.66519,6.21458 c -0.34792,-0.0932 -0.55283,-0.45662 -0.45769,-0.81168 0.0951,-0.35506 0.4543,-0.56732 0.80221,-0.47409 0.34791,0.0932 0.55283,0.45662 0.45769,0.81168 -0.0951,0.35506 -0.4543,0.56732 -0.80221,0.47409 z m -3.23213,5.01224 c -0.18009,-0.31193 -0.068,-0.71379 0.25031,-0.89758 0.31834,-0.18379 0.72239,-0.0799 0.90249,0.23201 0.18009,0.31193 0.068,0.71379 -0.25032,0.89759 -0.31833,0.18379 -0.72239,0.0799 -0.90248,-0.23202 z m -5.57185,3.21691 c -0.18009,-0.31193 -0.068,-0.71379 0.25031,-0.89759 0.31834,-0.18379 0.7224,-0.0799 0.90249,0.23202 0.18009,0.31193 0.068,0.71379 -0.25031,0.89758 -0.31834,0.18379 -0.72239,0.0799 -0.90249,-0.23201 z m -5.57184,3.2169 c -0.1801,-0.31193 -0.068,-0.71379 0.25031,-0.89758 0.31833,-0.18379 0.72239,-0.0799 0.90248,0.23202 0.1801,0.31193 0.068,0.71379 -0.25031,0.89758 -0.31833,0.18379 -0.72239,0.0799 -0.90248,-0.23202 z m -5.57185,3.21691 c -0.18009,-0.31193 -0.068,-0.71379 0.25031,-0.89758 0.31834,-0.18379 0.72239,-0.0799 0.90249,0.23201 0.18009,0.31193 0.068,0.7138 -0.25031,0.89759 -0.31834,0.18379 -0.7224,0.0799 -0.90249,-0.23202 z m -5.57185,3.21691 c -0.18009,-0.31193 -0.068,-0.71379 0.25032,-0.89758 0.31833,-0.1838 0.72239,-0.0799 0.90248,0.23201 0.18009,0.31193 0.068,0.71379 -0.25031,0.89758 -0.31834,0.1838 -0.72239,0.0799 -0.90249,-0.23201 z m -5.57184,3.21691 c -0.18009,-0.31193 -0.068,-0.7138 0.25031,-0.89759 0.31834,-0.18379 0.72239,-0.0799 0.90248,0.23202 0.1801,0.31193 0.068,0.71379 -0.25031,0.89758 -0.31833,0.18379 -0.72239,0.0799 -0.90248,-0.23201 z m -5.80474,1.44791 c 0.0932,-0.34791 0.45663,-0.55283 0.81168,-0.45769 0.35506,0.0951 0.56732,0.4543 0.4741,0.80221 -0.0932,0.34791 -0.45663,0.55283 -0.81169,0.45769 -0.35505,-0.0951 -0.56731,-0.4543 -0.47409,-0.80221 z m -6.21459,-1.6652 c 0.0932,-0.34791 0.45663,-0.55282 0.81169,-0.45769 0.35505,0.0951 0.56731,0.45431 0.47409,0.80222 -0.0932,0.34791 -0.45663,0.55283 -0.81168,0.45769 -0.35506,-0.0951 -0.56732,-0.4543 -0.4741,-0.80222 z m -6.214584,-1.66519 c 0.09322,-0.34791 0.456626,-0.55283 0.811684,-0.45769 0.355057,0.0951 0.567316,0.4543 0.474093,0.80221 -0.09322,0.34792 -0.456626,0.55283 -0.811683,0.45769 -0.355058,-0.0951 -0.567317,-0.4543 -0.474094,-0.80221 z m -6.214586,-1.66519 c 0.09322,-0.34792 0.456626,-0.55283 0.811683,-0.45769 0.355057,0.0951 0.567316,0.4543 0.474093,0.80221 -0.09322,0.34791 -0.456626,0.55283 -0.811683,0.45769 -0.355058,-0.0951 -0.567316,-0.4543 -0.474093,-0.80221 z m -6.214587,-1.6652 c 0.09322,-0.34791 0.456626,-0.55283 0.811683,-0.45769 0.355058,0.0951 0.567316,0.4543 0.474093,0.80221 -0.09322,0.34792 -0.456626,0.55283 -0.811683,0.45769 -0.355057,-0.0951 -0.567316,-0.4543 -0.474093,-0.80221 z m -6.214587,-1.66519 c 0.09322,-0.34792 0.456626,-0.55283 0.811683,-0.45769 0.355058,0.0951 0.567317,0.4543 0.474093,0.80221 -0.09322,0.34791 -0.456625,0.55283 -0.811683,0.45769 -0.355057,-0.0951 -0.567316,-0.4543 -0.474093,-0.80221 z m -5.245168,-2.92857 c 0.31193,-0.18009 0.713791,-0.068 0.897583,0.25031 0.183791,0.31834 0.07991,0.72239 -0.232016,0.90249 -0.31193,0.18009 -0.713791,0.068 -0.897583,-0.25031 -0.183791,-0.31834 -0.07991,-0.72239 0.232016,-0.90249 z m -3.216909,-5.57184 c 0.31193,-0.1801 0.713792,-0.068 0.897583,0.25031 0.183792,0.31833 0.07991,0.72239 -0.232015,0.90248 -0.31193,0.1801 -0.713792,0.068 -0.897583,-0.25031 -0.183791,-0.31833 -0.07991,-0.72239 0.232015,-0.90248 z m -3.216908,-5.57185 c 0.31193,-0.18009 0.713792,-0.068 0.897583,0.25031 0.183791,0.31834 0.07991,0.72239 -0.232016,0.90249 -0.311929,0.18009 -0.713791,0.068 -0.897582,-0.25031 -0.183792,-0.31834 -0.07991,-0.7224 0.232015,-0.90249 z m -3.216908,-5.57184 c 0.31193,-0.1801 0.713792,-0.068 0.897583,0.25031 0.183791,0.31833 0.07991,0.72239 -0.232016,0.90248 -0.31193,0.18009 -0.713791,0.068 -0.897582,-0.25031 -0.183792,-0.31834 -0.07991,-0.72239 0.232015,-0.90248 z m -3.216908,-5.57185 c 0.31193,-0.18009 0.713791,-0.068 0.897583,0.25031 0.183791,0.31834 0.07991,0.72239 -0.232016,0.90249 -0.31193,0.18009 -0.713791,0.068 -0.897583,-0.25032 -0.183791,-0.31833 -0.07991,-0.72239 0.232016,-0.90248 z m -3.216908,-5.57185 c 0.31193,-0.18009 0.713791,-0.068 0.897582,0.25032 0.183792,0.31833 0.07991,0.72239 -0.232015,0.90248 -0.31193,0.18009 -0.713791,0.068 -0.897583,-0.25031 -0.183791,-0.31834 -0.07991,-0.72239 0.232016,-0.90249 z m -1.827275,-5.75479 c 0.347913,0.0932 0.552828,0.45663 0.45769,0.81168 -0.09514,0.35506 -0.4543,0.56732 -0.802213,0.4741 -0.347913,-0.0932 -0.552827,-0.45663 -0.45769,-0.81169 0.09514,-0.35505 0.4543,-0.56731 0.802213,-0.47409 z m 1.665193,-6.21459 c 0.347913,0.0932 0.552828,0.45663 0.457691,0.81169 -0.09514,0.35505 -0.454301,0.56731 -0.802214,0.47409 -0.347912,-0.0932 -0.552827,-0.45663 -0.45769,-0.81168 0.09514,-0.35506 0.454301,-0.56732 0.802213,-0.4741 z m 1.665194,-6.21458 c 0.347912,0.0932 0.552827,0.45662 0.45769,0.81168 -0.09514,0.35506 -0.454301,0.56732 -0.802213,0.47409 -0.347913,-0.0932 -0.552828,-0.45662 -0.45769,-0.81168 0.09514,-0.35506 0.4543,-0.56732 0.802213,-0.47409 z m 1.665193,-6.21459 c 0.347913,0.0932 0.552828,0.45662 0.45769,0.81168 -0.09514,0.35506 -0.4543,0.56732 -0.802213,0.4741 -0.347912,-0.0932 -0.552827,-0.45663 -0.45769,-0.81169 0.09514,-0.35506 0.4543,-0.56731 0.802213,-0.47409 z m 1.665193,-6.21459 c 0.347913,0.0932 0.552828,0.45663 0.457691,0.81169 -0.09514,0.35505 -0.454301,0.56731 -0.802213,0.47409 -0.347913,-0.0932 -0.552828,-0.45663 -0.457691,-0.81168 0.09514,-0.35506 0.454301,-0.56732 0.802213,-0.4741 z m 1.665194,-6.21459 c 0.347912,0.0932 0.552827,0.45663 0.45769,0.81169 -0.09514,0.35506 -0.4543,0.56731 -0.802213,0.47409 -0.347913,-0.0932 -0.552828,-0.45662 -0.45769,-0.81168 0.09514,-0.35506 0.4543,-0.56732 0.802213,-0.4741 z m 2.624987,-5.47811 c 0.180093,0.31193 0.06802,0.7138 -0.250311,0.89759 -0.318335,0.18379 -0.722392,0.0799 -0.902484,-0.23202 -0.180093,-0.31193 -0.06803,-0.71379 0.250311,-0.89758 0.318335,-0.18379 0.722392,-0.0799 0.902484,0.23201 z m 5.571847,-3.2169 c 0.180093,0.31193 0.06803,0.71379 -0.250311,0.89758 -0.318336,0.18379 -0.722392,0.0799 -0.902485,-0.23202 -0.180093,-0.31193 -0.06803,-0.71379 0.250311,-0.89758 0.318336,-0.18379 0.722392,-0.0799 0.902485,0.23202 z m 5.571847,-3.21691 c 0.180093,0.31193 0.06802,0.71379 -0.250311,0.89758 -0.318336,0.18379 -0.722392,0.0799 -0.902485,-0.23201 -0.180093,-0.31193 -0.06803,-0.71379 0.250311,-0.89758 0.318335,-0.1838 0.722392,-0.0799 0.902485,0.23201 z m 5.571846,-3.21691 c 0.180093,0.31193 0.06802,0.7138 -0.250311,0.89759 -0.318336,0.18379 -0.722392,0.0799 -0.902485,-0.23202 -0.180092,-0.31193 -0.06802,-0.71379 0.250311,-0.89758 0.318336,-0.18379 0.722392,-0.0799 0.902485,0.23201 z m 5.571847,-3.2169 c 0.180093,0.31193 0.06803,0.71379 -0.250311,0.89758 -0.318336,0.18379 -0.722392,0.0799 -0.902485,-0.23202 -0.180093,-0.31193 -0.06803,-0.71379 0.250311,-0.89758 0.318336,-0.18379 0.722392,-0.0799 0.902485,0.23202 z m 5.571846,-3.21691 c 0.180093,0.31193 0.06802,0.71379 -0.250311,0.89758 -0.318336,0.1838 -0.722392,0.0799 -0.902485,-0.23201 -0.180092,-0.31193 -0.06802,-0.71379 0.250311,-0.89758 0.318336,-0.1838 0.722392,-0.0799 0.902485,0.23201 z"
       id="path857"
       inkscape:original-d="m 97.582153,136.51925 37.529607,10.05604 19.4261,33.64699 -10.05604,37.52961 -33.64699,19.4261 -37.529597,-10.05603 -19.426109,-33.64699 10.05603,-37.52962 z"
       inkscape:path-effect="#path-effect859" />
  </g>
</svg>
