<?xml version="1.0" encoding="UTF-8" standalone="no"?>
<svg
   xmlns:osb="http://www.openswatchbook.org/uri/2009/osb"
   xmlns:dc="http://purl.org/dc/elements/1.1/"
   xmlns:cc="http://creativecommons.org/ns#"
   xmlns:rdf="http://www.w3.org/1999/02/22-rdf-syntax-ns#"
   xmlns:svg="http://www.w3.org/2000/svg"
   xmlns="http://www.w3.org/2000/svg"
   xmlns:sodipodi="http://sodipodi.sourceforge.net/DTD/sodipodi-0.dtd"
   xmlns:inkscape="http://www.inkscape.org/namespaces/inkscape"
   width="210mm"
   height="297mm"
   viewBox="0 0 210 297"
   version="1.1"
   id="svg8"
   inkscape:version="1.0.2 (e86c870879, 2021-01-15, custom)"
   sodipodi:docname="CARD HOLDER.svg">
  <defs
     id="defs2">
    <inkscape:path-effect
       effect="powerstroke"
       id="path-effect7489"
       is_visible="true"
       offset_points="0,0.13229166"
       sort_points="true"
       interpolator_type="CubicBezierJohan"
       interpolator_beta="0.2"
       start_linecap_type="zerowidth"
       linejoin_type="extrp_arc"
       miter_limit="4"
       end_linecap_type="zerowidth" />
    <inkscape:path-effect
       effect="powerstroke"
       id="path-effect7485"
       is_visible="true"
       offset_points="0,0.13229166"
       sort_points="true"
       interpolator_type="CubicBezierJohan"
       interpolator_beta="0.2"
       start_linecap_type="zerowidth"
       linejoin_type="extrp_arc"
       miter_limit="4"
       end_linecap_type="zerowidth" />
    <inkscape:path-effect
       effect="powerstroke"
       id="path-effect7481"
       is_visible="true"
       offset_points="0,0.13229166"
       sort_points="true"
       interpolator_type="CubicBezierJohan"
       interpolator_beta="0.2"
       start_linecap_type="zerowidth"
       linejoin_type="extrp_arc"
       miter_limit="4"
       end_linecap_type="zerowidth" />
    <inkscape:path-effect
       effect="powerstroke"
       id="path-effect7471"
       is_visible="true"
       offset_points="0,0.13229166"
       sort_points="true"
       interpolator_type="CubicBezierJohan"
       interpolator_beta="0.2"
       start_linecap_type="zerowidth"
       linejoin_type="extrp_arc"
       miter_limit="4"
       end_linecap_type="zerowidth" />
    <inkscape:path-effect
       effect="bspline"
       id="path-effect7447"
       is_visible="true"
       weight="33.333333"
       steps="2"
       helper_size="0"
       apply_no_weight="true"
       apply_with_weight="true"
       only_selected="false" />
    <marker
       inkscape:stockid="Arrow2Lstart"
       orient="auto"
       refY="0.0"
       refX="0.0"
       id="Arrow2Lstart"
       style="overflow:visible"
       inkscape:isstock="true">
      <path
         id="path7011"
         style="fill-rule:evenodd;stroke-width:0.62500000;stroke-linejoin:round"
         d="M 8.7185878,4.0337352 L -2.2072895,0.016013256 L 8.7185884,-4.0017078 C 6.9730900,-1.6296469 6.9831476,1.6157441 8.7185878,4.0337352 z "
         transform="scale(1.1) translate(1,0)" />
    </marker>
    <linearGradient
       id="linearGradient6983"
       osb:paint="solid">
      <stop
         style="stop-color:#936464;stop-opacity:1;"
         offset="0"
         id="stop6981" />
    </linearGradient>
    <linearGradient
       id="linearGradient6923"
       osb:paint="solid">
      <stop
         style="stop-color:#ffffff;stop-opacity:1;"
         offset="0"
         id="stop6921" />
    </linearGradient>
    <linearGradient
       id="linearGradient6261"
       osb:paint="solid">
      <stop
         style="stop-color:#ffffff;stop-opacity:1;"
         offset="0"
         id="stop6259" />
    </linearGradient>
  </defs>
  <sodipodi:namedview
     id="base"
     pagecolor="#ffffff"
     bordercolor="#666666"
     borderopacity="1.0"
     inkscape:pageopacity="0.0"
     inkscape:pageshadow="2"
     inkscape:zoom="0.70000002"
     inkscape:cx="1626.7491"
     inkscape:cy="102.25765"
     inkscape:document-units="mm"
     inkscape:current-layer="layer1"
     showgrid="false"
     inkscape:snap-grids="false"
     inkscape:snap-to-guides="true"
     inkscape:snap-page="false"
     showguides="true"
     inkscape:window-width="1920"
     inkscape:window-height="1080"
     inkscape:window-x="0"
     inkscape:window-y="0"
     inkscape:window-maximized="1"
     inkscape:guide-bbox="true"
     inkscape:document-rotation="0">
    <inkscape:grid
       type="xygrid"
       id="grid8048" />
  </sodipodi:namedview>
  <metadata
     id="metadata5">
    <rdf:RDF>
      <cc:Work
         rdf:about="">
        <dc:format>image/svg+xml</dc:format>
        <dc:type
           rdf:resource="http://purl.org/dc/dcmitype/StillImage" />
        <dc:title />
      </cc:Work>
    </rdf:RDF>
  </metadata>
  <g
     inkscape:label="Layer 1"
     inkscape:groupmode="layer"
     id="layer1"
     style="opacity:1">
    <rect
       style="opacity:1;fill:#a64242;fill-opacity:1;stroke:#000000;stroke-width:0.3;stroke-linecap:square;stroke-linejoin:miter;stroke-miterlimit:4.9000001;stroke-dasharray:none;stroke-dashoffset:20.2394;stroke-opacity:1;paint-order:markers stroke fill"
       id="rect8144"
       width="229.49263"
       height="111.02896"
       x="279.46951"
       y="244.35469" />
    <g
       id="g8174"
       transform="translate(283.91608,267.21738)"
       style="stroke-width:0.3;stroke-linejoin:miter;stroke-miterlimit:4.9000001;stroke-dasharray:none">
      <rect
         ry="4.7247024"
         y="116.07255"
         x="115.90587"
         height="55.000004"
         width="85.000008"
         id="rect8146-1"
         style="opacity:1;fill:#00ffff;fill-opacity:1;stroke:#000000;stroke-width:0.3;stroke-linecap:square;stroke-linejoin:miter;stroke-miterlimit:4.9000001;stroke-dasharray:none;stroke-dashoffset:20.2394;stroke-opacity:1;paint-order:markers stroke fill" />
      <path
         sodipodi:nodetypes="cccccccccczzzcc"
         inkscape:connector-curvature="0"
         id="path7896-5-2-3-3-4"
         d="m 108.80618,126.64267 v 15.13226 h 9.73222 l 10.26811,36.6174 h 29.99972 30.00024 l 10.25416,-36.6174 h 9.74565 v -15.13226 l -12.5,-8e-5 c 0,0 -5.7809,-0.14637 -12.16593,0.86856 -6.38505,1.01493 -17.13202,6.44737 -25.80659,6.42478 -8.67458,-0.0226 -18.28027,-5.72016 -24.52755,-6.6934 -6.24729,-0.97324 -12.50002,-0.53382 -12.50002,-0.53382 z"
         style="opacity:1;fill:#a64242;fill-opacity:1;stroke:#000000;stroke-width:0.3;stroke-linecap:butt;stroke-linejoin:miter;stroke-miterlimit:4.9000001;stroke-dasharray:none;stroke-opacity:1" />
    </g>
    <path
       style="opacity:1;fill:none;fill-opacity:1;stroke:#000000;stroke-width:0.3;stroke-linecap:butt;stroke-linejoin:miter;stroke-miterlimit:4.9000001;stroke-dasharray:none;stroke-opacity:1"
       d="m -356.12879,142.05538 v 15.12209 h 11.14 l 11.7534,36.59281 h 34.3392 34.33982 l 11.73744,-36.59281 h 11.15537 v -15.12209 l -14.30816,-8e-5 c 0,0 -6.61709,-0.14627 -13.92573,0.86798 -7.30865,1.01425 -19.61018,6.44304 -29.53954,6.42046 -9.92938,-0.0226 -20.92454,-5.71631 -28.07549,-6.6889 -7.15096,-0.97259 -14.30816,-0.53346 -14.30816,-0.53346 z"
       id="path7896-5-2-3-3"
       inkscape:connector-curvature="0"
       sodipodi:nodetypes="cccccccccczzzcc" />
    <path
       style="opacity:1;fill:none;fill-opacity:1;stroke:#000000;stroke-width:0.3;stroke-linecap:butt;stroke-linejoin:miter;stroke-miterlimit:4.9000001;stroke-dasharray:none;stroke-dashoffset:20.2394;stroke-opacity:1;paint-order:markers stroke fill"
       d="m -181.59391,145.2543 c -2.68315,-0.0118 -4.47226,0.0981 -4.47226,0.0981 l -14.30791,-0.0661 v 15.108 h 5.8e-4 v 36.55881 h 22.89219 v 4.6e-4 h 34.33888 34.33947 v -5.2e-4 h 22.892193 v -36.55881 h 5.9e-4 v -15.10792 h -14.307913 c 0,0 -6.6171,-0.14627 -13.92567,0.86705 -7.30859,1.01332 -19.60979,6.43733 -29.53905,6.41477 -9.92928,-0.0226 -20.92456,-5.71109 -28.07545,-6.68279 -3.57545,-0.48585 -7.15251,-0.61926 -9.83565,-0.63105 z"
       id="rect854-3"
       inkscape:connector-curvature="0" />
    <g
       id="g920"
       transform="translate(285.58454,112.97386)"
       style="stroke-width:0.3;stroke-miterlimit:4.9000001;stroke-dasharray:none">
      <path
         sodipodi:nodetypes="cccccccccczzzcc"
         inkscape:connector-curvature="0"
         id="path7896-5"
         d="m -6.3690811,145.52611 v 15.13226 h 9.73222 l 10.2681101,36.6174 h 29.99972 30.00024 l 10.25415,-36.6174 h 9.74566 v -15.13226 l -12.50001,-8e-5 c 0,0 -5.78089,-0.14637 -12.16593,0.86856 -6.38504,1.01493 -17.13201,6.44737 -25.80658,6.42478 -8.67458,-0.0226 -18.28027,-5.72016 -24.52756,-6.6934 -6.24729,-0.97324 -12.5000101,-0.53382 -12.5000101,-0.53382 z"
         style="opacity:1;fill:#a64242;fill-opacity:1;stroke:#000000;stroke-width:0.3;stroke-linecap:butt;stroke-linejoin:miter;stroke-miterlimit:4.9000001;stroke-dasharray:none;stroke-opacity:1" />
      <path
         sodipodi:nodetypes="cccccccccczzzcc"
         inkscape:connector-curvature="0"
         id="path7896-5-2"
         d="m -6.3690911,160.65837 v 15.13226 h 9.73222 l 10.2681101,36.6174 h 29.99972 30.00025 l 10.25415,-36.6174 h 9.74567 v -15.13226 l -12.50003,-8e-5 c 0,0 -5.78088,-0.14637 -12.16591,0.86856 -6.38505,1.01493 -17.13202,6.44737 -25.8066,6.42478 -8.67458,-0.0226 -18.28027,-5.72016 -24.52755,-6.6934 -6.24729,-0.97324 -12.5000201,-0.53382 -12.5000201,-0.53382 z"
         style="opacity:1;fill:#a64242;fill-opacity:1;stroke:#000000;stroke-width:0.3;stroke-linecap:butt;stroke-linejoin:miter;stroke-miterlimit:4.9000001;stroke-dasharray:none;stroke-opacity:1" />
      <path
         sodipodi:nodetypes="cccccccccczzzcc"
         inkscape:connector-curvature="0"
         id="path7896-5-2-3"
         d="m -6.3690911,175.79063 v 15.13226 h 9.73222 l 10.2681101,36.6174 h 29.99972 30.00025 l 10.25415,-36.6174 h 9.74567 v -15.13226 l -12.50003,-8e-5 c 0,0 -5.78088,-0.14637 -12.16591,0.86856 -6.38505,1.01493 -17.13202,6.44737 -25.8066,6.42478 -8.67458,-0.0226 -18.28027,-5.72016 -24.52755,-6.6934 -6.24729,-0.97324 -12.5000201,-0.53382 -12.5000201,-0.53382 z"
         style="opacity:1;fill:#a64242;fill-opacity:1;stroke:#000000;stroke-width:0.3;stroke-linecap:butt;stroke-linejoin:miter;stroke-miterlimit:4.9000001;stroke-dasharray:none;stroke-opacity:1" />
      <path
         inkscape:connector-curvature="0"
         id="rect854-3-5"
         d="m 10.205874,190.67856 c -2.3323902,-0.0118 -3.8876202,0.0982 -3.8876202,0.0982 l -12.43748,-0.0661 v 15.11846 h 5.1e-4 v 36.58432 H 13.780844 v 5.3e-4 h 29.84987 29.85036 v -5.3e-4 h 19.89957 v -36.58438 h 5.2e-4 V 190.7106 h -12.43748 c 0,0 -5.75207,-0.14637 -12.10521,0.86765 -6.35316,1.01403 -17.04627,6.44182 -25.67751,6.41925 -8.63125,-0.0226 -18.18914,-5.71508 -24.40523,-6.68745 -3.10804,-0.48619 -6.21748,-0.6197 -8.54986,-0.63149 z"
         style="opacity:1;fill:#d35f5f;fill-opacity:1;stroke:#000000;stroke-width:0.3;stroke-linecap:butt;stroke-linejoin:miter;stroke-miterlimit:4.9000001;stroke-dasharray:none;stroke-dashoffset:20.2394;stroke-opacity:1;paint-order:markers stroke fill" />
    </g>
    <g
       id="g926"
       transform="translate(292.71858,112.74258)"
       style="stroke-width:0.3;stroke-miterlimit:4.9000001;stroke-dasharray:none">
      <path
         sodipodi:nodetypes="cccccccccczzzcc"
         inkscape:connector-curvature="0"
         id="path7896-5-1"
         d="m 116.49384,145.54148 v 15.13226 h 9.73222 l 10.26811,36.6174 h 29.99972 30.00024 l 10.25415,-36.6174 h 9.74566 v -15.13226 l -12.50001,-8e-5 c 0,0 -5.78089,-0.14637 -12.16593,0.86856 -6.38504,1.01493 -17.13201,6.44737 -25.80658,6.42478 -8.67458,-0.0226 -18.28027,-5.72016 -24.52756,-6.6934 -6.24729,-0.97324 -12.50001,-0.53382 -12.50001,-0.53382 z"
         style="opacity:1;fill:#a64242;fill-opacity:1;stroke:#000000;stroke-width:0.3;stroke-linecap:butt;stroke-linejoin:miter;stroke-miterlimit:4.9000001;stroke-dasharray:none;stroke-opacity:1" />
      <path
         sodipodi:nodetypes="cccccccccczzzcc"
         inkscape:connector-curvature="0"
         id="path7896-5-2-4"
         d="M 116.49384,160.67374 V 175.806 h 9.73222 l 10.26811,36.6174 h 29.99972 30.00024 l 10.25416,-36.6174 h 9.74565 v -15.13226 l -12.50001,-8e-5 c 0,0 -5.78089,-0.14637 -12.16592,0.86856 -6.38505,1.01493 -17.13202,6.44737 -25.80659,6.42478 -8.67458,-0.0226 -18.28027,-5.72016 -24.52755,-6.6934 -6.24729,-0.97324 -12.50002,-0.53382 -12.50002,-0.53382 z"
         style="opacity:1;fill:#a64242;fill-opacity:1;stroke:#000000;stroke-width:0.3;stroke-linecap:butt;stroke-linejoin:miter;stroke-miterlimit:4.9000001;stroke-dasharray:none;stroke-opacity:1" />
      <path
         sodipodi:nodetypes="cccccccccczzzcc"
         inkscape:connector-curvature="0"
         id="path7896-5-2-3-45"
         d="m 116.49384,175.806 v 15.13226 h 9.73222 l 10.26811,36.61741 h 29.99972 30.00024 l 10.25416,-36.61741 h 9.74565 V 175.806 l -12.50001,-8e-5 c 0,0 -5.78089,-0.14637 -12.16592,0.86856 -6.38505,1.01493 -17.13202,6.44738 -25.80659,6.42478 -8.67458,-0.0226 -18.28027,-5.72015 -24.52755,-6.6934 -6.24729,-0.97324 -12.50002,-0.53382 -12.50002,-0.53382 z"
         style="opacity:1;fill:#a64242;fill-opacity:1;stroke:#000000;stroke-width:0.3;stroke-linecap:butt;stroke-linejoin:miter;stroke-miterlimit:4.9000001;stroke-dasharray:none;stroke-opacity:1" />
      <path
         inkscape:connector-curvature="0"
         id="rect854-3-5-2"
         d="m 133.06879,190.90616 c -2.33239,-0.0118 -3.88762,0.0982 -3.88762,0.0982 l -12.43748,-0.0661 v 15.11846 h 5.1e-4 v 36.58432 h 19.89956 v 5.3e-4 h 29.84987 29.85036 v -5.3e-4 h 19.89957 v -36.58438 h 5.3e-4 V 190.9382 h -12.43748 c 0,0 -5.75207,-0.14637 -12.10521,0.86765 -6.35317,1.01403 -17.04628,6.44182 -25.67752,6.41925 -8.63125,-0.0226 -18.18914,-5.71508 -24.40523,-6.68745 -3.10804,-0.48619 -6.21748,-0.6197 -8.54986,-0.63149 z"
         style="opacity:1;fill:#d35f5f;fill-opacity:1;stroke:#000000;stroke-width:0.3;stroke-linecap:butt;stroke-linejoin:miter;stroke-miterlimit:4.9000001;stroke-dasharray:none;stroke-dashoffset:20.2394;stroke-opacity:1;paint-order:markers stroke fill" />
    </g>
    <path
       style="opacity:1;fill:none;fill-opacity:1;stroke:#000000;stroke-width:0.3;stroke-linecap:square;stroke-linejoin:miter;stroke-miterlimit:4.9000001;stroke-dasharray:none;stroke-dashoffset:20.2394;stroke-opacity:1;paint-order:markers stroke fill"
       d="M -342.15442,-7.0540553 V 103.94325 H -82.693987 V -7.0540553 Z m 122.33572,7.99362005 h 14.78842 c 3.67964,0 6.64228,2.61970995 6.64228,5.87341995 V 90.076205 c 0,3.25372 -2.96264,5.87342 -6.64228,5.87342 h -14.78842 c -3.67965,0 -6.64171,-2.6197 -6.64171,-5.87342 V 6.8129847 c 0,-3.25371 2.96206,-5.87341995 6.64171,-5.87341995 z"
       id="rect8144-5"
       inkscape:connector-curvature="0" />
    <path
       style="opacity:1;fill:#a64242;fill-opacity:1;stroke:#000000;stroke-width:0.3;stroke-linecap:butt;stroke-linejoin:miter;stroke-miterlimit:4.9000001;stroke-dasharray:none;stroke-opacity:1"
       d="M 362.77666,-55.635293 H 347.6444 v 9.73222 l -36.6174,10.26811 v 29.99971 30.00025 l 36.6174,10.254171 v 9.745642 h 15.13226 l 8e-5,-12.500003 c 0,0 0.14637,-5.7809 -0.86856,-12.16593 -1.01493,-6.38505 -6.44737,-17.13202 -6.42478,-25.80659 0.0226,-8.67458 5.72016,-18.28028 6.6934,-24.52755 0.97324,-6.24729 0.53382,-12.50002 0.53382,-12.50002 z"
       id="path7896-5-2-3-3-5"
       inkscape:connector-curvature="0"
       sodipodi:nodetypes="cccccccccczzzcc" />
    <path
       style="opacity:1;fill:#d35f5f;fill-opacity:1;stroke:#000000;stroke-width:0.3;stroke-linecap:butt;stroke-linejoin:miter;stroke-miterlimit:4.9000001;stroke-dasharray:none;stroke-dashoffset:20.2394;stroke-opacity:1;paint-order:markers stroke fill"
       d="m 364.18056,116.48108 c 0.0118,-2.3324 -0.0982,-3.88762 -0.0982,-3.88762 l 0.0661,-12.43749 H 349.03 v 5.3e-4 h -36.58433 v 19.89956 h -4.6e-4 v 29.84986 29.85037 h 5.2e-4 v 19.89956 h 36.58433 v 5.3e-4 h 15.11846 V 187.2189 c 0,0 0.14637,-5.75206 -0.86765,-12.1052 -1.01403,-6.35317 -6.44182,-17.04627 -6.41925,-25.67751 0.0226,-8.63125 5.71508,-18.18915 6.68746,-24.40523 0.48618,-3.10803 0.61969,-6.21748 0.63148,-8.54986 z"
       id="rect854-3-4"
       inkscape:connector-curvature="0" />
    <path
       style="opacity:1;fill:#a64242;fill-opacity:1;stroke:#000000;stroke-width:0.3;stroke-linecap:square;stroke-linejoin:miter;stroke-miterlimit:4.9000001;stroke-dasharray:none;stroke-dashoffset:20.2394;stroke-opacity:1;paint-order:markers stroke fill"
       d="M 491.20228,-48.608323 H 380.17341 V 180.88411 H 491.20228 Z M 483.20639,59.59746 V 72.6778 c 0,3.254644 -2.62045,5.875094 -5.87509,5.875094 h -83.2869 c -3.25464,0 -5.87509,-2.62045 -5.87509,-5.875094 V 59.59746 c 0,-3.25464 2.62045,-5.87457 5.87509,-5.87457 h 83.2869 c 3.25464,0 5.87509,2.61993 5.87509,5.87457 z"
       id="rect8144-5-3"
       inkscape:connector-curvature="0" />
    <text
       xml:space="preserve"
       style="font-style:normal;font-weight:normal;font-size:10.5833px;line-height:1.25;font-family:sans-serif;letter-spacing:0px;word-spacing:0px;fill:#000000;fill-opacity:1;stroke:none;stroke-width:0.3;stroke-miterlimit:4.9000001;stroke-dasharray:none"
       x="-280.8587"
       y="-91.979279"
       id="text885"
       inkscape:transform-center-x="183.98768"
       inkscape:transform-center-y="-58.984344"><tspan
         sodipodi:role="line"
         x="-280.8587"
         y="-91.979279"
         style="stroke-width:0.3;stroke-miterlimit:4.9000001;stroke-dasharray:none"
         id="tspan887">RESIZED TO - 115mm</tspan></text>
    <path
       id="rect8144-5-0"
       style="fill:#c87137;fill-opacity:1;stroke:#000000;stroke-width:0.3;stroke-linecap:square;stroke-linejoin:miter;stroke-miterlimit:4.9000001;stroke-dasharray:none;stroke-dashoffset:20.2394;stroke-opacity:1;paint-order:markers stroke fill;opacity:1"
       d="m -364.00098,278.89403 v 110.99734 h 259.46065 V 278.89403 Z m 122.33569,7.9933 h 14.78877 c 3.67964,0 6.64197,2.61983 6.64197,5.87354 V 376.024 c 0,3.25374 -2.96233,5.87356 -6.64197,5.87356 h -14.78877 c -3.67965,0 -6.64146,-2.61982 -6.64146,-5.87356 v -83.26313 c 0,-3.25371 2.96181,-5.87354 6.64146,-5.87354 z m -100.62332,54.01426 h 71.03598 l -1.17771,3.67163 h -34.34002 -34.33899 z m -0.13539,14.69988 h 71.30676 l -1.3131,4.09382 h -34.34002 -34.33899 z m -0.0739,14.89316 h 71.45404 l -1.38648,4.32274 h -34.34002 -34.33899 z" />
    <g
       id="g8183"
       transform="translate(43.204322,339.94655)"
       style="stroke-width:0.3;stroke-linejoin:miter;stroke-miterlimit:4.9000001;stroke-dasharray:none"
       inkscape:transform-center-x="-113.4779"
       inkscape:transform-center-y="-58.964285">
      <rect
         ry="4.7247024"
         y="-3.8690524"
         x="12.095239"
         height="55"
         width="85"
         id="rect8146"
         style="opacity:1;fill:#00ffff;fill-opacity:1;stroke:#000000;stroke-width:0.3;stroke-linecap:square;stroke-linejoin:miter;stroke-miterlimit:4.9000001;stroke-dasharray:none;stroke-dashoffset:20.2394;stroke-opacity:1;paint-order:markers stroke fill" />
      <text
         id="text8178"
         y="26.369047"
         x="24.190477"
         style="font-style:normal;font-weight:normal;font-size:10.5833px;line-height:1.25;font-family:sans-serif;letter-spacing:0px;word-spacing:0px;fill:#000000;fill-opacity:1;stroke:none;stroke-width:0.3;stroke-linejoin:miter;stroke-miterlimit:4.9000001;stroke-dasharray:none"
         xml:space="preserve"><tspan
           style="stroke-width:0.3;stroke-linejoin:miter;stroke-miterlimit:4.9000001;stroke-dasharray:none"
           y="26.369047"
           x="24.190477"
           id="tspan8176"
           sodipodi:role="line">85 x 55 mm</tspan></text>
    </g>
    <path
       style="fill:#552200;fill-opacity:1;stroke:#000000;stroke-width:0.3;stroke-linecap:butt;stroke-linejoin:miter;stroke-miterlimit:4.9000001;stroke-dasharray:none;stroke-opacity:1;opacity:0.6"
       d="m -364.00276,292.85829 v 15.12209 h 11.14 l 11.7534,36.59281 h 34.3392 34.33982 l 11.73744,-36.59281 h 11.15537 v -15.12209 l -14.30816,-8e-5 c 0,0 -6.61709,-0.14627 -13.92573,0.86798 -7.30865,1.01425 -19.61018,6.44304 -29.53954,6.42046 -9.92938,-0.0226 -20.92454,-5.71631 -28.07549,-6.6889 -7.15096,-0.97259 -14.30816,-0.53346 -14.30816,-0.53346 z"
       id="path7896-5-2-3-3-1-0-3"
       inkscape:connector-curvature="0"
       sodipodi:nodetypes="cccccccccczzzcc" />
    <path
       style="fill:#803300;fill-opacity:1;stroke:#000000;stroke-width:0.3;stroke-linecap:butt;stroke-linejoin:miter;stroke-miterlimit:4.9000001;stroke-dasharray:none;stroke-opacity:1;opacity:0.6"
       d="m -364.00276,307.98038 v 15.12209 h 11.14 l 11.7534,36.59281 h 34.3392 34.33982 l 11.73744,-36.59281 h 11.15537 v -15.12209 l -14.30816,-8e-5 c 0,0 -6.61709,-0.14627 -13.92573,0.86798 -7.30865,1.01425 -19.61018,6.44304 -29.53954,6.42046 -9.92938,-0.0226 -20.92454,-5.71631 -28.07549,-6.6889 -7.15096,-0.97259 -14.30816,-0.53346 -14.30816,-0.53346 z"
       id="path7896-5-2-3-3-1-0"
       inkscape:connector-curvature="0"
       sodipodi:nodetypes="cccccccccczzzcc" />
    <path
       style="fill:#d45500;fill-opacity:1;stroke:#000000;stroke-width:0.3;stroke-linecap:butt;stroke-linejoin:miter;stroke-miterlimit:4.9000001;stroke-dasharray:none;stroke-opacity:1;opacity:0.6"
       d="m -364.00276,323.10247 v 15.12209 h 11.14 l 11.7534,36.59281 h 34.3392 34.33982 l 11.73744,-36.59281 h 11.15537 v -15.12209 l -14.30816,-8e-5 c 0,0 -6.61709,-0.14627 -13.92573,0.86798 -7.30865,1.01425 -19.61018,6.44304 -29.53954,6.42046 -9.92938,-0.0226 -20.92454,-5.71631 -28.07549,-6.6889 -7.15096,-0.97259 -14.30816,-0.53346 -14.30816,-0.53346 z"
       id="path7896-5-2-3-3-1"
       inkscape:connector-curvature="0"
       sodipodi:nodetypes="cccccccccczzzcc" />
    <path
       style="fill:#ff9955;fill-opacity:1;stroke:#000000;stroke-width:0.3;stroke-linecap:butt;stroke-linejoin:miter;stroke-miterlimit:4.9000001;stroke-dasharray:none;stroke-dashoffset:20.2394;stroke-opacity:1;paint-order:markers stroke fill;opacity:0.6"
       d="m -345.22125,338.19254 c -2.68316,-0.0118 -4.47227,0.0981 -4.47227,0.0981 l -14.30791,-0.0661 v 15.108 h 5.8e-4 v 36.55881 h 22.8922 v 4.6e-4 h 34.33887 34.33947 v -5.2e-4 h 22.89219 v -36.55881 h 5.9e-4 v -15.10792 h -14.30791 c 0,0 -6.6171,-0.14627 -13.92567,0.86705 -7.30859,1.01332 -19.60979,6.43733 -29.53905,6.41477 -9.92928,-0.0226 -20.92455,-5.71109 -28.07544,-6.68279 -3.57545,-0.48585 -7.15251,-0.61926 -9.83565,-0.63105 z"
       id="rect854-3-57"
       inkscape:connector-curvature="0" />
    <path
       id="path1040-5"
       style="fill:none;fill-opacity:1;stroke:#000000;stroke-width:0.3;stroke-linecap:square;stroke-linejoin:miter;stroke-miterlimit:4.9000001;stroke-dasharray:none;stroke-dashoffset:20.2394;stroke-opacity:1;paint-order:markers stroke fill"
       d="m 73.564205,187.75135 v 71.03598 l -3.67163,-1.17771 V 223.2696 188.93061 Z m -14.69988,-0.13539 v 71.30676 l -4.09382,-1.3131 V 223.2696 188.93061 Z m -14.89316,-0.0739 v 71.45404 l -4.32274,-1.38648 V 223.2696 188.93061 Z M 135.57177,21.03906 H 24.57443 V 280.4997 h 110.99734 z m -7.9933,122.33569 v 14.78877 c 0,3.67964 -2.61983,6.64197 -5.87354,6.64197 H 38.4418 c -3.25374,0 -5.87356,-2.96233 -5.87356,-6.64197 v -14.78877 c 0,-3.67965 2.61982,-6.64146 5.87356,-6.64146 h 83.26313 c 3.25371,0 5.87354,2.96181 5.87354,6.64146 z M 73.56421,42.75143 v 71.03598 L 69.89258,112.6097 V 78.26968 43.93069 Z M 58.86433,42.61604 v 71.30676 l -4.09382,-1.3131 V 78.26968 43.93069 Z m -14.89316,-0.0739 v 71.45404 L 39.64843,112.6097 V 78.26968 43.93069 Z" />
    <text
       xml:space="preserve"
       style="font-style:normal;font-weight:normal;font-size:10.5833px;line-height:1.25;font-family:sans-serif;letter-spacing:0px;word-spacing:0px;fill:#000000;fill-opacity:1;stroke:none;stroke-width:0.3;stroke-miterlimit:4.9;stroke-dasharray:none"
       x="358.18091"
       y="-91.979279"
       id="text885-2"
       inkscape:transform-center-x="-447.86118"
       inkscape:transform-center-y="-70.633514"><tspan
         sodipodi:role="line"
         x="358.18091"
         y="-91.979279"
         style="stroke-width:0.3;stroke-miterlimit:4.9;stroke-dasharray:none"
         id="tspan951">SIZED TO - 100mm  {FOR SOFTER LEATHER}</tspan></text>
    <path
       style="opacity:1;fill:none;fill-opacity:1;stroke:#000000;stroke-width:0.3;stroke-linecap:butt;stroke-linejoin:miter;stroke-miterlimit:4.9000001;stroke-dasharray:none;stroke-opacity:1"
       d="m -657.61467,145.25675 v 15.12552 h 10.65453 l 11.2412,36.6011 h 32.84273 32.84333 l 11.22594,-36.6011 h 10.66923 v -15.12552 l -13.68463,-8e-5 c 0,0 -6.32872,-0.1463 -13.31886,0.86818 -6.99015,1.01448 -18.75559,6.4445 -28.25224,6.42191 -9.49667,-0.0226 -20.01267,-5.7176 -26.85199,-6.69041 -6.83933,-0.97281 -13.68462,-0.53358 -13.68462,-0.53358 z"
       id="path892"
       inkscape:connector-curvature="0"
       sodipodi:nodetypes="cccccccccczzzcc" />
    <path
       style="opacity:1;fill:none;fill-opacity:1;stroke:#000000;stroke-width:0.3;stroke-linecap:butt;stroke-linejoin:miter;stroke-miterlimit:4.9000001;stroke-dasharray:none;stroke-dashoffset:20.2394;stroke-opacity:1;paint-order:markers stroke fill"
       d="m -498.86532,144.17934 c -2.56622,-0.0118 -4.27736,0.0981 -4.27736,0.0981 l -13.68439,-0.0661 v 15.11144 h 5.6e-4 v 36.56712 h 21.89457 v 4.6e-4 h 32.84242 32.84298 v -5.2e-4 h 21.89457 v -36.56712 h 5.6e-4 v -15.11136 h -13.68438 c 0,0 -6.32873,-0.1463 -13.3188,0.86725 -6.99009,1.01355 -18.75521,6.43879 -28.25176,6.41623 -9.49657,-0.0226 -20.01269,-5.71239 -26.85195,-6.68431 -3.41963,-0.48596 -6.84081,-0.6194 -9.40702,-0.6312 z"
       id="path894"
       inkscape:connector-curvature="0" />
    <path
       style="opacity:1;fill:none;fill-opacity:1;stroke:#000000;stroke-width:0.3;stroke-linecap:square;stroke-linejoin:miter;stroke-miterlimit:4.9000001;stroke-dasharray:none;stroke-dashoffset:20.2394;stroke-opacity:1;paint-order:markers stroke fill"
       d="M -658.60668,-8.1282881 V 102.87932 h 249.47074 V -8.1282881 Z m 117.62557,7.99436251 h 14.21904 c 3.53797,0 6.38654,2.61995329 6.38654,5.87396549 V 89.010994 c 0,3.254022 -2.84857,5.873965 -6.38654,5.873965 h -14.21904 c -3.53798,0 -6.38599,-2.619943 -6.38599,-5.873965 V 5.7400399 c 0,-3.2540122 2.84801,-5.87396549 6.38599,-5.87396549 z"
       id="path896"
       inkscape:connector-curvature="0" />
    <text
       xml:space="preserve"
       style="font-style:normal;font-weight:normal;font-size:10.5833px;line-height:1.25;font-family:sans-serif;letter-spacing:0px;word-spacing:0px;fill:#000000;fill-opacity:1;stroke:none;stroke-width:0.3;stroke-miterlimit:4.9000001;stroke-dasharray:none"
       x="-280.8587"
       y="-91.979279"
       id="text912"
       inkscape:transform-center-x="183.98768"
       inkscape:transform-center-y="-58.984344"><tspan
         sodipodi:role="line"
         x="-280.8587"
         y="-91.979279"
         style="stroke-width:0.3;stroke-miterlimit:4.9000001;stroke-dasharray:none"
         id="tspan910">RESIZED TO - 115mm</tspan></text>
    <text
       xml:space="preserve"
       style="font-style:normal;font-weight:normal;font-size:10.5833px;line-height:1.25;font-family:sans-serif;letter-spacing:0px;word-spacing:0px;fill:#000000;fill-opacity:1;stroke:none;stroke-width:0.3;stroke-miterlimit:4.9000001;stroke-dasharray:none"
       x="-575.92426"
       y="-101.60098"
       id="text916"
       inkscape:transform-center-x="183.98768"
       inkscape:transform-center-y="-58.984344"><tspan
         sodipodi:role="line"
         x="-575.92426"
         y="-101.60098"
         style="stroke-width:0.3;stroke-miterlimit:4.9000001;stroke-dasharray:none"
         id="tspan914">RESIZED TO - 110</tspan><tspan
         sodipodi:role="line"
         x="-575.92426"
         y="-88.371857"
         style="stroke-width:0.3;stroke-miterlimit:4.9000001;stroke-dasharray:none"
         id="tspan918">mm</tspan></text>
    <path
       id="path943"
       style="opacity:1;fill:#c87137;fill-opacity:1;stroke:#000000;stroke-width:0.3;stroke-linecap:square;stroke-linejoin:miter;stroke-miterlimit:4.9000001;stroke-dasharray:none;stroke-dashoffset:20.2394;stroke-opacity:1;paint-order:markers stroke fill"
       d="m -651.51216,278.37354 v 111.00764 h 249.47074 V 278.37354 Z m 117.62544,7.99404 h 14.21937 c 3.53796,0 6.38623,2.62007 6.38623,5.87408 v 83.27087 c 0,3.25404 -2.84827,5.8741 -6.38623,5.8741 h -14.21937 c -3.53797,0 -6.38574,-2.62006 -6.38574,-5.8741 v -83.27087 c 0,-3.25401 2.84777,-5.87408 6.38574,-5.87408 z m -96.74906,54.01927 h 68.30091 l -1.13236,3.67198 h -33.01784 -33.01685 z m -0.13017,14.70125 h 68.56126 l -1.26254,4.0942 h -33.01784 -33.01685 z m -0.0711,14.89454 h 68.70287 l -1.33309,4.32314 h -33.01784 -33.01685 z" />
    <path
       style="opacity:0.6;fill:#fff6d5;fill-opacity:1;stroke:#000000;stroke-width:0.3;stroke-linecap:butt;stroke-linejoin:miter;stroke-miterlimit:4.9000001;stroke-dasharray:none;stroke-opacity:1"
       d="m -651.04902,292.33016 v 15.12552 h 10.65453 l 11.2412,36.6011 h 32.84273 32.84333 l 11.22594,-36.6011 h 10.66923 v -15.12552 l -13.68463,-8e-5 c 0,0 -6.32872,-0.1463 -13.31886,0.86818 -6.99015,1.01448 -18.75559,6.4445 -28.25224,6.42191 -9.49667,-0.0226 -20.01267,-5.7176 -26.85199,-6.69041 -6.83933,-0.97281 -13.68462,-0.53358 -13.68462,-0.53358 z"
       id="path941"
       inkscape:connector-curvature="0"
       sodipodi:nodetypes="cccccccccczzzcc" />
    <path
       style="opacity:0.6;fill:#ffe680;fill-opacity:1;stroke:#000000;stroke-width:0.3;stroke-linecap:butt;stroke-linejoin:miter;stroke-miterlimit:4.9000001;stroke-dasharray:none;stroke-opacity:1"
       d="m -651.04902,307.45568 v 15.12552 h 10.65453 l 11.2412,36.6011 h 32.84273 32.84333 l 11.22594,-36.6011 h 10.66923 v -15.12552 l -13.68463,-8e-5 c 0,0 -6.32872,-0.1463 -13.31886,0.86818 -6.99015,1.01448 -18.75559,6.4445 -28.25224,6.42191 -9.49667,-0.0226 -20.01267,-5.7176 -26.85199,-6.69041 -6.83933,-0.97281 -13.68462,-0.53358 -13.68462,-0.53358 z"
       id="path939"
       inkscape:connector-curvature="0"
       sodipodi:nodetypes="cccccccccczzzcc" />
    <path
       style="opacity:0.6;fill:#ffd42a;fill-opacity:1;stroke:#000000;stroke-width:0.3;stroke-linecap:butt;stroke-linejoin:miter;stroke-miterlimit:4.9000001;stroke-dasharray:none;stroke-opacity:1"
       d="m -651.04902,322.5812 v 15.12552 h 10.65453 l 11.2412,36.6011 h 32.84273 32.84333 l 11.22594,-36.6011 h 10.66923 V 322.5812 l -13.68463,-8e-5 c 0,0 -6.32872,-0.1463 -13.31886,0.86818 -6.99015,1.01448 -18.75559,6.4445 -28.25224,6.42191 -9.49667,-0.0226 -20.01267,-5.7176 -26.85199,-6.69041 -6.83933,-0.97281 -13.68462,-0.53358 -13.68462,-0.53358 z"
       id="path933"
       inkscape:connector-curvature="0"
       sodipodi:nodetypes="cccccccccczzzcc" />
    <path
       style="opacity:0.6;fill:#ffcc00;fill-opacity:1;stroke:#000000;stroke-width:0.3;stroke-linecap:butt;stroke-linejoin:miter;stroke-miterlimit:4.9000001;stroke-dasharray:none;stroke-dashoffset:20.2394;stroke-opacity:1;paint-order:markers stroke fill"
       d="m -633.08597,337.6747 c -2.56622,-0.0118 -4.27736,0.0981 -4.27736,0.0981 l -13.68439,-0.0661 v 15.11144 h 5.6e-4 v 36.56712 h 21.89457 v 4.6e-4 h 32.84242 32.84298 v -5.2e-4 h 21.89457 v -36.56712 h 5.6e-4 v -15.11136 h -13.68438 c 0,0 -6.32873,-0.1463 -13.3188,0.86725 -6.99009,1.01355 -18.75521,6.43879 -28.25176,6.41623 -9.49657,-0.0226 -20.01269,-5.71239 -26.85195,-6.68431 -3.41963,-0.48596 -6.84081,-0.6194 -9.40702,-0.6312 z"
       id="path935"
       inkscape:connector-curvature="0" />
  </g>
</svg>
