<?xml version="1.0" encoding="UTF-8" standalone="no"?>
<svg
   xmlns:dc="http://purl.org/dc/elements/1.1/"
   xmlns:cc="http://creativecommons.org/ns#"
   xmlns:rdf="http://www.w3.org/1999/02/22-rdf-syntax-ns#"
   xmlns:svg="http://www.w3.org/2000/svg"
   xmlns="http://www.w3.org/2000/svg"
   xmlns:sodipodi="http://sodipodi.sourceforge.net/DTD/sodipodi-0.dtd"
   xmlns:inkscape="http://www.inkscape.org/namespaces/inkscape"
   width="210mm"
   height="297mm"
   viewBox="0 0 210 297"
   version="1.1"
   id="svg8"
   inkscape:version="1.0.2 (e86c870879, 2021-01-15, custom)"
   sodipodi:docname="COASTERS.svg">
  <defs
     id="defs2">
    <inkscape:path-effect
       effect="skeletal"
       id="path-effect990"
       is_visible="true"
       lpeversion="1"
       pattern="#path852"
       copytype="repeated_stretched"
       prop_scale="1"
       scale_y_rel="false"
       spacing="5"
       normal_offset="0"
       tang_offset="2"
       prop_units="false"
       vertical_pattern="false"
       hide_knot="false"
       fuse_tolerance="0" />
    <inkscape:path-effect
       effect="skeletal"
       id="path-effect859"
       is_visible="true"
       lpeversion="1"
       pattern="#path852"
       copytype="repeated_stretched"
       prop_scale="1"
       scale_y_rel="false"
       spacing="5"
       normal_offset="0"
       tang_offset="2"
       prop_units="false"
       vertical_pattern="false"
       hide_knot="false"
       fuse_tolerance="0" />
    <inkscape:path-effect
       effect="skeletal"
       id="path-effect959"
       is_visible="true"
       lpeversion="1"
       pattern="m 61.959204,64.113051 h 6.242005 c 0.0059,0 0.01062,0.0023 0.01062,0.0052 v 0.709367 c 0,0.0028 -0.0048,0.0052 -0.01062,0.0052 h -6.242005 c -0.0059,0 -0.01062,-0.0023 -0.01062,-0.0052 V 64.11822 c 0,-0.0028 0.0048,-0.0052 0.01062,-0.0052 z"
       copytype="repeated"
       prop_scale="1"
       scale_y_rel="false"
       spacing="0"
       normal_offset="0"
       tang_offset="2"
       prop_units="false"
       vertical_pattern="false"
       hide_knot="false"
       fuse_tolerance="0" />
    <inkscape:path-effect
       effect="skeletal"
       id="path-effect890"
       is_visible="true"
       lpeversion="1"
       pattern="#path852"
       copytype="repeated_stretched"
       prop_scale="1"
       scale_y_rel="false"
       spacing="5"
       normal_offset="0"
       tang_offset="2"
       prop_units="false"
       vertical_pattern="false"
       hide_knot="false"
       fuse_tolerance="0" />
    <inkscape:path-effect
       effect="skeletal"
       id="path-effect875"
       is_visible="true"
       lpeversion="1"
       pattern="#path852"
       copytype="repeated_stretched"
       prop_scale="1"
       scale_y_rel="false"
       spacing="5"
       normal_offset="0"
       tang_offset="0"
       prop_units="false"
       vertical_pattern="false"
       hide_knot="false"
       fuse_tolerance="0" />
    <inkscape:path-effect
       effect="skeletal"
       id="path-effect865"
       is_visible="true"
       lpeversion="1"
       pattern="#path852"
       copytype="repeated"
       prop_scale="1"
       scale_y_rel="false"
       spacing="5"
       normal_offset="0"
       tang_offset="2"
       prop_units="false"
       vertical_pattern="false"
       hide_knot="false"
       fuse_tolerance="0" />
  </defs>
  <sodipodi:namedview
     id="base"
     pagecolor="#ffffff"
     bordercolor="#666666"
     borderopacity="1.0"
     inkscape:pageopacity="0.0"
     inkscape:pageshadow="2"
     inkscape:zoom="0.35355339"
     inkscape:cx="1288.3033"
     inkscape:cy="383.68596"
     inkscape:document-units="mm"
     inkscape:current-layer="layer1"
     inkscape:document-rotation="0"
     showgrid="false"
     inkscape:window-width="1920"
     inkscape:window-height="1017"
     inkscape:window-x="-8"
     inkscape:window-y="-8"
     inkscape:window-maximized="1" />
  <metadata
     id="metadata5">
    <rdf:RDF>
      <cc:Work
         rdf:about="">
        <dc:format>image/svg+xml</dc:format>
        <dc:type
           rdf:resource="http://purl.org/dc/dcmitype/StillImage" />
        <dc:title></dc:title>
      </cc:Work>
    </rdf:RDF>
  </metadata>
  <g
     inkscape:label="Layer 1"
     inkscape:groupmode="layer"
     id="layer1">
    <g
       id="g1024"
       transform="translate(-615.8959,-50.888118)">
      <path
         id="path1006"
         style="opacity:0.83;fill:none;stroke:none;stroke-width:0.3;stroke-miterlimit:4;stroke-dasharray:none"
         d="m 723.16109,177.52386 -35.87176,20.71058 -10.72075,40.01035 20.71108,35.87188 40.00935,10.72048 35.87239,-20.71093 10.72048,-40.00936 -20.71045,-35.87225 z" />
      <path
         id="path1008"
         style="opacity:1;fill:#e9c6af;stroke:#000000;stroke-width:0.3;stroke-miterlimit:4;stroke-dasharray:none"
         d="m 721.29214,174.31322 -35.87176,20.71056 -10.72075,40.01037 20.71108,35.87188 40.00935,10.72048 35.87239,-20.71093 10.72048,-40.00936 -20.71044,-35.87225 z" />
      <path
         style="fill:#be8e6c;fill-opacity:0.866667;stroke:#000000;stroke-width:0.264583px;stroke-linecap:butt;stroke-linejoin:bevel;stroke-opacity:1"
         d="m 695.41071,273.55186 v -2.64583 l -20.71108,-35.87188 v 2.64584 z"
         id="path1010" />
      <path
         style="fill:#a2724d;fill-opacity:0.866667;stroke:#000000;stroke-width:0.264583px;stroke-linecap:butt;stroke-linejoin:bevel;stroke-opacity:1"
         d="m 695.41072,273.55188 v -2.64583 l 40.00934,10.72046 v 2.64584 z"
         id="path1012" />
      <path
         style="fill:#b27149;fill-opacity:0.866667;stroke:#000000;stroke-width:0.265;stroke-linecap:butt;stroke-linejoin:bevel;stroke-miterlimit:4;stroke-dasharray:none;stroke-opacity:1"
         d="m 735.42006,284.27235 v -2.64584 l 35.85234,-20.69933 v 2.64584 z"
         id="path1014" />
      <path
         style="fill:#c28e6d;fill-opacity:0.866667;stroke:#000000;stroke-width:0.264583px;stroke-linecap:butt;stroke-linejoin:bevel;stroke-opacity:1"
         d="m 771.29245,260.91558 10.72047,-40.00936 v 2.66521 l -10.72047,40.00936 z"
         id="path1016" />
    </g>
    <path
       id="rect833"
       style="opacity:0.83;fill:none;stroke:#000000;stroke-width:0.3;stroke-miterlimit:4;stroke-dasharray:none"
       d="m -137.32601,85.648546 -29.28917,29.289164 v 41.42177 l 29.28969,29.28916 h 41.42073 l 29.28968,-29.28968 V 114.93823 L -95.90425,85.648546 Z" />
    <path
       style="color:#000000;font-style:normal;font-variant:normal;font-weight:normal;font-stretch:normal;font-size:medium;line-height:normal;font-family:sans-serif;font-variant-ligatures:normal;font-variant-position:normal;font-variant-caps:normal;font-variant-numeric:normal;font-variant-alternates:normal;font-variant-east-asian:normal;font-feature-settings:normal;text-indent:0;text-align:start;text-decoration:none;text-decoration-line:none;text-decoration-style:solid;text-decoration-color:#000000;letter-spacing:normal;word-spacing:normal;text-transform:none;writing-mode:lr-tb;direction:ltr;text-orientation:mixed;dominant-baseline:auto;baseline-shift:baseline;text-anchor:start;white-space:normal;shape-padding:0;shape-margin:0;inline-size:0;clip-rule:nonzero;display:inline;overflow:visible;visibility:visible;opacity:0.83;isolation:auto;mix-blend-mode:normal;color-interpolation:sRGB;color-interpolation-filters:linearRGB;solid-color:#000000;solid-opacity:1;vector-effect:none;fill:none;fill-opacity:1;fill-rule:nonzero;stroke:#000000;stroke-width:0.3;stroke-linecap:butt;stroke-linejoin:miter;stroke-miterlimit:4;stroke-dasharray:none;stroke-dashoffset:0;stroke-opacity:1;color-rendering:auto;image-rendering:auto;shape-rendering:auto;text-rendering:auto;enable-background:accumulate;stop-color:#000000;stop-opacity:1"
       d="m -132.73753,88.749182 c 0,0.360186 -0.29199,0.652174 -0.65218,0.652174 -0.36018,0 -0.65217,-0.291988 -0.65217,-0.652174 0,-0.360186 0.29199,-0.652174 0.65217,-0.652174 0.36019,0 0.65218,0.291988 0.65218,0.652174 z m 6.30435,0 c 0,0.360186 -0.29199,0.652174 -0.65218,0.652174 -0.36018,0 -0.65217,-0.291988 -0.65217,-0.652174 0,-0.360186 0.29199,-0.652174 0.65217,-0.652174 0.36019,0 0.65218,0.291988 0.65218,0.652174 z m 6.30434,0 c 0,0.360186 -0.29199,0.652174 -0.65217,0.652174 -0.36019,0 -0.65217,-0.291988 -0.65217,-0.652174 0,-0.360186 0.29198,-0.652174 0.65217,-0.652174 0.36018,0 0.65217,0.291988 0.65217,0.652174 z m 6.30435,0 c 0,0.360186 -0.29199,0.652174 -0.65217,0.652174 -0.36019,0 -0.65218,-0.291988 -0.65218,-0.652174 0,-0.360186 0.29199,-0.652174 0.65218,-0.652174 0.36018,0 0.65217,0.291988 0.65217,0.652174 z m 6.30435,0 c 0,0.360186 -0.29199,0.652174 -0.65218,0.652174 -0.36018,0 -0.65217,-0.291988 -0.65217,-0.652174 0,-0.360186 0.29199,-0.652174 0.65217,-0.652174 0.36019,0 0.65218,0.291988 0.65218,0.652174 z m 6.30435,0 c 0,0.360186 -0.29199,0.652174 -0.65218,0.652174 -0.36018,0 -0.65217,-0.291988 -0.65217,-0.652174 0,-0.360186 0.29199,-0.652174 0.65217,-0.652174 0.36019,0 0.65218,0.291988 0.65218,0.652174 z m 5.637448,1.610028 c -0.25469,0.25469 -0.667623,0.25469 -0.922313,0 -0.25469,-0.25469 -0.25469,-0.667623 0,-0.922313 0.25469,-0.25469 0.667623,-0.25469 0.922313,0 0.25469,0.25469 0.25469,0.667623 0,0.922313 z m 4.457847,4.457847 c -0.25469,0.254689 -0.667623,0.254689 -0.922313,0 -0.25469,-0.25469 -0.25469,-0.667624 0,-0.922313 0.25469,-0.25469 0.667623,-0.25469 0.922313,0 0.25469,0.254689 0.25469,0.667623 0,0.922313 z m 4.457847,4.457847 c -0.254689,0.254689 -0.667623,0.254689 -0.922313,0 -0.254689,-0.25469 -0.254689,-0.667624 0,-0.922313 0.25469,-0.25469 0.667624,-0.25469 0.922313,-10e-7 0.25469,0.25469 0.25469,0.667624 0,0.922314 z m 4.457847,4.457846 c -0.254689,0.25469 -0.667623,0.25469 -0.922313,0 -0.254689,-0.25469 -0.254689,-0.66762 0,-0.92231 0.25469,-0.25469 0.667624,-0.25469 0.922313,0 0.25469,0.25469 0.25469,0.66762 0,0.92231 z m 4.457848,4.45785 c -0.25469,0.25469 -0.667624,0.25469 -0.922313,0 -0.25469,-0.25469 -0.25469,-0.66763 -1e-6,-0.92232 0.25469,-0.25469 0.667624,-0.25469 0.922314,0 0.254689,0.25469 0.254689,0.66763 0,0.92232 z m 4.457847,4.45784 c -0.25469,0.25469 -0.667624,0.25469 -0.922313,0 -0.25469,-0.25469 -0.25469,-0.66762 0,-0.92231 0.254689,-0.25469 0.667623,-0.25469 0.922313,0 0.254689,0.25469 0.254689,0.66762 0,0.92231 z m 3.573386,4.82421 c -0.360186,0 -0.652174,-0.29199 -0.652174,-0.65218 0,-0.26015 0.154613,-0.49542 0.393412,-0.59864 m 0.07579,0.18297 c 0,0 0,0 0,0 0,0 0,0 0,0 0.0328,-0.0827 0.08218,-0.15789 0.14512,-0.22082 0.06293,-0.0629 0.138085,-0.11232 0.220824,-0.14512 0,0 0,0 0,0 0,0 0,0 0,0 m 0.07579,0.18297 c 0.238799,0.10322 0.393412,0.33849 0.393412,0.59864 0,0.36019 -0.291988,0.65218 -0.652174,0.65218 m 0,6.30434 c -0.360186,0 -0.652174,-0.29198 -0.652174,-0.65217 0,-0.36019 0.291988,-0.65217 0.652174,-0.65217 0.360186,0 0.652174,0.29198 0.652174,0.65217 0,0.36019 -0.291988,0.65217 -0.652174,0.65217 z m 0,6.30435 c -0.360186,0 -0.652174,-0.29199 -0.652174,-0.65217 0,-0.36019 0.291988,-0.65218 0.652174,-0.65218 0.360186,0 0.652174,0.29199 0.652174,0.65218 0,0.36018 -0.291988,0.65217 -0.652174,0.65217 z m 0,6.30435 c -0.360186,0 -0.652174,-0.29199 -0.652174,-0.65217 0,-0.36019 0.291988,-0.65218 0.652174,-0.65218 0.360186,0 0.652174,0.29199 0.652174,0.65218 0,0.36018 -0.291988,0.65217 -0.652174,0.65217 z m 0,6.30435 c -0.360186,0 -0.652174,-0.29199 -0.652174,-0.65218 0,-0.36018 0.291988,-0.65217 0.652174,-0.65217 0.360186,0 0.652174,0.29199 0.652174,0.65217 0,0.36019 -0.291988,0.65218 -0.652174,0.65218 z m 0,6.30434 c -0.360186,0 -0.652174,-0.29198 -0.652174,-0.65217 0,-0.36018 0.291988,-0.65217 0.652174,-0.65217 0.360186,0 0.652174,0.29199 0.652174,0.65217 0,0.36019 -0.291988,0.65217 -0.652174,0.65217 z m -0.157955,6.23893 c -0.133199,-0.1332 -0.202299,-0.31749 -0.189513,-0.50543 m -0.143926,0.34747 c -0.103663,-0.1188 -0.16078,-0.27113 -0.16078,-0.42879 0,-0.36019 0.291988,-0.65218 0.652174,-0.65218 0.360186,0 0.652174,0.29199 0.652174,0.65218 0,0.15766 -0.05712,0.30999 -0.16078,0.42879 m -0.143926,0.34747 c -0.187937,0.0128 -0.372224,-0.0563 -0.505423,-0.18951 m -4.457847,4.45784 c -0.25469,-0.25469 -0.25469,-0.66762 0,-0.92231 0.25469,-0.25469 0.667623,-0.25469 0.922313,0 0.25469,0.25469 0.25469,0.66762 0,0.92231 -0.25469,0.25469 -0.667623,0.25469 -0.922313,0 z m -4.457847,4.45785 c -0.25469,-0.25469 -0.25469,-0.66762 0,-0.92231 0.25469,-0.25469 0.667623,-0.25469 0.922313,0 0.25469,0.25469 0.25469,0.66762 0,0.92231 -0.25469,0.25469 -0.667623,0.25469 -0.922313,0 z m -4.457847,4.45785 c -0.25469,-0.25469 -0.25469,-0.66763 0,-0.92232 0.25469,-0.25469 0.667623,-0.25469 0.922313,0 0.25469,0.25469 0.25469,0.66763 0,0.92232 -0.25469,0.25469 -0.667623,0.25469 -0.922313,0 z m -4.457847,4.45784 c -0.25469,-0.25469 -0.25469,-0.66762 0,-0.92231 0.25469,-0.25469 0.667623,-0.25469 0.922313,0 0.25469,0.25469 0.25469,0.66762 0,0.92231 -0.25469,0.25469 -0.667623,0.25469 -0.922313,0 z m -4.457847,4.45785 c -0.25469,-0.25469 -0.25469,-0.66762 0,-0.92231 0.25469,-0.25469 0.667623,-0.25469 0.922313,0 0.25469,0.25469 0.25469,0.66762 0,0.92231 -0.25469,0.25469 -0.667623,0.25469 -0.922313,0 z m -4.457847,4.45785 c -0.25469,-0.25469 -0.25469,-0.66763 0,-0.92232 0.25469,-0.25469 0.667623,-0.25469 0.922313,0 0.25469,0.25469 0.25469,0.66763 0,0.92232 -0.25469,0.25469 -0.667623,0.25469 -0.922313,0 z m -6.069233,0.56761 c 0,-0.36019 0.29199,-0.65217 0.65217,-0.65217 0.36019,0 0.65218,0.29198 0.65218,0.65217 0,0.36019 -0.29199,0.65217 -0.65218,0.65217 -0.36018,0 -0.65217,-0.29198 -0.65217,-0.65217 z m -6.30435,0 c 0,-0.36019 0.29199,-0.65217 0.65217,-0.65217 0.36019,0 0.65218,0.29198 0.65218,0.65217 0,0.36019 -0.29199,0.65217 -0.65218,0.65217 -0.36018,0 -0.65217,-0.29198 -0.65217,-0.65217 z m -6.30435,0 c 0,-0.36019 0.29199,-0.65217 0.65218,-0.65217 0.36018,0 0.65217,0.29198 0.65217,0.65217 0,0.36019 -0.29199,0.65217 -0.65217,0.65217 -0.36019,0 -0.65218,-0.29198 -0.65218,-0.65217 z m -6.30434,0 c 0,-0.36019 0.29198,-0.65217 0.65217,-0.65217 0.36019,0 0.65217,0.29198 0.65217,0.65217 0,0.36019 -0.29198,0.65217 -0.65217,0.65217 -0.36019,0 -0.65217,-0.29198 -0.65217,-0.65217 z m -6.30435,0 c 0,-0.36019 0.29199,-0.65217 0.65217,-0.65217 0.36019,0 0.65218,0.29198 0.65218,0.65217 0,0.36019 -0.29199,0.65217 -0.65218,0.65217 -0.36018,0 -0.65217,-0.29198 -0.65217,-0.65217 z m -6.30435,0 c 0,-0.36019 0.29199,-0.65217 0.65217,-0.65217 0.36019,0 0.65218,0.29198 0.65218,0.65217 0,0.36019 -0.29199,0.65217 -0.65218,0.65217 -0.36018,0 -0.65217,-0.29198 -0.65217,-0.65217 z m -4.99389,-3.16373 c 0.25469,-0.25469 0.66763,-0.25469 0.92232,0 0.25469,0.25468 0.25469,0.66762 0,0.92231 -0.25469,0.25469 -0.66763,0.25469 -0.92232,0 -0.25469,-0.25469 -0.25469,-0.66762 0,-0.92231 z m -4.45784,-4.45785 c 0.25469,-0.25469 0.66762,-0.25469 0.92231,0 0.25469,0.25469 0.25469,0.66762 0,0.92231 -0.25469,0.25469 -0.66762,0.25469 -0.92231,0 -0.25469,-0.25469 -0.25469,-0.66762 0,-0.92231 z m -4.45785,-4.45785 c 0.25469,-0.25469 0.66762,-0.25469 0.92231,0 0.25469,0.25469 0.25469,0.66763 0,0.92232 -0.25469,0.25469 -0.66762,0.25469 -0.92231,0 -0.25469,-0.25469 -0.25469,-0.66763 0,-0.92232 z m -4.45785,-4.45784 c 0.25469,-0.25469 0.66762,-0.25469 0.92231,0 0.25469,0.25469 0.25469,0.66762 0,0.92231 -0.25469,0.25469 -0.66762,0.25469 -0.92231,0 -0.25469,-0.25469 -0.25469,-0.66762 0,-0.92231 z m -4.45785,-4.45785 c 0.25469,-0.25469 0.66763,-0.25469 0.92232,0 0.25469,0.25469 0.25469,0.66762 0,0.92231 -0.25469,0.25469 -0.66763,0.25469 -0.92232,0 -0.25469,-0.25469 -0.25469,-0.66762 0,-0.92231 z m -4.45784,-4.45785 c 0.25468,-0.25469 0.66762,-0.25469 0.92231,0 0.25469,0.25469 0.25469,0.66763 0,0.92232 -0.25469,0.25469 -0.66762,0.25469 -0.92231,0 -0.25469,-0.25469 -0.25469,-0.66763 0,-0.92232 z m -2.01969,-5.46776 c 0.36019,0 0.65217,0.29199 0.65217,0.65217 0,0.36019 -0.29198,0.65218 -0.65217,0.65218 -0.36019,0 -0.65217,-0.29199 -0.65217,-0.65218 0,-0.36018 0.29198,-0.65217 0.65217,-0.65217 z m 0,-6.30435 c 0.36019,0 0.65217,0.29199 0.65217,0.65217 0,0.36019 -0.29198,0.65218 -0.65217,0.65218 -0.36019,0 -0.65217,-0.29199 -0.65217,-0.65218 0,-0.36018 0.29198,-0.65217 0.65217,-0.65217 z m 0,-6.30435 c 0.36019,0 0.65217,0.29199 0.65217,0.65218 0,0.36018 -0.29198,0.65217 -0.65217,0.65217 -0.36019,0 -0.65217,-0.29199 -0.65217,-0.65217 0,-0.36019 0.29198,-0.65218 0.65217,-0.65218 z m 0,-6.30434 c 0.36019,0 0.65217,0.29198 0.65217,0.65217 0,0.36018 -0.29198,0.65217 -0.65217,0.65217 -0.36019,0 -0.65217,-0.29199 -0.65217,-0.65217 0,-0.36019 0.29198,-0.65217 0.65217,-0.65217 z m 0,-6.30435 c 0.36019,0 0.65217,0.29199 0.65217,0.65217 0,0.36019 -0.29198,0.65218 -0.65217,0.65218 -0.36019,0 -0.65217,-0.29199 -0.65217,-0.65218 0,-0.36018 0.29198,-0.65217 0.65217,-0.65217 z m 0,-6.30435 c 0.36019,0 0.65217,0.29199 0.65217,0.65217 0,0.36019 -0.29198,0.65218 -0.65217,0.65218 -0.36019,0 -0.65217,-0.29199 -0.65217,-0.65218 0,-0.36018 0.29198,-0.65217 0.65217,-0.65217 z m 1.71166,-5.59536 c 0.25469,0.25469 0.25469,0.66763 0,0.92232 -0.25469,0.25469 -0.66763,0.25469 -0.92232,0 -0.25469,-0.25469 -0.25469,-0.66763 0,-0.92232 0.25469,-0.25469 0.66763,-0.25469 0.92232,0 z m 4.45784,-4.45784 c 0.25469,0.25469 0.25469,0.66762 0,0.92231 -0.25469,0.25469 -0.66762,0.25469 -0.92231,0 -0.25469,-0.25469 -0.25469,-0.66762 0,-0.92231 0.25469,-0.25469 0.66762,-0.25469 0.92231,0 z m 4.45785,-4.45785 c 0.25469,0.25469 0.25469,0.66763 0,0.92232 -0.25469,0.25468 -0.66762,0.25468 -0.92231,-1e-5 -0.25469,-0.25468 -0.25469,-0.66762 0,-0.92231 0.25469,-0.25469 0.66762,-0.25469 0.92231,0 z m 4.45785,-4.45784 c 0.25469,0.25469 0.25469,0.66762 0,0.92231 -0.25469,0.25469 -0.66762,0.25469 -0.92231,0 -0.25469,-0.25469 -0.25469,-0.66762 0,-0.92231 0.25469,-0.25469 0.66762,-0.25469 0.92231,0 z m 4.45785,-4.45785 c 0.25469,0.25469 0.25469,0.667623 0,0.922313 -0.25469,0.25469 -0.66763,0.25469 -0.92231,0 -0.25469,-0.25469 -0.25469,-0.667623 0,-0.922313 0.25469,-0.25469 0.66762,-0.25469 0.92231,0 z m 4.45785,-4.457846 c 0.25469,0.25469 0.25469,0.667624 0,0.922313 -0.25469,0.25469 -0.66763,0.25469 -0.92232,0 -0.25469,-0.25469 -0.25469,-0.667623 0,-0.922313 0.25469,-0.25469 0.66763,-0.25469 0.92232,0 z"
       id="path850"
       inkscape:path-effect="#path-effect865"
       inkscape:original-d="m -136.04188,88.749182 h 38.85351 l 27.47265,27.472648 v 38.85352 L -97.18837,182.548 h -38.85351 l -27.47266,-27.47265 v -38.85352 z" />
    <circle
       style="opacity:0.83;fill:none;stroke:#000000;stroke-width:0.195655;stroke-miterlimit:4;stroke-dasharray:none"
       id="path852"
       cx="9.742424"
       cy="9.982398"
       r="0.65217382" />
    <path
       style="color:#000000;font-style:normal;font-variant:normal;font-weight:normal;font-stretch:normal;font-size:medium;line-height:normal;font-family:sans-serif;font-variant-ligatures:normal;font-variant-position:normal;font-variant-caps:normal;font-variant-numeric:normal;font-variant-alternates:normal;font-variant-east-asian:normal;font-feature-settings:normal;text-indent:0;text-align:start;text-decoration:none;text-decoration-line:none;text-decoration-style:solid;text-decoration-color:#000000;letter-spacing:normal;word-spacing:normal;text-transform:none;writing-mode:lr-tb;direction:ltr;text-orientation:mixed;dominant-baseline:auto;baseline-shift:baseline;text-anchor:start;white-space:normal;shape-padding:0;shape-margin:0;inline-size:0;clip-rule:nonzero;display:inline;overflow:visible;visibility:visible;opacity:0.13;isolation:auto;mix-blend-mode:normal;color-interpolation:sRGB;color-interpolation-filters:linearRGB;solid-color:#000000;solid-opacity:1;vector-effect:none;fill:none;fill-opacity:1;fill-rule:nonzero;stroke:#000000;stroke-width:0.3;stroke-linecap:butt;stroke-linejoin:miter;stroke-miterlimit:4;stroke-dasharray:none;stroke-dashoffset:0;stroke-opacity:1;color-rendering:auto;image-rendering:auto;shape-rendering:auto;text-rendering:auto;enable-background:accumulate;stop-color:#000000;stop-opacity:1"
       d="m -136.04188,88.749185 h 38.85351 l 27.47265,27.472645 v 38.85352 L -97.18837,182.548 h -38.85351 l -27.47266,-27.47265 v -38.85352 z"
       id="path873" />
    <path
       id="path879"
       style="color:#000000;font-style:normal;font-variant:normal;font-weight:normal;font-stretch:normal;font-size:medium;line-height:normal;font-family:sans-serif;font-variant-ligatures:normal;font-variant-position:normal;font-variant-caps:normal;font-variant-numeric:normal;font-variant-alternates:normal;font-variant-east-asian:normal;font-feature-settings:normal;text-indent:0;text-align:start;text-decoration:none;text-decoration-line:none;text-decoration-style:solid;text-decoration-color:#000000;letter-spacing:normal;word-spacing:normal;text-transform:none;writing-mode:lr-tb;direction:ltr;text-orientation:mixed;dominant-baseline:auto;baseline-shift:baseline;text-anchor:start;white-space:normal;shape-padding:0;shape-margin:0;inline-size:0;clip-rule:nonzero;display:inline;overflow:visible;visibility:visible;opacity:0.83;isolation:auto;mix-blend-mode:normal;color-interpolation:sRGB;color-interpolation-filters:linearRGB;solid-color:#000000;solid-opacity:1;vector-effect:none;fill:none;fill-opacity:1;fill-rule:nonzero;stroke:#000000;stroke-width:0.3;stroke-linecap:butt;stroke-linejoin:miter;stroke-miterlimit:4;stroke-dasharray:none;stroke-dashoffset:0;stroke-opacity:1;color-rendering:auto;image-rendering:auto;shape-rendering:auto;text-rendering:auto;enable-background:accumulate;stop-color:#000000;stop-opacity:1"
       d="m 280.28583,19.071865 h 38.85352 L 346.612,46.54451 v 38.85352 l -27.47265,27.47265 H 280.28583 L 252.81318,85.39803 V 46.54451 Z m -1.28412,-3.10064 -29.28917,29.289165 v 41.42177 l 29.28969,29.28916 h 41.42073 L 349.71264,86.68164 V 45.26091 L 320.42347,15.971224 Z" />
    <text
       xml:space="preserve"
       style="font-style:normal;font-variant:normal;font-weight:normal;font-stretch:normal;font-size:8.18109px;line-height:1.25;font-family:'Amiri Quran';-inkscape-font-specification:'Amiri Quran';letter-spacing:0px;word-spacing:0px;fill:#000000;fill-opacity:1;stroke:none;stroke-width:0.12783"
       x="-134.28699"
       y="137.09302"
       id="text884"><tspan
         sodipodi:role="line"
         id="tspan882"
         x="-134.28699"
         y="137.09302"
         style="font-style:normal;font-variant:normal;font-weight:normal;font-stretch:normal;font-size:8.18109px;font-family:'Amiri Quran';-inkscape-font-specification:'Amiri Quran';stroke-width:0.12783">PRIJMENI</tspan></text>
    <path
       id="path928"
       style="opacity:0.83;fill:none;stroke:none;stroke-width:0.3;stroke-miterlimit:4;stroke-dasharray:none"
       d="m 291.34039,159.22737 -35.87176,20.71058 -10.72075,40.01035 20.71108,35.87188 40.00935,10.72048 35.87239,-20.71093 10.72048,-40.00936 -20.71045,-35.87225 z" />
    <path
       id="path886"
       style="opacity:1;fill:#e9c6af;stroke:#000000;stroke-width:0.3;stroke-miterlimit:4;stroke-dasharray:none"
       d="m 289.47144,156.01673 -35.87176,20.71056 -10.72075,40.01037 20.71108,35.87188 40.00935,10.72048 35.87239,-20.71093 10.72048,-40.00936 -20.71044,-35.87225 z" />
    <path
       style="color:#000000;font-style:normal;font-variant:normal;font-weight:normal;font-stretch:normal;font-size:medium;line-height:normal;font-family:sans-serif;font-variant-ligatures:normal;font-variant-position:normal;font-variant-caps:normal;font-variant-numeric:normal;font-variant-alternates:normal;font-variant-east-asian:normal;font-feature-settings:normal;text-indent:0;text-align:start;text-decoration:none;text-decoration-line:none;text-decoration-style:solid;text-decoration-color:#000000;letter-spacing:normal;word-spacing:normal;text-transform:none;writing-mode:lr-tb;direction:ltr;text-orientation:mixed;dominant-baseline:auto;baseline-shift:baseline;text-anchor:start;white-space:normal;shape-padding:0;shape-margin:0;inline-size:0;clip-rule:nonzero;display:inline;overflow:visible;visibility:visible;opacity:0.83;isolation:auto;mix-blend-mode:normal;color-interpolation:sRGB;color-interpolation-filters:linearRGB;solid-color:#000000;solid-opacity:1;vector-effect:none;fill:none;fill-opacity:1;fill-rule:nonzero;stroke:#000000;stroke-width:0.3;stroke-linecap:butt;stroke-linejoin:miter;stroke-miterlimit:4;stroke-dasharray:none;stroke-dashoffset:0;stroke-opacity:1;color-rendering:auto;image-rendering:auto;shape-rendering:auto;text-rendering:auto;enable-background:accumulate;stop-color:#000000;stop-opacity:1"
       d="m 293.12694,160.20623 c -0.0932,0.34791 -0.45663,0.55283 -0.81169,0.45769 -0.35505,-0.0951 -0.56731,-0.4543 -0.47409,-0.80221 0.0932,-0.34791 0.45663,-0.55283 0.81168,-0.45769 0.35506,0.0951 0.56732,0.4543 0.4741,0.80221 z m 6.21458,1.6652 c -0.0932,0.34791 -0.45662,0.55282 -0.81168,0.45769 -0.35506,-0.0951 -0.56732,-0.4543 -0.47409,-0.80222 0.0932,-0.34791 0.45662,-0.55282 0.81168,-0.45769 0.35506,0.0951 0.56732,0.4543 0.47409,0.80222 z m 6.21459,1.66519 c -0.0932,0.34791 -0.45663,0.55283 -0.81168,0.45769 -0.35506,-0.0951 -0.56732,-0.4543 -0.4741,-0.80221 0.0932,-0.34791 0.45663,-0.55283 0.81169,-0.45769 0.35505,0.0951 0.56731,0.4543 0.47409,0.80221 z m 6.21459,1.6652 c -0.0932,0.34791 -0.45663,0.55282 -0.81169,0.45769 -0.35505,-0.0951 -0.56731,-0.4543 -0.47409,-0.80222 0.0932,-0.34791 0.45663,-0.55282 0.81168,-0.45769 0.35506,0.0951 0.56732,0.4543 0.4741,0.80222 z m 6.21458,1.66519 c -0.0932,0.34792 -0.45662,0.55283 -0.81168,0.45769 -0.35506,-0.0951 -0.56732,-0.4543 -0.47409,-0.80221 0.0932,-0.34791 0.45662,-0.55283 0.81168,-0.45769 0.35506,0.0951 0.56732,0.4543 0.47409,0.80221 z m 6.21459,1.6652 c -0.0932,0.34791 -0.45663,0.55283 -0.81168,0.45769 -0.35506,-0.0951 -0.56732,-0.4543 -0.4741,-0.80222 0.0932,-0.34791 0.45663,-0.55282 0.81169,-0.45768 0.35505,0.0951 0.56731,0.4543 0.47409,0.80221 z m 4.7793,3.53569 c -0.31193,0.1801 -0.71379,0.068 -0.89758,-0.25031 -0.18379,-0.31833 -0.0799,-0.72239 0.23201,-0.90248 0.31193,-0.1801 0.7138,-0.068 0.89759,0.25031 0.18379,0.31833 0.0799,0.72239 -0.23202,0.90248 z m 3.21691,5.57185 c -0.31193,0.18009 -0.71379,0.068 -0.89758,-0.25031 -0.1838,-0.31834 -0.0799,-0.72239 0.23201,-0.90249 0.31193,-0.18009 0.71379,-0.068 0.89758,0.25031 0.18379,0.31834 0.0799,0.7224 -0.23201,0.90249 z m 3.21691,5.57184 c -0.31193,0.1801 -0.7138,0.068 -0.89759,-0.25031 -0.18379,-0.31833 -0.0799,-0.72239 0.23202,-0.90248 0.31193,-0.18009 0.71379,-0.068 0.89758,0.25031 0.18379,0.31834 0.0799,0.72239 -0.23201,0.90248 z m 3.2169,5.57185 c -0.31193,0.18009 -0.71379,0.068 -0.89758,-0.25031 -0.18379,-0.31834 -0.0799,-0.72239 0.23202,-0.90248 0.31193,-0.1801 0.71379,-0.068 0.89758,0.25031 0.18379,0.31833 0.0799,0.72239 -0.23202,0.90248 z m 3.21691,5.57185 c -0.31193,0.18009 -0.71379,0.068 -0.89758,-0.25031 -0.18379,-0.31834 -0.0799,-0.7224 0.23201,-0.90249 0.31193,-0.18009 0.71379,-0.068 0.89758,0.25031 0.1838,0.31834 0.0799,0.72239 -0.23201,0.90249 z m 3.21691,5.57184 c -0.31193,0.1801 -0.7138,0.068 -0.89759,-0.25031 -0.18379,-0.31833 -0.0799,-0.72239 0.23202,-0.90248 0.31193,-0.1801 0.71379,-0.068 0.89758,0.25031 0.18379,0.31833 0.0799,0.72239 -0.23201,0.90248 z m 1.06854,5.85469 c -0.34791,-0.0932 -0.55282,-0.45663 -0.45769,-0.81169 0.0951,-0.35506 0.4543,-0.56731 0.80222,-0.47409 0.34791,0.0932 0.55282,0.45663 0.45769,0.81168 -0.0951,0.35506 -0.4543,0.56732 -0.80222,0.4741 z m -1.66519,6.21458 c -0.34791,-0.0932 -0.55283,-0.45662 -0.45769,-0.81168 0.0951,-0.35506 0.4543,-0.56732 0.80221,-0.47409 0.34791,0.0932 0.55283,0.45662 0.45769,0.81168 -0.0951,0.35506 -0.4543,0.56731 -0.80221,0.47409 z m -1.6652,6.21459 c -0.34791,-0.0932 -0.55282,-0.45663 -0.45769,-0.81169 0.0951,-0.35505 0.4543,-0.56731 0.80222,-0.47409 0.34791,0.0932 0.55282,0.45663 0.45769,0.81169 -0.0951,0.35505 -0.4543,0.56731 -0.80222,0.47409 z m -1.66519,6.21458 c -0.34791,-0.0932 -0.55283,-0.45662 -0.45769,-0.81168 0.0951,-0.35506 0.4543,-0.56731 0.80221,-0.47409 0.34791,0.0932 0.55283,0.45662 0.45769,0.81168 -0.0951,0.35506 -0.4543,0.56732 -0.80221,0.47409 z m -1.6652,6.21459 c -0.34791,-0.0932 -0.55282,-0.45663 -0.45769,-0.81168 0.0951,-0.35506 0.4543,-0.56732 0.80222,-0.4741 0.34791,0.0932 0.55282,0.45663 0.45769,0.81169 -0.0951,0.35506 -0.4543,0.56731 -0.80222,0.47409 z m -1.66519,6.21459 c -0.34791,-0.0932 -0.55283,-0.45663 -0.45769,-0.81169 0.0951,-0.35505 0.4543,-0.56731 0.80221,-0.47409 0.34791,0.0932 0.55283,0.45663 0.45769,0.81168 -0.0951,0.35506 -0.4543,0.56732 -0.80221,0.4741 z m -3.23213,5.01224 c -0.18009,-0.31193 -0.068,-0.71379 0.25032,-0.89759 0.31833,-0.18379 0.72239,-0.0799 0.90248,0.23202 0.18009,0.31193 0.068,0.71379 -0.25031,0.89758 -0.31834,0.18379 -0.72239,0.0799 -0.90249,-0.23201 z m -5.57184,3.2169 c -0.18009,-0.31193 -0.068,-0.71379 0.25031,-0.89758 0.31834,-0.18379 0.72239,-0.0799 0.90248,0.23202 0.1801,0.31193 0.068,0.71379 -0.25031,0.89758 -0.31833,0.18379 -0.72239,0.0799 -0.90248,-0.23202 z m -5.57185,3.21691 c -0.18009,-0.31193 -0.068,-0.71379 0.25031,-0.89758 0.31834,-0.18379 0.7224,-0.0799 0.90249,0.23201 0.18009,0.31193 0.068,0.7138 -0.25031,0.89759 -0.31834,0.18379 -0.72239,0.0799 -0.90249,-0.23202 z m -5.57184,3.21691 c -0.1801,-0.31193 -0.068,-0.71379 0.25031,-0.89758 0.31833,-0.1838 0.72239,-0.0799 0.90248,0.23201 0.18009,0.31193 0.068,0.71379 -0.25031,0.89758 -0.31833,0.1838 -0.72239,0.0799 -0.90248,-0.23201 z m -5.57185,3.21691 c -0.18009,-0.31193 -0.068,-0.7138 0.25031,-0.89759 0.31834,-0.18379 0.72239,-0.0799 0.90249,0.23202 0.18009,0.31193 0.068,0.71379 -0.25031,0.89758 -0.31834,0.18379 -0.7224,0.0799 -0.90249,-0.23201 z m -5.57185,3.2169 c -0.18009,-0.31193 -0.068,-0.71379 0.25032,-0.89758 0.31833,-0.18379 0.72239,-0.0799 0.90248,0.23202 0.18009,0.31193 0.068,0.71379 -0.25031,0.89758 -0.31834,0.18379 -0.72239,0.0799 -0.90249,-0.23202 z m -5.80473,1.44792 c 0.0932,-0.34791 0.45662,-0.55283 0.81168,-0.45769 0.35506,0.0951 0.56732,0.4543 0.47409,0.80221 -0.0932,0.34792 -0.45662,0.55283 -0.81168,0.45769 -0.35506,-0.0951 -0.56732,-0.4543 -0.47409,-0.80221 z m -6.21459,-1.66519 c 0.0932,-0.34792 0.45663,-0.55283 0.81168,-0.45769 0.35506,0.0951 0.56732,0.4543 0.4741,0.80221 -0.0932,0.34791 -0.45663,0.55283 -0.81169,0.45769 -0.35505,-0.0951 -0.56731,-0.4543 -0.47409,-0.80221 z m -6.21459,-1.6652 c 0.0932,-0.34791 0.45663,-0.55282 0.81169,-0.45769 0.35505,0.0951 0.56731,0.4543 0.47409,0.80222 -0.0932,0.34791 -0.45663,0.55282 -0.81168,0.45769 -0.35506,-0.0951 -0.56732,-0.4543 -0.4741,-0.80222 z m -6.21458,-1.66519 c 0.0932,-0.34791 0.45662,-0.55283 0.81168,-0.45769 0.35506,0.0951 0.56732,0.4543 0.47409,0.80221 -0.0932,0.34791 -0.45662,0.55283 -0.81168,0.45769 -0.35506,-0.0951 -0.56732,-0.4543 -0.47409,-0.80221 z m -6.21459,-1.6652 c 0.0932,-0.34791 0.45663,-0.55282 0.81168,-0.45769 0.35506,0.0951 0.56732,0.4543 0.4741,0.80222 -0.0932,0.34791 -0.45663,0.55282 -0.81169,0.45769 -0.35505,-0.0951 -0.56731,-0.4543 -0.47409,-0.80222 z m -6.21459,-1.66519 c 0.0932,-0.34791 0.45663,-0.55283 0.81169,-0.45769 0.35505,0.0951 0.56731,0.4543 0.47409,0.80221 -0.0932,0.34792 -0.45663,0.55283 -0.81168,0.45769 -0.35506,-0.0951 -0.56732,-0.4543 -0.4741,-0.80221 z m -5.24517,-2.92856 c 0.31193,-0.18009 0.71379,-0.068 0.89758,0.25031 0.18379,0.31834 0.0799,0.72239 -0.23201,0.90249 -0.31193,0.18009 -0.71379,0.068 -0.89759,-0.25031 -0.18379,-0.31834 -0.0799,-0.7224 0.23202,-0.90249 z m -3.21691,-5.57184 c 0.31193,-0.1801 0.71379,-0.068 0.89758,0.25031 0.1838,0.31833 0.0799,0.72239 -0.23201,0.90248 -0.31193,0.18009 -0.71379,0.068 -0.89758,-0.25031 -0.18379,-0.31833 -0.0799,-0.72239 0.23201,-0.90248 z m -3.21691,-5.57185 c 0.31193,-0.18009 0.7138,-0.068 0.89759,0.25031 0.18379,0.31834 0.0799,0.72239 -0.23202,0.90249 -0.31193,0.18009 -0.71379,0.068 -0.89758,-0.25031 -0.18379,-0.31834 -0.0799,-0.7224 0.23201,-0.90249 z m -3.2169,-5.57184 c 0.31193,-0.1801 0.71379,-0.068 0.89758,0.25031 0.18379,0.31833 0.0799,0.72239 -0.23202,0.90248 -0.31193,0.18009 -0.71379,0.068 -0.89758,-0.25031 -0.18379,-0.31834 -0.0799,-0.72239 0.23202,-0.90248 z m -3.21691,-5.57185 c 0.31193,-0.18009 0.71379,-0.068 0.89758,0.25031 0.18379,0.31834 0.0799,0.72239 -0.23202,0.90249 -0.31193,0.18009 -0.71379,0.068 -0.89758,-0.25031 -0.18379,-0.31834 -0.0799,-0.7224 0.23202,-0.90249 z m -3.21691,-5.57184 c 0.31193,-0.1801 0.71379,-0.068 0.89758,0.25031 0.18379,0.31833 0.0799,0.72239 -0.23201,0.90248 -0.31193,0.18009 -0.7138,0.068 -0.89759,-0.25031 -0.18379,-0.31834 -0.0799,-0.72239 0.23202,-0.90248 z m -1.82729,-5.7548 c 0.34792,0.0932 0.55283,0.45663 0.45769,0.81169 -0.0951,0.35505 -0.4543,0.56731 -0.80221,0.47409 -0.34791,-0.0932 -0.55283,-0.45663 -0.45769,-0.81168 0.0951,-0.35506 0.4543,-0.56732 0.80221,-0.4741 z m 1.6652,-6.21458 c 0.34791,0.0932 0.55283,0.45662 0.45769,0.81168 -0.0951,0.35506 -0.4543,0.56731 -0.80221,0.47409 -0.34792,-0.0932 -0.55283,-0.45662 -0.45769,-0.81168 0.0951,-0.35506 0.4543,-0.56732 0.80221,-0.47409 z m 1.66519,-6.21459 c 0.34791,0.0932 0.55283,0.45662 0.45769,0.81168 -0.0951,0.35506 -0.4543,0.56732 -0.80221,0.47409 -0.34791,-0.0932 -0.55283,-0.45662 -0.45769,-0.81168 0.0951,-0.35506 0.4543,-0.56731 0.80221,-0.47409 z m 1.66519,-6.21459 c 0.34792,0.0932 0.55283,0.45663 0.45769,0.81168 -0.0951,0.35506 -0.4543,0.56732 -0.80221,0.4741 -0.34791,-0.0932 -0.55283,-0.45663 -0.45769,-0.81169 0.0951,-0.35505 0.4543,-0.56731 0.80221,-0.47409 z m 1.6652,-6.21459 c 0.34791,0.0932 0.55283,0.45663 0.45769,0.81169 -0.0951,0.35506 -0.4543,0.56731 -0.80221,0.47409 -0.34792,-0.0932 -0.55283,-0.45662 -0.45769,-0.81168 0.0951,-0.35506 0.4543,-0.56732 0.80221,-0.4741 z m 1.66519,-6.21458 c 0.34791,0.0932 0.55283,0.45662 0.45769,0.81168 -0.0951,0.35506 -0.4543,0.56732 -0.80221,0.47409 -0.34791,-0.0932 -0.55283,-0.45662 -0.45769,-0.81168 0.0951,-0.35506 0.4543,-0.56732 0.80221,-0.47409 z m 2.62498,-5.47812 c 0.18009,0.31193 0.068,0.71379 -0.25031,0.89758 -0.31834,0.18379 -0.72239,0.0799 -0.90248,-0.23201 -0.1801,-0.31193 -0.068,-0.71379 0.25031,-0.89759 0.31833,-0.18379 0.72239,-0.0799 0.90248,0.23202 z m 5.57185,-3.21691 c 0.18009,0.31193 0.068,0.7138 -0.25031,0.89759 -0.31834,0.18379 -0.7224,0.0799 -0.90249,-0.23202 -0.18009,-0.31193 -0.068,-0.71379 0.25031,-0.89758 0.31834,-0.18379 0.72239,-0.0799 0.90249,0.23201 z m 5.57184,-3.2169 c 0.1801,0.31193 0.068,0.71379 -0.25031,0.89758 -0.31833,0.18379 -0.72239,0.0799 -0.90248,-0.23202 -0.18009,-0.31193 -0.068,-0.71379 0.25031,-0.89758 0.31833,-0.18379 0.72239,-0.0799 0.90248,0.23202 z m 5.57185,-3.21691 c 0.18009,0.31193 0.068,0.71379 -0.25031,0.89758 -0.31834,0.1838 -0.72239,0.0799 -0.90249,-0.23201 -0.18009,-0.31193 -0.068,-0.71379 0.25032,-0.89758 0.31833,-0.1838 0.72239,-0.0799 0.90248,0.23201 z m 5.57185,-3.2169 c 0.18009,0.31193 0.068,0.71379 -0.25031,0.89758 -0.31834,0.18379 -0.7224,0.0799 -0.90249,-0.23202 -0.18009,-0.31193 -0.068,-0.71379 0.25031,-0.89758 0.31834,-0.18379 0.72239,-0.0799 0.90249,0.23202 z m 5.57184,-3.21691 c 0.1801,0.31193 0.068,0.71379 -0.25031,0.89758 -0.31833,0.18379 -0.72239,0.0799 -0.90248,-0.23201 -0.1801,-0.31193 -0.068,-0.7138 0.25031,-0.89759 0.31833,-0.18379 0.72239,-0.0799 0.90248,0.23202 z"
       id="path888"
       inkscape:original-d="m 289.90931,159.34407 37.52961,10.05604 19.4261,33.64699 -10.05604,37.52961 -33.64699,19.4261 -37.5296,-10.05603 -19.42611,-33.64699 10.05603,-37.52962 z"
       inkscape:path-effect="#path-effect890" />
    <path
       style="color:#000000;font-style:normal;font-variant:normal;font-weight:normal;font-stretch:normal;font-size:medium;line-height:normal;font-family:sans-serif;font-variant-ligatures:normal;font-variant-position:normal;font-variant-caps:normal;font-variant-numeric:normal;font-variant-alternates:normal;font-variant-east-asian:normal;font-feature-settings:normal;text-indent:0;text-align:start;text-decoration:none;text-decoration-line:none;text-decoration-style:solid;text-decoration-color:#000000;letter-spacing:normal;word-spacing:normal;text-transform:none;writing-mode:lr-tb;direction:ltr;text-orientation:mixed;dominant-baseline:auto;baseline-shift:baseline;text-anchor:start;white-space:normal;shape-padding:0;shape-margin:0;inline-size:0;clip-rule:nonzero;display:inline;overflow:visible;visibility:visible;opacity:1;isolation:auto;mix-blend-mode:normal;color-interpolation:sRGB;color-interpolation-filters:linearRGB;solid-color:#000000;solid-opacity:1;vector-effect:none;fill:none;fill-opacity:1;fill-rule:nonzero;stroke:#f4e3d7;stroke-width:0.6;stroke-linecap:butt;stroke-linejoin:miter;stroke-miterlimit:4;stroke-dasharray:none;stroke-dashoffset:0;stroke-opacity:1;color-rendering:auto;image-rendering:auto;shape-rendering:auto;text-rendering:auto;enable-background:accumulate;stop-color:#000000;stop-opacity:1"
       d="m 289.90931,159.34408 37.52961,10.05603 19.4261,33.64699 -10.05604,37.52961 -33.64699,19.4261 -37.5296,-10.05603 -19.42611,-33.64699 10.05603,-37.52962 z"
       id="path892" />
    <text
       xml:space="preserve"
       style="font-style:normal;font-variant:normal;font-weight:normal;font-stretch:normal;font-size:16.9333px;line-height:1.25;font-family:'Amiri Quran';-inkscape-font-specification:'Amiri Quran';letter-spacing:0px;word-spacing:0px;fill:#000000;fill-opacity:1;stroke:none;stroke-width:0.264583"
       x="-159.01135"
       y="217.28094"
       id="text896"><tspan
         sodipodi:role="line"
         id="tspan894"
         x="-159.01135"
         y="217.28094"
         style="font-style:normal;font-variant:normal;font-weight:normal;font-stretch:normal;font-size:16.9333px;font-family:'Amiri Quran';-inkscape-font-specification:'Amiri Quran';stroke-width:0.264583">PRIJMENI</tspan></text>
    <path
       style="fill:#d6b7a0;fill-opacity:1;stroke:#000000;stroke-width:0.264583px;stroke-linecap:butt;stroke-linejoin:round;stroke-opacity:1"
       d="m 305.46831,266.54066 -1.86895,-3.21064 -40.00936,-10.72048 1.86896,3.21064 z"
       id="path932"
       sodipodi:nodetypes="ccccc" />
    <path
       style="fill:#cbad98;fill-opacity:1;stroke:#000000;stroke-width:0.264583px;stroke-linecap:butt;stroke-linejoin:round;stroke-opacity:1"
       d="m 303.59936,263.33002 1.86894,3.21064 35.87239,-20.71093 -1.86894,-3.21064 z"
       id="path934" />
    <path
       style="fill:#bba08b;fill-opacity:1;stroke:#000000;stroke-width:0.264583px;stroke-linecap:butt;stroke-linejoin:round;stroke-opacity:1"
       d="m 339.47175,242.61909 10.72048,-40.00936 1.35593,5.0913 -10.20752,38.12871 z"
       id="path936"
       sodipodi:nodetypes="ccccc" />
    <text
       xml:space="preserve"
       style="font-style:normal;font-variant:normal;font-weight:normal;font-stretch:normal;font-size:8.18109px;line-height:1.25;font-family:'Amiri Quran';-inkscape-font-specification:'Amiri Quran';letter-spacing:0px;word-spacing:0px;fill:#000000;fill-opacity:1;stroke:none;stroke-width:0.12783"
       x="321.54324"
       y="125.82345"
       id="text852"
       transform="rotate(15)"><tspan
         sodipodi:role="line"
         id="tspan850"
         x="321.54324"
         y="125.82345"
         style="font-style:normal;font-variant:normal;font-weight:normal;font-stretch:normal;font-size:8.18109px;font-family:'Amiri Quran';-inkscape-font-specification:'Amiri Quran';stroke-width:0.12783">PRIJMENI</tspan></text>
    <path
       id="path853"
       style="opacity:0.83;fill:none;stroke:none;stroke-width:0.3;stroke-miterlimit:4;stroke-dasharray:none"
       d="m 442.50803,160.72408 -35.87176,20.71058 -10.72075,40.01035 20.71108,35.87188 40.00935,10.72048 35.87239,-20.71093 10.72048,-40.00936 -20.71045,-35.87225 z" />
    <path
       id="path855"
       style="opacity:1;fill:#e9c6af;stroke:#000000;stroke-width:0.3;stroke-miterlimit:4;stroke-dasharray:none"
       d="m 440.63908,157.51344 -35.87176,20.71056 -10.72075,40.01037 20.71108,35.87188 40.00935,10.72048 35.87239,-20.71093 10.72048,-40.00936 -20.71044,-35.87225 z" />
    <path
       style="color:#000000;font-style:normal;font-variant:normal;font-weight:normal;font-stretch:normal;font-size:medium;line-height:normal;font-family:sans-serif;font-variant-ligatures:normal;font-variant-position:normal;font-variant-caps:normal;font-variant-numeric:normal;font-variant-alternates:normal;font-variant-east-asian:normal;font-feature-settings:normal;text-indent:0;text-align:start;text-decoration:none;text-decoration-line:none;text-decoration-style:solid;text-decoration-color:#000000;letter-spacing:normal;word-spacing:normal;text-transform:none;writing-mode:lr-tb;direction:ltr;text-orientation:mixed;dominant-baseline:auto;baseline-shift:baseline;text-anchor:start;white-space:normal;shape-padding:0;shape-margin:0;inline-size:0;clip-rule:nonzero;display:inline;overflow:visible;visibility:visible;opacity:0.83;isolation:auto;mix-blend-mode:normal;color-interpolation:sRGB;color-interpolation-filters:linearRGB;solid-color:#000000;solid-opacity:1;vector-effect:none;fill:none;fill-opacity:1;fill-rule:nonzero;stroke:#000000;stroke-width:0.3;stroke-linecap:butt;stroke-linejoin:miter;stroke-miterlimit:4;stroke-dasharray:none;stroke-dashoffset:0;stroke-opacity:1;color-rendering:auto;image-rendering:auto;shape-rendering:auto;text-rendering:auto;enable-background:accumulate;stop-color:#000000;stop-opacity:1"
       d="m 444.29458,161.70294 c -0.0932,0.34791 -0.45663,0.55283 -0.81169,0.45769 -0.35505,-0.0951 -0.56731,-0.4543 -0.47409,-0.80221 0.0932,-0.34791 0.45663,-0.55283 0.81168,-0.45769 0.35506,0.0951 0.56732,0.4543 0.4741,0.80221 z m 6.21458,1.6652 c -0.0932,0.34791 -0.45662,0.55282 -0.81168,0.45769 -0.35506,-0.0951 -0.56732,-0.4543 -0.47409,-0.80222 0.0932,-0.34791 0.45662,-0.55282 0.81168,-0.45769 0.35506,0.0951 0.56732,0.4543 0.47409,0.80222 z m 6.21459,1.66519 c -0.0932,0.34791 -0.45663,0.55283 -0.81168,0.45769 -0.35506,-0.0951 -0.56732,-0.4543 -0.4741,-0.80221 0.0932,-0.34791 0.45663,-0.55283 0.81169,-0.45769 0.35505,0.0951 0.56731,0.4543 0.47409,0.80221 z m 6.21459,1.6652 c -0.0932,0.34791 -0.45663,0.55282 -0.81169,0.45769 -0.35505,-0.0951 -0.56731,-0.4543 -0.47409,-0.80222 0.0932,-0.34791 0.45663,-0.55282 0.81168,-0.45769 0.35506,0.0951 0.56732,0.4543 0.4741,0.80222 z m 6.21458,1.66519 c -0.0932,0.34792 -0.45662,0.55283 -0.81168,0.45769 -0.35506,-0.0951 -0.56732,-0.4543 -0.47409,-0.80221 0.0932,-0.34791 0.45662,-0.55283 0.81168,-0.45769 0.35506,0.0951 0.56732,0.4543 0.47409,0.80221 z m 6.21459,1.6652 c -0.0932,0.34791 -0.45663,0.55283 -0.81168,0.45769 -0.35506,-0.0951 -0.56732,-0.4543 -0.4741,-0.80222 0.0932,-0.34791 0.45663,-0.55282 0.81169,-0.45768 0.35505,0.0951 0.56731,0.4543 0.47409,0.80221 z m 4.7793,3.53569 c -0.31193,0.1801 -0.71379,0.068 -0.89758,-0.25031 -0.18379,-0.31833 -0.0799,-0.72239 0.23201,-0.90248 0.31193,-0.1801 0.7138,-0.068 0.89759,0.25031 0.18379,0.31833 0.0799,0.72239 -0.23202,0.90248 z m 3.21691,5.57185 c -0.31193,0.18009 -0.71379,0.068 -0.89758,-0.25031 -0.1838,-0.31834 -0.0799,-0.72239 0.23201,-0.90249 0.31193,-0.18009 0.71379,-0.068 0.89758,0.25031 0.18379,0.31834 0.0799,0.7224 -0.23201,0.90249 z m 3.21691,5.57184 c -0.31193,0.1801 -0.7138,0.068 -0.89759,-0.25031 -0.18379,-0.31833 -0.0799,-0.72239 0.23202,-0.90248 0.31193,-0.18009 0.71379,-0.068 0.89758,0.25031 0.18379,0.31834 0.0799,0.72239 -0.23201,0.90248 z m 3.2169,5.57185 c -0.31193,0.18009 -0.71379,0.068 -0.89758,-0.25031 -0.18379,-0.31834 -0.0799,-0.72239 0.23202,-0.90248 0.31193,-0.1801 0.71379,-0.068 0.89758,0.25031 0.18379,0.31833 0.0799,0.72239 -0.23202,0.90248 z m 3.21691,5.57185 c -0.31193,0.18009 -0.71379,0.068 -0.89758,-0.25031 -0.18379,-0.31834 -0.0799,-0.7224 0.23201,-0.90249 0.31193,-0.18009 0.71379,-0.068 0.89758,0.25031 0.1838,0.31834 0.0799,0.72239 -0.23201,0.90249 z m 3.21691,5.57184 c -0.31193,0.1801 -0.7138,0.068 -0.89759,-0.25031 -0.18379,-0.31833 -0.0799,-0.72239 0.23202,-0.90248 0.31193,-0.1801 0.71379,-0.068 0.89758,0.25031 0.18379,0.31833 0.0799,0.72239 -0.23201,0.90248 z m 1.06854,5.85469 c -0.34791,-0.0932 -0.55282,-0.45663 -0.45769,-0.81169 0.0951,-0.35506 0.4543,-0.56731 0.80222,-0.47409 0.34791,0.0932 0.55282,0.45663 0.45769,0.81168 -0.0951,0.35506 -0.4543,0.56732 -0.80222,0.4741 z m -1.66519,6.21458 c -0.34791,-0.0932 -0.55283,-0.45662 -0.45769,-0.81168 0.0951,-0.35506 0.4543,-0.56732 0.80221,-0.47409 0.34791,0.0932 0.55283,0.45662 0.45769,0.81168 -0.0951,0.35506 -0.4543,0.56731 -0.80221,0.47409 z m -1.6652,6.21459 c -0.34791,-0.0932 -0.55282,-0.45663 -0.45769,-0.81169 0.0951,-0.35505 0.4543,-0.56731 0.80222,-0.47409 0.34791,0.0932 0.55282,0.45663 0.45769,0.81169 -0.0951,0.35505 -0.4543,0.56731 -0.80222,0.47409 z m -1.66519,6.21458 c -0.34791,-0.0932 -0.55283,-0.45662 -0.45769,-0.81168 0.0951,-0.35506 0.4543,-0.56731 0.80221,-0.47409 0.34791,0.0932 0.55283,0.45662 0.45769,0.81168 -0.0951,0.35506 -0.4543,0.56732 -0.80221,0.47409 z m -1.6652,6.21459 c -0.34791,-0.0932 -0.55282,-0.45663 -0.45769,-0.81168 0.0951,-0.35506 0.4543,-0.56732 0.80222,-0.4741 0.34791,0.0932 0.55282,0.45663 0.45769,0.81169 -0.0951,0.35506 -0.4543,0.56731 -0.80222,0.47409 z m -1.66519,6.21459 c -0.34791,-0.0932 -0.55283,-0.45663 -0.45769,-0.81169 0.0951,-0.35505 0.4543,-0.56731 0.80221,-0.47409 0.34791,0.0932 0.55283,0.45663 0.45769,0.81168 -0.0951,0.35506 -0.4543,0.56732 -0.80221,0.4741 z m -3.23213,5.01224 c -0.18009,-0.31193 -0.068,-0.71379 0.25032,-0.89759 0.31833,-0.18379 0.72239,-0.0799 0.90248,0.23202 0.18009,0.31193 0.068,0.71379 -0.25031,0.89758 -0.31834,0.18379 -0.72239,0.0799 -0.90249,-0.23201 z m -5.57184,3.2169 c -0.18009,-0.31193 -0.068,-0.71379 0.25031,-0.89758 0.31834,-0.18379 0.72239,-0.0799 0.90248,0.23202 0.1801,0.31193 0.068,0.71379 -0.25031,0.89758 -0.31833,0.18379 -0.72239,0.0799 -0.90248,-0.23202 z m -5.57185,3.21691 c -0.18009,-0.31193 -0.068,-0.71379 0.25031,-0.89758 0.31834,-0.18379 0.7224,-0.0799 0.90249,0.23201 0.18009,0.31193 0.068,0.7138 -0.25031,0.89759 -0.31834,0.18379 -0.72239,0.0799 -0.90249,-0.23202 z m -5.57184,3.21691 c -0.1801,-0.31193 -0.068,-0.71379 0.25031,-0.89758 0.31833,-0.1838 0.72239,-0.0799 0.90248,0.23201 0.18009,0.31193 0.068,0.71379 -0.25031,0.89758 -0.31833,0.1838 -0.72239,0.0799 -0.90248,-0.23201 z m -5.57185,3.21691 c -0.18009,-0.31193 -0.068,-0.7138 0.25031,-0.89759 0.31834,-0.18379 0.72239,-0.0799 0.90249,0.23202 0.18009,0.31193 0.068,0.71379 -0.25031,0.89758 -0.31834,0.18379 -0.7224,0.0799 -0.90249,-0.23201 z m -5.57185,3.2169 c -0.18009,-0.31193 -0.068,-0.71379 0.25032,-0.89758 0.31833,-0.18379 0.72239,-0.0799 0.90248,0.23202 0.18009,0.31193 0.068,0.71379 -0.25031,0.89758 -0.31834,0.18379 -0.72239,0.0799 -0.90249,-0.23202 z m -5.80473,1.44792 c 0.0932,-0.34791 0.45662,-0.55283 0.81168,-0.45769 0.35506,0.0951 0.56732,0.4543 0.47409,0.80221 -0.0932,0.34792 -0.45662,0.55283 -0.81168,0.45769 -0.35506,-0.0951 -0.56732,-0.4543 -0.47409,-0.80221 z m -6.21459,-1.66519 c 0.0932,-0.34792 0.45663,-0.55283 0.81168,-0.45769 0.35506,0.0951 0.56732,0.4543 0.4741,0.80221 -0.0932,0.34791 -0.45663,0.55283 -0.81169,0.45769 -0.35505,-0.0951 -0.56731,-0.4543 -0.47409,-0.80221 z m -6.21459,-1.6652 c 0.0932,-0.34791 0.45663,-0.55282 0.81169,-0.45769 0.35505,0.0951 0.56731,0.4543 0.47409,0.80222 -0.0932,0.34791 -0.45663,0.55282 -0.81168,0.45769 -0.35506,-0.0951 -0.56732,-0.4543 -0.4741,-0.80222 z m -6.21458,-1.66519 c 0.0932,-0.34791 0.45662,-0.55283 0.81168,-0.45769 0.35506,0.0951 0.56732,0.4543 0.47409,0.80221 -0.0932,0.34791 -0.45662,0.55283 -0.81168,0.45769 -0.35506,-0.0951 -0.56732,-0.4543 -0.47409,-0.80221 z m -6.21459,-1.6652 c 0.0932,-0.34791 0.45663,-0.55282 0.81168,-0.45769 0.35506,0.0951 0.56732,0.4543 0.4741,0.80222 -0.0932,0.34791 -0.45663,0.55282 -0.81169,0.45769 -0.35505,-0.0951 -0.56731,-0.4543 -0.47409,-0.80222 z m -6.21459,-1.66519 c 0.0932,-0.34791 0.45663,-0.55283 0.81169,-0.45769 0.35505,0.0951 0.56731,0.4543 0.47409,0.80221 -0.0932,0.34792 -0.45663,0.55283 -0.81168,0.45769 -0.35506,-0.0951 -0.56732,-0.4543 -0.4741,-0.80221 z m -5.24517,-2.92856 c 0.31193,-0.18009 0.71379,-0.068 0.89758,0.25031 0.18379,0.31834 0.0799,0.72239 -0.23201,0.90249 -0.31193,0.18009 -0.71379,0.068 -0.89759,-0.25031 -0.18379,-0.31834 -0.0799,-0.7224 0.23202,-0.90249 z m -3.21691,-5.57184 c 0.31193,-0.1801 0.71379,-0.068 0.89758,0.25031 0.1838,0.31833 0.0799,0.72239 -0.23201,0.90248 -0.31193,0.18009 -0.71379,0.068 -0.89758,-0.25031 -0.18379,-0.31833 -0.0799,-0.72239 0.23201,-0.90248 z m -3.21691,-5.57185 c 0.31193,-0.18009 0.7138,-0.068 0.89759,0.25031 0.18379,0.31834 0.0799,0.72239 -0.23202,0.90249 -0.31193,0.18009 -0.71379,0.068 -0.89758,-0.25031 -0.18379,-0.31834 -0.0799,-0.7224 0.23201,-0.90249 z m -3.2169,-5.57184 c 0.31193,-0.1801 0.71379,-0.068 0.89758,0.25031 0.18379,0.31833 0.0799,0.72239 -0.23202,0.90248 -0.31193,0.18009 -0.71379,0.068 -0.89758,-0.25031 -0.18379,-0.31834 -0.0799,-0.72239 0.23202,-0.90248 z m -3.21691,-5.57185 c 0.31193,-0.18009 0.71379,-0.068 0.89758,0.25031 0.18379,0.31834 0.0799,0.72239 -0.23202,0.90249 -0.31193,0.18009 -0.71379,0.068 -0.89758,-0.25031 -0.18379,-0.31834 -0.0799,-0.7224 0.23202,-0.90249 z m -3.21691,-5.57184 c 0.31193,-0.1801 0.71379,-0.068 0.89758,0.25031 0.18379,0.31833 0.0799,0.72239 -0.23201,0.90248 -0.31193,0.18009 -0.7138,0.068 -0.89759,-0.25031 -0.18379,-0.31834 -0.0799,-0.72239 0.23202,-0.90248 z m -1.82729,-5.7548 c 0.34792,0.0932 0.55283,0.45663 0.45769,0.81169 -0.0951,0.35505 -0.4543,0.56731 -0.80221,0.47409 -0.34791,-0.0932 -0.55283,-0.45663 -0.45769,-0.81168 0.0951,-0.35506 0.4543,-0.56732 0.80221,-0.4741 z m 1.6652,-6.21458 c 0.34791,0.0932 0.55283,0.45662 0.45769,0.81168 -0.0951,0.35506 -0.4543,0.56731 -0.80221,0.47409 -0.34792,-0.0932 -0.55283,-0.45662 -0.45769,-0.81168 0.0951,-0.35506 0.4543,-0.56732 0.80221,-0.47409 z m 1.66519,-6.21459 c 0.34791,0.0932 0.55283,0.45662 0.45769,0.81168 -0.0951,0.35506 -0.4543,0.56732 -0.80221,0.47409 -0.34791,-0.0932 -0.55283,-0.45662 -0.45769,-0.81168 0.0951,-0.35506 0.4543,-0.56731 0.80221,-0.47409 z m 1.66519,-6.21459 c 0.34792,0.0932 0.55283,0.45663 0.45769,0.81168 -0.0951,0.35506 -0.4543,0.56732 -0.80221,0.4741 -0.34791,-0.0932 -0.55283,-0.45663 -0.45769,-0.81169 0.0951,-0.35505 0.4543,-0.56731 0.80221,-0.47409 z m 1.6652,-6.21459 c 0.34791,0.0932 0.55283,0.45663 0.45769,0.81169 -0.0951,0.35506 -0.4543,0.56731 -0.80221,0.47409 -0.34792,-0.0932 -0.55283,-0.45662 -0.45769,-0.81168 0.0951,-0.35506 0.4543,-0.56732 0.80221,-0.4741 z m 1.66519,-6.21458 c 0.34791,0.0932 0.55283,0.45662 0.45769,0.81168 -0.0951,0.35506 -0.4543,0.56732 -0.80221,0.47409 -0.34791,-0.0932 -0.55283,-0.45662 -0.45769,-0.81168 0.0951,-0.35506 0.4543,-0.56732 0.80221,-0.47409 z m 2.62498,-5.47812 c 0.18009,0.31193 0.068,0.71379 -0.25031,0.89758 -0.31834,0.18379 -0.72239,0.0799 -0.90248,-0.23201 -0.1801,-0.31193 -0.068,-0.71379 0.25031,-0.89759 0.31833,-0.18379 0.72239,-0.0799 0.90248,0.23202 z m 5.57185,-3.21691 c 0.18009,0.31193 0.068,0.7138 -0.25031,0.89759 -0.31834,0.18379 -0.7224,0.0799 -0.90249,-0.23202 -0.18009,-0.31193 -0.068,-0.71379 0.25031,-0.89758 0.31834,-0.18379 0.72239,-0.0799 0.90249,0.23201 z m 5.57184,-3.2169 c 0.1801,0.31193 0.068,0.71379 -0.25031,0.89758 -0.31833,0.18379 -0.72239,0.0799 -0.90248,-0.23202 -0.18009,-0.31193 -0.068,-0.71379 0.25031,-0.89758 0.31833,-0.18379 0.72239,-0.0799 0.90248,0.23202 z m 5.57185,-3.21691 c 0.18009,0.31193 0.068,0.71379 -0.25031,0.89758 -0.31834,0.1838 -0.72239,0.0799 -0.90249,-0.23201 -0.18009,-0.31193 -0.068,-0.71379 0.25032,-0.89758 0.31833,-0.1838 0.72239,-0.0799 0.90248,0.23201 z m 5.57185,-3.2169 c 0.18009,0.31193 0.068,0.71379 -0.25031,0.89758 -0.31834,0.18379 -0.7224,0.0799 -0.90249,-0.23202 -0.18009,-0.31193 -0.068,-0.71379 0.25031,-0.89758 0.31834,-0.18379 0.72239,-0.0799 0.90249,0.23202 z m 5.57184,-3.21691 c 0.1801,0.31193 0.068,0.71379 -0.25031,0.89758 -0.31833,0.18379 -0.72239,0.0799 -0.90248,-0.23201 -0.1801,-0.31193 -0.068,-0.7138 0.25031,-0.89759 0.31833,-0.18379 0.72239,-0.0799 0.90248,0.23202 z"
       id="path857"
       inkscape:original-d="m 441.07695,160.84078 37.52961,10.05604 19.4261,33.64699 -10.05604,37.52961 -33.64699,19.4261 -37.5296,-10.05603 -19.42611,-33.64699 10.05603,-37.52962 z"
       inkscape:path-effect="#path-effect859" />
    <path
       style="color:#000000;font-style:normal;font-variant:normal;font-weight:normal;font-stretch:normal;font-size:medium;line-height:normal;font-family:sans-serif;font-variant-ligatures:normal;font-variant-position:normal;font-variant-caps:normal;font-variant-numeric:normal;font-variant-alternates:normal;font-variant-east-asian:normal;font-feature-settings:normal;text-indent:0;text-align:start;text-decoration:none;text-decoration-line:none;text-decoration-style:solid;text-decoration-color:#000000;letter-spacing:normal;word-spacing:normal;text-transform:none;writing-mode:lr-tb;direction:ltr;text-orientation:mixed;dominant-baseline:auto;baseline-shift:baseline;text-anchor:start;white-space:normal;shape-padding:0;shape-margin:0;inline-size:0;clip-rule:nonzero;display:inline;overflow:visible;visibility:visible;opacity:1;isolation:auto;mix-blend-mode:normal;color-interpolation:sRGB;color-interpolation-filters:linearRGB;solid-color:#000000;solid-opacity:1;vector-effect:none;fill:none;fill-opacity:1;fill-rule:nonzero;stroke:#f4e3d7;stroke-width:0.6;stroke-linecap:butt;stroke-linejoin:miter;stroke-miterlimit:4;stroke-dasharray:none;stroke-dashoffset:0;stroke-opacity:1;color-rendering:auto;image-rendering:auto;shape-rendering:auto;text-rendering:auto;enable-background:accumulate;stop-color:#000000;stop-opacity:1"
       d="m 441.07695,160.84079 37.52961,10.05603 19.4261,33.64699 -10.05604,37.52961 -33.64699,19.4261 -37.5296,-10.05603 -19.42611,-33.64699 10.05603,-37.52962 z"
       id="path861" />
    <text
       xml:space="preserve"
       style="font-style:normal;font-variant:normal;font-weight:normal;font-stretch:normal;font-size:8.18109px;line-height:1.25;font-family:'Amiri Quran';-inkscape-font-specification:'Amiri Quran';letter-spacing:0px;word-spacing:0px;fill:#000000;fill-opacity:1;stroke:none;stroke-width:0.12783"
       x="467.94736"
       y="88.144096"
       id="text871"
       transform="rotate(15)"><tspan
         sodipodi:role="line"
         id="tspan869"
         x="467.94736"
         y="88.144096"
         style="font-style:normal;font-variant:normal;font-weight:normal;font-stretch:normal;font-size:8.18109px;font-family:'Amiri Quran';-inkscape-font-specification:'Amiri Quran';stroke-width:0.12783">PRIJMENI</tspan></text>
    <path
       style="fill:none;stroke:#000000;stroke-width:0.264583px;stroke-linecap:butt;stroke-linejoin:bevel;stroke-opacity:1"
       d="m 414.75765,256.75208 v -2.64583 l -20.71108,-35.87188 v 2.64584 z"
       id="path952" />
    <path
       style="fill:none;stroke:#000000;stroke-width:0.264583px;stroke-linecap:butt;stroke-linejoin:bevel;stroke-opacity:1"
       d="m 414.75766,256.7521 v -2.64583 l 40.00934,10.72046 v 2.64584 z"
       id="path978" />
    <path
       style="fill:none;stroke:#000000;stroke-width:0.265;stroke-linecap:butt;stroke-linejoin:bevel;stroke-opacity:1;stroke-miterlimit:4;stroke-dasharray:none"
       d="m 454.767,267.47257 v -2.64584 l 35.85234,-20.69933 v 2.64584 z"
       id="path980" />
    <path
       style="fill:none;stroke:#000000;stroke-width:0.264583px;stroke-linecap:butt;stroke-linejoin:bevel;stroke-opacity:1"
       d="m 490.63939,244.1158 10.72047,-40.00936 v 2.66521 l -10.72047,40.00936 z"
       id="path982" />
    <path
       id="path984"
       style="opacity:0.83;fill:none;stroke:none;stroke-width:0.3;stroke-miterlimit:4;stroke-dasharray:none"
       d="m 564.11567,167.83345 -35.87176,20.71058 -10.72075,40.01035 20.71108,35.87188 40.00935,10.72048 35.87239,-20.71093 10.72048,-40.00936 -20.71045,-35.87225 z" />
    <path
       id="path986"
       style="opacity:1;fill:#e9c6af;stroke:#000000;stroke-width:0.3;stroke-miterlimit:4;stroke-dasharray:none"
       d="m 562.24672,164.62281 -35.87176,20.71056 -10.72075,40.01037 20.71108,35.87188 40.00935,10.72048 35.87239,-20.71093 10.72048,-40.00936 -20.71044,-35.87225 z" />
    <path
       style="fill:#be8e6c;stroke:#000000;stroke-width:0.264583px;stroke-linecap:butt;stroke-linejoin:bevel;stroke-opacity:1;fill-opacity:0.86666662"
       d="m 536.36529,263.86145 v -2.64583 l -20.71108,-35.87188 v 2.64584 z"
       id="path998" />
    <path
       style="fill:#a2724d;stroke:#000000;stroke-width:0.264583px;stroke-linecap:butt;stroke-linejoin:bevel;stroke-opacity:1;fill-opacity:0.86666662"
       d="m 536.3653,263.86147 v -2.64583 l 40.00934,10.72046 v 2.64584 z"
       id="path1000" />
    <path
       style="fill:#b27149;stroke:#000000;stroke-width:0.265;stroke-linecap:butt;stroke-linejoin:bevel;stroke-miterlimit:4;stroke-dasharray:none;stroke-opacity:1;fill-opacity:0.86666662"
       d="m 576.37464,274.58194 v -2.64584 l 35.85234,-20.69933 v 2.64584 z"
       id="path1002" />
    <path
       style="fill:#c28e6d;stroke:#000000;stroke-width:0.264583px;stroke-linecap:butt;stroke-linejoin:bevel;stroke-opacity:1;fill-opacity:0.86666662"
       d="m 612.24703,251.22517 10.72047,-40.00936 v 2.66521 l -10.72047,40.00936 z"
       id="path1004" />
  </g>
</svg>
