<?xml version="1.0" encoding="UTF-8" standalone="no"?>
<svg
   xmlns:dc="http://purl.org/dc/elements/1.1/"
   xmlns:cc="http://creativecommons.org/ns#"
   xmlns:rdf="http://www.w3.org/1999/02/22-rdf-syntax-ns#"
   xmlns:svg="http://www.w3.org/2000/svg"
   xmlns="http://www.w3.org/2000/svg"
   xmlns:sodipodi="http://sodipodi.sourceforge.net/DTD/sodipodi-0.dtd"
   xmlns:inkscape="http://www.inkscape.org/namespaces/inkscape"
   width="210mm"
   height="297mm"
   viewBox="0 0 210 297"
   version="1.1"
   id="svg8"
   inkscape:version="1.0.2 (e86c870879, 2021-01-15, custom)"
   sodipodi:docname="COIN_POUCH.svg">
  <defs
     id="defs2" />
  <sodipodi:namedview
     id="base"
     pagecolor="#ffffff"
     bordercolor="#666666"
     borderopacity="1.0"
     inkscape:pageopacity="0.0"
     inkscape:pageshadow="2"
     inkscape:zoom="0.98994949"
     inkscape:cx="298.29904"
     inkscape:cy="286.65381"
     inkscape:document-units="mm"
     inkscape:current-layer="layer1"
     inkscape:document-rotation="0"
     showgrid="false"
     inkscape:window-width="1920"
     inkscape:window-height="1017"
     inkscape:window-x="-8"
     inkscape:window-y="-8"
     inkscape:window-maximized="1" />
  <metadata
     id="metadata5">
    <rdf:RDF>
      <cc:Work
         rdf:about="">
        <dc:format>image/svg+xml</dc:format>
        <dc:type
           rdf:resource="http://purl.org/dc/dcmitype/StillImage" />
        <dc:title></dc:title>
      </cc:Work>
    </rdf:RDF>
  </metadata>
  <g
     inkscape:label="Layer 1"
     inkscape:groupmode="layer"
     id="layer1">
    <path
       style="fill:#ff0000;fill-rule:evenodd;stroke-width:0.270833"
       id="path841"
       sodipodi:type="arc"
       sodipodi:cx="-104.2372"
       sodipodi:cy="-38.920502"
       sodipodi:rx="32.5"
       sodipodi:ry="32.5"
       sodipodi:start="0"
       sodipodi:end="3.1415927"
       sodipodi:arc-type="slice"
       d="m -71.737198,-38.920502 a 32.5,32.5 0 0 1 -16.25,28.145826 32.5,32.5 0 0 1 -32.500002,-1e-6 32.5,32.5 0 0 1 -16.25,-28.145825 h 32.5 z"
       transform="scale(-1)" />
    <path
       style="fill:#ff0000;fill-rule:evenodd;stroke-width:0.270833"
       id="path843"
       sodipodi:type="arc"
       sodipodi:cx="104.2372"
       sodipodi:cy="103.79245"
       sodipodi:rx="32.5"
       sodipodi:ry="32.5"
       sodipodi:start="0"
       sodipodi:end="3.1415927"
       sodipodi:arc-type="slice"
       d="m 136.7372,103.79245 a 32.5,32.5 0 0 1 -16.25,28.14583 32.5,32.5 0 0 1 -32.500003,0 32.5,32.5 0 0 1 -16.249999,-28.14583 H 104.2372 Z" />
    <rect
       style="fill:#0000ff;fill-rule:evenodd;stroke-width:0.264583"
       id="rect845"
       width="65"
       height="65"
       x="71.737198"
       y="38.931545" />
    <rect
       style="fill:#ffff00;fill-rule:evenodd;stroke-width:0.187088"
       id="rect847"
       width="65"
       height="32.5"
       x="71.737198"
       y="71.431549" />
    <path
       style="fill:none;stroke:#000000;stroke-width:0.264583px;stroke-linecap:butt;stroke-linejoin:miter;stroke-opacity:1"
       d="m 71.737198,38.931545 c 0,0 1.180444,17.94805 7.951729,29.676262 C 86.460212,80.336019 44.500376,102.6315 44.500376,102.6315 v -0.13364"
       id="path851" />
    <path
       style="fill:none;stroke:#000000;stroke-width:0.264583px;stroke-linecap:butt;stroke-linejoin:miter;stroke-opacity:1"
       d="m 71.737198,104.04563 c 0,0 1.180444,-17.948048 7.951729,-29.67626 C 86.460212,62.641158 44.500376,40.345677 44.500376,40.345677 v 0.13364"
       id="path855" />
    <path
       style="fill:none;stroke:#000000;stroke-width:0.264583px;stroke-linecap:butt;stroke-linejoin:miter;stroke-opacity:1"
       d="m 136.7124,38.931545 c 0,0 -1.18044,17.94805 -7.95173,29.676262 -6.77128,11.728212 35.18855,34.023693 35.18855,34.023693 v -0.13364"
       id="path857" />
    <path
       style="fill:none;stroke:#000000;stroke-width:0.264583px;stroke-linecap:butt;stroke-linejoin:miter;stroke-opacity:1"
       d="m 136.7124,104.04563 c 0,0 -1.18044,-17.948048 -7.95173,-29.67626 -6.77128,-11.728212 35.18855,-34.023693 35.18855,-34.023693 v 0.13364"
       id="path859" />
    <circle
       style="fill:#f4e3d7;stroke-width:0.264583"
       id="path863"
       cx="104.2372"
       cy="17.662317"
       r="0.94494045" />
    <path
       style="fill:#ff0000;fill-rule:evenodd;stroke-width:0.270833"
       id="path865"
       sodipodi:type="arc"
       sodipodi:cx="104.2372"
       sodipodi:cy="-38.920502"
       sodipodi:rx="32.5"
       sodipodi:ry="32.5"
       sodipodi:start="0"
       sodipodi:end="3.1415927"
       sodipodi:arc-type="slice"
       d="m 136.7372,-38.920502 a 32.5,32.5 0 0 1 -16.25,28.145826 32.5,32.5 0 0 1 -32.500003,-1e-6 32.5,32.5 0 0 1 -16.249999,-28.145825 H 104.2372 Z"
       transform="scale(1,-1)" />
    <circle
       style="fill:#f4e3d7;stroke-width:0.264583"
       id="circle867"
       cx="-104.2372"
       cy="17.662317"
       r="0.94494045"
       transform="scale(-1,1)" />
    <path
       style="fill:#ff0000;fill-rule:evenodd;stroke-width:0.270833"
       id="path869"
       sodipodi:type="arc"
       sodipodi:cx="-104.2372"
       sodipodi:cy="103.79245"
       sodipodi:rx="32.5"
       sodipodi:ry="32.5"
       sodipodi:start="0"
       sodipodi:end="3.1415927"
       sodipodi:arc-type="slice"
       d="m -71.737198,103.79245 a 32.5,32.5 0 0 1 -16.25,28.14583 32.5,32.5 0 0 1 -32.500002,0 32.5,32.5 0 0 1 -16.25,-28.14583 h 32.5 z"
       transform="scale(-1,1)" />
    <circle
       style="fill:#f4e3d7;stroke-width:0.264583"
       id="circle871"
       cx="104.2372"
       cy="-125.05064"
       r="0.94494045"
       transform="scale(1,-1)" />
    <ellipse
       style="fill:#f4e3d7;stroke-width:0.327674"
       id="path873"
       cx="104.2372"
       cy="41.694046"
       rx="26.379522"
       ry="19.777945" />
  </g>
</svg>
