<?xml version="1.0" encoding="UTF-8" standalone="no"?>
<!-- Created with Inkscape (http://www.inkscape.org/) -->

<svg
   width="210mm"
   height="297mm"
   viewBox="0 0 210 297"
   version="1.1"
   id="svg5"
   inkscape:version="1.1.1 (3bf5ae0d25, 2021-09-20)"
   sodipodi:docname="KEY FOB.svg"
   xmlns:inkscape="http://www.inkscape.org/namespaces/inkscape"
   xmlns:sodipodi="http://sodipodi.sourceforge.net/DTD/sodipodi-0.dtd"
   xmlns="http://www.w3.org/2000/svg"
   xmlns:svg="http://www.w3.org/2000/svg">
  <sodipodi:namedview
     id="namedview7"
     pagecolor="#ffffff"
     bordercolor="#666666"
     borderopacity="1.0"
     inkscape:pageshadow="2"
     inkscape:pageopacity="0.0"
     inkscape:pagecheckerboard="0"
     inkscape:document-units="mm"
     showgrid="false"
     inkscape:zoom="1.4142136"
     inkscape:cx="125.1579"
     inkscape:cy="369.81684"
     inkscape:window-width="2880"
     inkscape:window-height="1690"
     inkscape:window-x="-12"
     inkscape:window-y="-12"
     inkscape:window-maximized="1"
     inkscape:current-layer="layer1" />
  <defs
     id="defs2" />
  <g
     inkscape:label="Layer 1"
     inkscape:groupmode="layer"
     id="layer1">
    <path
       style="fill:#cccccc;fill-rule:evenodd;stroke:none;stroke-width:0.1;stroke-miterlimit:4;stroke-dasharray:none"
       id="path709"
       sodipodi:type="arc"
       sodipodi:cx="-105.78765"
       sodipodi:cy="86.503838"
       sodipodi:rx="19.72427"
       sodipodi:ry="19.72427"
       sodipodi:start="0"
       sodipodi:end="3.1415927"
       sodipodi:arc-type="slice"
       d="m -86.063381,86.503838 a 19.72427,19.72427 0 0 1 -9.862135,17.081722 19.72427,19.72427 0 0 1 -19.724274,0 19.72427,19.72427 0 0 1 -9.86213,-17.081722 h 19.72427 z" />
    <path
       style="fill:#ff0000;fill-rule:evenodd;stroke-width:0.264583"
       id="path31"
       sodipodi:type="arc"
       sodipodi:cx="105.78765"
       sodipodi:cy="-86.503838"
       sodipodi:rx="19.72427"
       sodipodi:ry="19.72427"
       sodipodi:start="0"
       sodipodi:end="3.1415927"
       sodipodi:arc-type="slice"
       d="m 125.51192,-86.503838 a 19.72427,19.72427 0 0 1 -9.86213,17.081719 19.72427,19.72427 0 0 1 -19.724274,0 19.72427,19.72427 0 0 1 -9.862135,-17.081719 h 19.724269 z"
       transform="scale(-1)" />
    <path
       style="fill:none;stroke:#000000;stroke-width:0.264583px;stroke-linecap:butt;stroke-linejoin:miter;stroke-opacity:1"
       d="m -125.52022,86.504145 c 0,0 -0.29766,6.515365 4.6302,12.633854 4.92787,6.118491 9.32657,5.820831 9.32657,10.285681"
       id="path1685" />
    <path
       style="fill:none;stroke:#000000;stroke-width:0.264583px;stroke-linecap:butt;stroke-linejoin:miter;stroke-opacity:1"
       d="m -86.117168,86.48761 c 0,0 0.297657,6.515362 -4.630208,12.633851 -4.927865,6.118489 -9.326564,5.820829 -9.326564,10.285679"
       id="path1789" />
    <rect
       style="fill:#cccccc;stroke:none;stroke-width:0.100513;stroke-miterlimit:4;stroke-dasharray:none"
       id="rect1893"
       width="11.494013"
       height="11.377083"
       x="-111.56345"
       y="109.42368" />
    <path
       style="fill:#cccccc;fill-rule:evenodd;stroke:none;stroke-width:0.1;stroke-miterlimit:4;stroke-dasharray:none"
       id="path1975"
       sodipodi:type="arc"
       sodipodi:cx="-105.78315"
       sodipodi:cy="-143.70409"
       sodipodi:rx="19.72427"
       sodipodi:ry="19.72427"
       sodipodi:start="0"
       sodipodi:end="3.1415927"
       sodipodi:arc-type="slice"
       d="m -86.05888,-143.70409 a 19.72427,19.72427 0 0 1 -9.862135,17.08172 19.72427,19.72427 0 0 1 -19.724275,0 19.72427,19.72427 0 0 1 -9.86213,-17.08172 h 19.72427 z"
       transform="scale(1,-1)" />
    <path
       style="fill:#ff0000;fill-rule:evenodd;stroke-width:0.264583"
       id="path1977"
       sodipodi:type="arc"
       sodipodi:cx="105.78315"
       sodipodi:cy="143.70409"
       sodipodi:rx="19.72427"
       sodipodi:ry="19.72427"
       sodipodi:start="0"
       sodipodi:end="3.1415927"
       sodipodi:arc-type="slice"
       d="m 125.50742,143.70409 a 19.72427,19.72427 0 0 1 -9.86214,17.08172 19.72427,19.72427 0 0 1 -19.724266,-1e-5 19.72427,19.72427 0 0 1 -9.862134,-17.08171 h 19.72427 z"
       transform="scale(-1,1)" />
    <path
       style="fill:none;stroke:#000000;stroke-width:0.264583px;stroke-linecap:butt;stroke-linejoin:miter;stroke-opacity:1"
       d="m -125.51573,143.70376 c 0,0 -0.29765,-6.51537 4.63021,-12.63386 4.92787,-6.11849 9.32656,-5.82083 9.32656,-10.28568"
       id="path1979" />
    <path
       style="fill:none;stroke:#000000;stroke-width:0.264583px;stroke-linecap:butt;stroke-linejoin:miter;stroke-opacity:1"
       d="m -86.11267,143.72029 c 0,0 0.297657,-6.51536 -4.630208,-12.63385 -4.927865,-6.11849 -9.326562,-5.82083 -9.326562,-10.28568"
       id="path1981" />
    <g
       id="g2010">
      <path
         style="fill:#cccccc;fill-rule:evenodd;stroke:none;stroke-width:0.1;stroke-miterlimit:4;stroke-dasharray:none"
         id="path1983"
         sodipodi:type="arc"
         sodipodi:cx="47.063805"
         sodipodi:cy="34.867363"
         sodipodi:rx="19.72427"
         sodipodi:ry="19.72427"
         sodipodi:start="0"
         sodipodi:end="3.1415927"
         sodipodi:arc-type="slice"
         d="m 66.788074,34.867363 a 19.72427,19.72427 0 0 1 -9.862135,17.081719 19.72427,19.72427 0 0 1 -19.72427,-10e-7 19.72427,19.72427 0 0 1 -9.862134,-17.081718 h 19.72427 z" />
      <path
         style="fill:#ff0000;fill-rule:evenodd;stroke-width:0.264583"
         id="path1985"
         sodipodi:type="arc"
         sodipodi:cx="-47.063805"
         sodipodi:cy="-34.867363"
         sodipodi:rx="19.72427"
         sodipodi:ry="19.72427"
         sodipodi:start="0"
         sodipodi:end="3.1415927"
         sodipodi:arc-type="slice"
         d="m -27.339535,-34.867363 a 19.72427,19.72427 0 0 1 -9.862135,17.081719 19.72427,19.72427 0 0 1 -19.72427,-10e-7 19.72427,19.72427 0 0 1 -9.862134,-17.081718 h 19.724269 z"
         transform="scale(-1)" />
      <path
         style="fill:none;stroke:#000000;stroke-width:0.264583px;stroke-linecap:butt;stroke-linejoin:miter;stroke-opacity:1"
         d="m 27.33122,34.867672 c 0,0 -0.29766,6.515365 4.63021,12.633854 4.92786,6.11849 9.32656,5.820834 9.32656,10.285681"
         id="path1987" />
      <path
         style="fill:none;stroke:#000000;stroke-width:0.264583px;stroke-linecap:butt;stroke-linejoin:miter;stroke-opacity:1"
         d="m 66.73427,34.851137 c 0,0 0.29766,6.515362 -4.6302,12.633851 -4.92787,6.118493 -9.32657,5.820833 -9.32657,10.285679"
         id="path1989" />
      <rect
         style="fill:#cccccc;stroke:none;stroke-width:0.100513;stroke-miterlimit:4;stroke-dasharray:none"
         id="rect1991"
         width="11.494013"
         height="11.377083"
         x="41.287994"
         y="57.787209" />
      <path
         style="fill:#cccccc;fill-rule:evenodd;stroke:none;stroke-width:0.1;stroke-miterlimit:4;stroke-dasharray:none"
         id="path1993"
         sodipodi:type="arc"
         sodipodi:cx="47.068291"
         sodipodi:cy="-92.067619"
         sodipodi:rx="19.72427"
         sodipodi:ry="19.72427"
         sodipodi:start="0"
         sodipodi:end="3.1415927"
         sodipodi:arc-type="slice"
         d="m 66.792561,-92.067619 a 19.72427,19.72427 0 0 1 -9.862136,17.081719 19.72427,19.72427 0 0 1 -19.72427,-10e-7 19.72427,19.72427 0 0 1 -9.862134,-17.081718 h 19.72427 z"
         transform="scale(1,-1)" />
      <path
         style="fill:#ff0000;fill-rule:evenodd;stroke-width:0.264583"
         id="path1995"
         sodipodi:type="arc"
         sodipodi:cx="-47.068291"
         sodipodi:cy="92.067619"
         sodipodi:rx="19.72427"
         sodipodi:ry="19.72427"
         sodipodi:start="0"
         sodipodi:end="3.1415927"
         sodipodi:arc-type="slice"
         d="m -27.344021,92.067619 a 19.72427,19.72427 0 0 1 -9.862135,17.081721 19.72427,19.72427 0 0 1 -19.72427,0 19.72427,19.72427 0 0 1 -9.862135,-17.081721 h 19.72427 z"
         transform="scale(-1,1)" />
      <path
         style="fill:none;stroke:#000000;stroke-width:0.264583px;stroke-linecap:butt;stroke-linejoin:miter;stroke-opacity:1"
         d="m 27.33572,92.067284 c 0,0 -0.29766,-6.51537 4.63021,-12.63386 4.92786,-6.11849 9.32656,-5.82083 9.32656,-10.28568"
         id="path1997" />
      <path
         style="fill:none;stroke:#000000;stroke-width:0.264583px;stroke-linecap:butt;stroke-linejoin:miter;stroke-opacity:1"
         d="m 66.73877,92.083814 c 0,0 0.29766,-6.51536 -4.63021,-12.63385 C 57.1807,73.331474 52.782,73.629134 52.782,69.164284"
         id="path1999" />
    </g>
    <g
       id="g858"
       transform="matrix(0.79725152,0,0,0.79725152,111.40605,20.607661)">
      <path
         style="fill:#cccccc;fill-rule:evenodd;stroke:none;stroke-width:0.1;stroke-miterlimit:4;stroke-dasharray:none"
         id="path840"
         sodipodi:type="arc"
         sodipodi:cx="47.063805"
         sodipodi:cy="34.867363"
         sodipodi:rx="19.72427"
         sodipodi:ry="19.72427"
         sodipodi:start="0"
         sodipodi:end="3.1415927"
         sodipodi:arc-type="slice"
         d="m 66.788074,34.867363 a 19.72427,19.72427 0 0 1 -9.862135,17.081719 19.72427,19.72427 0 0 1 -19.72427,-10e-7 19.72427,19.72427 0 0 1 -9.862134,-17.081718 h 19.72427 z" />
      <path
         style="fill:#ff0000;fill-rule:evenodd;stroke-width:0.264583"
         id="path842"
         sodipodi:type="arc"
         sodipodi:cx="-47.063805"
         sodipodi:cy="-34.867363"
         sodipodi:rx="19.72427"
         sodipodi:ry="19.72427"
         sodipodi:start="0"
         sodipodi:end="3.1415927"
         sodipodi:arc-type="slice"
         d="m -27.339535,-34.867363 a 19.72427,19.72427 0 0 1 -9.862135,17.081719 19.72427,19.72427 0 0 1 -19.72427,-10e-7 19.72427,19.72427 0 0 1 -9.862134,-17.081718 h 19.724269 z"
         transform="scale(-1)" />
      <path
         style="fill:none;stroke:#000000;stroke-width:0.264583px;stroke-linecap:butt;stroke-linejoin:miter;stroke-opacity:1"
         d="m 27.33122,34.867672 c 0,0 -0.29766,6.515365 4.63021,12.633854 4.92786,6.11849 9.32656,5.820834 9.32656,10.285681"
         id="path844" />
      <path
         style="fill:none;stroke:#000000;stroke-width:0.264583px;stroke-linecap:butt;stroke-linejoin:miter;stroke-opacity:1"
         d="m 66.73427,34.851137 c 0,0 0.29766,6.515362 -4.6302,12.633851 -4.92787,6.118493 -9.32657,5.820833 -9.32657,10.285679"
         id="path846" />
      <rect
         style="fill:#cccccc;stroke:none;stroke-width:0.100513;stroke-miterlimit:4;stroke-dasharray:none"
         id="rect848"
         width="11.494013"
         height="11.377083"
         x="41.287994"
         y="57.787209" />
      <path
         style="fill:#cccccc;fill-rule:evenodd;stroke:none;stroke-width:0.1;stroke-miterlimit:4;stroke-dasharray:none"
         id="path850"
         sodipodi:type="arc"
         sodipodi:cx="47.068291"
         sodipodi:cy="-92.067619"
         sodipodi:rx="19.72427"
         sodipodi:ry="19.72427"
         sodipodi:start="0"
         sodipodi:end="3.1415927"
         sodipodi:arc-type="slice"
         d="m 66.792561,-92.067619 a 19.72427,19.72427 0 0 1 -9.862136,17.081719 19.72427,19.72427 0 0 1 -19.72427,-10e-7 19.72427,19.72427 0 0 1 -9.862134,-17.081718 h 19.72427 z"
         transform="scale(1,-1)" />
      <path
         style="fill:#ff0000;fill-rule:evenodd;stroke-width:0.264583"
         id="path852"
         sodipodi:type="arc"
         sodipodi:cx="-47.068291"
         sodipodi:cy="92.067619"
         sodipodi:rx="19.72427"
         sodipodi:ry="19.72427"
         sodipodi:start="0"
         sodipodi:end="3.1415927"
         sodipodi:arc-type="slice"
         d="m -27.344021,92.067619 a 19.72427,19.72427 0 0 1 -9.862135,17.081721 19.72427,19.72427 0 0 1 -19.72427,0 19.72427,19.72427 0 0 1 -9.862135,-17.081721 h 19.72427 z"
         transform="scale(-1,1)" />
      <path
         style="fill:none;stroke:#000000;stroke-width:0.264583px;stroke-linecap:butt;stroke-linejoin:miter;stroke-opacity:1"
         d="m 27.33572,92.067284 c 0,0 -0.29766,-6.51537 4.63021,-12.63386 4.92786,-6.11849 9.32656,-5.82083 9.32656,-10.28568"
         id="path854" />
      <path
         style="fill:none;stroke:#000000;stroke-width:0.264583px;stroke-linecap:butt;stroke-linejoin:miter;stroke-opacity:1"
         d="m 66.73877,92.083814 c 0,0 0.29766,-6.51536 -4.63021,-12.63385 C 57.1807,73.331474 52.782,73.629134 52.782,69.164284"
         id="path856" />
    </g>
    <g
       id="g958"
       transform="matrix(0.89626822,0,0,0.89626822,56.889673,10.848017)">
      <path
         style="fill:#cccccc;fill-rule:evenodd;stroke:none;stroke-width:0.1;stroke-miterlimit:4;stroke-dasharray:none"
         id="path940"
         sodipodi:type="arc"
         sodipodi:cx="47.063805"
         sodipodi:cy="34.867363"
         sodipodi:rx="19.72427"
         sodipodi:ry="19.72427"
         sodipodi:start="0"
         sodipodi:end="3.1415927"
         sodipodi:arc-type="slice"
         d="m 66.788074,34.867363 a 19.72427,19.72427 0 0 1 -9.862135,17.081719 19.72427,19.72427 0 0 1 -19.72427,-10e-7 19.72427,19.72427 0 0 1 -9.862134,-17.081718 h 19.72427 z" />
      <path
         style="fill:#ff0000;fill-rule:evenodd;stroke-width:0.264583"
         id="path942"
         sodipodi:type="arc"
         sodipodi:cx="-47.063805"
         sodipodi:cy="-34.867363"
         sodipodi:rx="19.72427"
         sodipodi:ry="19.72427"
         sodipodi:start="0"
         sodipodi:end="3.1415927"
         sodipodi:arc-type="slice"
         d="m -27.339535,-34.867363 a 19.72427,19.72427 0 0 1 -9.862135,17.081719 19.72427,19.72427 0 0 1 -19.72427,-10e-7 19.72427,19.72427 0 0 1 -9.862134,-17.081718 h 19.724269 z"
         transform="scale(-1)" />
      <path
         style="fill:none;stroke:#000000;stroke-width:0.264583px;stroke-linecap:butt;stroke-linejoin:miter;stroke-opacity:1"
         d="m 27.33122,34.867672 c 0,0 -0.29766,6.515365 4.63021,12.633854 4.92786,6.11849 9.32656,5.820834 9.32656,10.285681"
         id="path944" />
      <path
         style="fill:none;stroke:#000000;stroke-width:0.264583px;stroke-linecap:butt;stroke-linejoin:miter;stroke-opacity:1"
         d="m 66.73427,34.851137 c 0,0 0.29766,6.515362 -4.6302,12.633851 -4.92787,6.118493 -9.32657,5.820833 -9.32657,10.285679"
         id="path946" />
      <rect
         style="fill:#cccccc;stroke:none;stroke-width:0.100513;stroke-miterlimit:4;stroke-dasharray:none"
         id="rect948"
         width="11.494013"
         height="11.377083"
         x="41.287994"
         y="57.787209" />
      <path
         style="fill:#cccccc;fill-rule:evenodd;stroke:none;stroke-width:0.1;stroke-miterlimit:4;stroke-dasharray:none"
         id="path950"
         sodipodi:type="arc"
         sodipodi:cx="47.068291"
         sodipodi:cy="-92.067619"
         sodipodi:rx="19.72427"
         sodipodi:ry="19.72427"
         sodipodi:start="0"
         sodipodi:end="3.1415927"
         sodipodi:arc-type="slice"
         d="m 66.792561,-92.067619 a 19.72427,19.72427 0 0 1 -9.862136,17.081719 19.72427,19.72427 0 0 1 -19.72427,-10e-7 19.72427,19.72427 0 0 1 -9.862134,-17.081718 h 19.72427 z"
         transform="scale(1,-1)" />
      <path
         style="fill:#ff0000;fill-rule:evenodd;stroke-width:0.264583"
         id="path952"
         sodipodi:type="arc"
         sodipodi:cx="-47.068291"
         sodipodi:cy="92.067619"
         sodipodi:rx="19.72427"
         sodipodi:ry="19.72427"
         sodipodi:start="0"
         sodipodi:end="3.1415927"
         sodipodi:arc-type="slice"
         d="m -27.344021,92.067619 a 19.72427,19.72427 0 0 1 -9.862135,17.081721 19.72427,19.72427 0 0 1 -19.72427,0 19.72427,19.72427 0 0 1 -9.862135,-17.081721 h 19.72427 z"
         transform="scale(-1,1)" />
      <path
         style="fill:none;stroke:#000000;stroke-width:0.264583px;stroke-linecap:butt;stroke-linejoin:miter;stroke-opacity:1"
         d="m 27.33572,92.067284 c 0,0 -0.29766,-6.51537 4.63021,-12.63386 4.92786,-6.11849 9.32656,-5.82083 9.32656,-10.28568"
         id="path954" />
      <path
         style="fill:none;stroke:#000000;stroke-width:0.264583px;stroke-linecap:butt;stroke-linejoin:miter;stroke-opacity:1"
         d="m 66.73877,92.083814 c 0,0 0.29766,-6.51536 -4.63021,-12.63385 C 57.1807,73.331474 52.782,73.629134 52.782,69.164284"
         id="path956" />
    </g>
  </g>
</svg>
