<?xml version="1.0" encoding="UTF-8" standalone="no"?>
<svg
   xmlns:osb="http://www.openswatchbook.org/uri/2009/osb"
   xmlns:dc="http://purl.org/dc/elements/1.1/"
   xmlns:cc="http://creativecommons.org/ns#"
   xmlns:rdf="http://www.w3.org/1999/02/22-rdf-syntax-ns#"
   xmlns:svg="http://www.w3.org/2000/svg"
   xmlns="http://www.w3.org/2000/svg"
   xmlns:sodipodi="http://sodipodi.sourceforge.net/DTD/sodipodi-0.dtd"
   xmlns:inkscape="http://www.inkscape.org/namespaces/inkscape"
   width="210mm"
   height="297mm"
   viewBox="0 0 210 297"
   version="1.1"
   id="svg8"
   inkscape:version="1.0.2 (e86c870879, 2021-01-15, custom)"
   sodipodi:docname="PASSPORT HOLDER.svg">
  <defs
     id="defs2">
    <inkscape:path-effect
       effect="powerstroke"
       id="path-effect7489"
       is_visible="true"
       offset_points="0,0.13229166"
       sort_points="true"
       interpolator_type="CubicBezierJohan"
       interpolator_beta="0.2"
       start_linecap_type="zerowidth"
       linejoin_type="extrp_arc"
       miter_limit="4"
       end_linecap_type="zerowidth" />
    <inkscape:path-effect
       effect="powerstroke"
       id="path-effect7485"
       is_visible="true"
       offset_points="0,0.13229166"
       sort_points="true"
       interpolator_type="CubicBezierJohan"
       interpolator_beta="0.2"
       start_linecap_type="zerowidth"
       linejoin_type="extrp_arc"
       miter_limit="4"
       end_linecap_type="zerowidth" />
    <inkscape:path-effect
       effect="powerstroke"
       id="path-effect7481"
       is_visible="true"
       offset_points="0,0.13229166"
       sort_points="true"
       interpolator_type="CubicBezierJohan"
       interpolator_beta="0.2"
       start_linecap_type="zerowidth"
       linejoin_type="extrp_arc"
       miter_limit="4"
       end_linecap_type="zerowidth" />
    <inkscape:path-effect
       effect="powerstroke"
       id="path-effect7471"
       is_visible="true"
       offset_points="0,0.13229166"
       sort_points="true"
       interpolator_type="CubicBezierJohan"
       interpolator_beta="0.2"
       start_linecap_type="zerowidth"
       linejoin_type="extrp_arc"
       miter_limit="4"
       end_linecap_type="zerowidth" />
    <inkscape:path-effect
       effect="bspline"
       id="path-effect7447"
       is_visible="true"
       weight="33.333333"
       steps="2"
       helper_size="0"
       apply_no_weight="true"
       apply_with_weight="true"
       only_selected="false" />
    <marker
       inkscape:stockid="Arrow2Lstart"
       orient="auto"
       refY="0.0"
       refX="0.0"
       id="Arrow2Lstart"
       style="overflow:visible"
       inkscape:isstock="true">
      <path
         id="path7011"
         style="fill-rule:evenodd;stroke-width:0.62500000;stroke-linejoin:round"
         d="M 8.7185878,4.0337352 L -2.2072895,0.016013256 L 8.7185884,-4.0017078 C 6.9730900,-1.6296469 6.9831476,1.6157441 8.7185878,4.0337352 z "
         transform="scale(1.1) translate(1,0)" />
    </marker>
    <linearGradient
       id="linearGradient6983"
       osb:paint="solid">
      <stop
         style="stop-color:#936464;stop-opacity:1;"
         offset="0"
         id="stop6981" />
    </linearGradient>
    <linearGradient
       id="linearGradient6923"
       osb:paint="solid">
      <stop
         style="stop-color:#ffffff;stop-opacity:1;"
         offset="0"
         id="stop6921" />
    </linearGradient>
    <linearGradient
       id="linearGradient6261"
       osb:paint="solid">
      <stop
         style="stop-color:#ffffff;stop-opacity:1;"
         offset="0"
         id="stop6259" />
    </linearGradient>
  </defs>
  <sodipodi:namedview
     id="base"
     pagecolor="#ffffff"
     bordercolor="#666666"
     borderopacity="1.0"
     inkscape:pageopacity="0.0"
     inkscape:pageshadow="2"
     inkscape:zoom="0.17500001"
     inkscape:cx="-637.76121"
     inkscape:cy="63.524444"
     inkscape:document-units="mm"
     inkscape:current-layer="layer1"
     showgrid="false"
     inkscape:snap-grids="false"
     inkscape:snap-to-guides="true"
     inkscape:snap-page="false"
     showguides="true"
     inkscape:window-width="1920"
     inkscape:window-height="1017"
     inkscape:window-x="-8"
     inkscape:window-y="-8"
     inkscape:window-maximized="1"
     inkscape:guide-bbox="true"
     inkscape:document-rotation="0">
    <inkscape:grid
       type="xygrid"
       id="grid8048" />
  </sodipodi:namedview>
  <metadata
     id="metadata5">
    <rdf:RDF>
      <cc:Work
         rdf:about="">
        <dc:format>image/svg+xml</dc:format>
        <dc:type
           rdf:resource="http://purl.org/dc/dcmitype/StillImage" />
        <dc:title />
      </cc:Work>
    </rdf:RDF>
  </metadata>
  <g
     inkscape:label="Layer 1"
     inkscape:groupmode="layer"
     id="layer1"
     style="opacity:1">
    <rect
       style="opacity:1;fill:#a64242;fill-opacity:1;stroke:#000000;stroke-width:0.3;stroke-linecap:square;stroke-linejoin:miter;stroke-miterlimit:4.9;stroke-dasharray:none;stroke-dashoffset:20.2394;stroke-opacity:1;paint-order:markers stroke fill"
       id="rect8144"
       width="229.49263"
       height="111.02896"
       x="-1359.2864"
       y="23.711935" />
    <g
       id="g8174"
       transform="translate(-1354.8398,46.574627)"
       style="stroke-width:0.3;stroke-linejoin:miter;stroke-miterlimit:4.9;stroke-dasharray:none">
      <rect
         ry="4.7247024"
         y="116.07255"
         x="115.90587"
         height="55.000004"
         width="85.000008"
         id="rect8146-1"
         style="opacity:1;fill:#00ffff;fill-opacity:1;stroke:#000000;stroke-width:0.3;stroke-linecap:square;stroke-linejoin:miter;stroke-miterlimit:4.9;stroke-dasharray:none;stroke-dashoffset:20.2394;stroke-opacity:1;paint-order:markers stroke fill" />
      <path
         sodipodi:nodetypes="cccccccccczzzcc"
         inkscape:connector-curvature="0"
         id="path7896-5-2-3-3-4"
         d="m 108.80618,126.64267 v 15.13226 h 9.73222 l 10.26811,36.6174 h 29.99972 30.00024 l 10.25416,-36.6174 h 9.74565 v -15.13226 l -12.5,-8e-5 c 0,0 -5.7809,-0.14637 -12.16593,0.86856 -6.38505,1.01493 -17.13202,6.44737 -25.80659,6.42478 -8.67458,-0.0226 -18.28027,-5.72016 -24.52755,-6.6934 -6.24729,-0.97324 -12.50002,-0.53382 -12.50002,-0.53382 z"
         style="opacity:1;fill:#a64242;fill-opacity:1;stroke:#000000;stroke-width:0.3;stroke-linecap:butt;stroke-linejoin:miter;stroke-miterlimit:4.9;stroke-dasharray:none;stroke-opacity:1" />
    </g>
    <path
       style="opacity:1;fill:none;fill-opacity:1;stroke:#000000;stroke-width:0.3;stroke-linecap:butt;stroke-linejoin:miter;stroke-miterlimit:4.9;stroke-dasharray:none;stroke-opacity:1"
       d="m -652.46211,-80.194613 v 15.12209 h 11.14 l 11.7534,36.59281 h 34.3392 34.33982 l 11.73744,-36.59281 h 11.15537 v -15.12209 l -14.30816,-8e-5 c 0,0 -6.61709,-0.14627 -13.92573,0.86798 -7.30865,1.01425 -19.61018,6.44304 -29.53954,6.42046 -9.92938,-0.0226 -20.92454,-5.71631 -28.07549,-6.6889 -7.15096,-0.97259 -14.30816,-0.53346 -14.30816,-0.53346 z"
       id="path7896-5-2-3-3"
       inkscape:connector-curvature="0"
       sodipodi:nodetypes="cccccccccczzzcc" />
    <path
       style="opacity:1;fill:none;fill-opacity:1;stroke:#000000;stroke-width:0.3;stroke-linecap:butt;stroke-linejoin:miter;stroke-miterlimit:4.9;stroke-dasharray:none;stroke-dashoffset:20.2394;stroke-opacity:1;paint-order:markers stroke fill"
       d="m -477.92723,-76.995693 c -2.68315,-0.0118 -4.47226,0.0981 -4.47226,0.0981 l -14.30791,-0.0661 v 15.108 h 5.8e-4 v 36.55881 h 22.89219 v 4.6e-4 h 34.33888 34.33947 v -5.2e-4 h 22.89219 v -36.55881 h 5.9e-4 v -15.10792 h -14.30791 c 0,0 -6.6171,-0.14627 -13.92567,0.86705 -7.30859,1.01332 -19.60979,6.43733 -29.53905,6.41477 -9.92928,-0.0226 -20.92456,-5.71109 -28.07545,-6.68279 -3.57545,-0.48585 -7.15251,-0.61926 -9.83565,-0.63105 z"
       id="rect854-3"
       inkscape:connector-curvature="0" />
    <g
       id="g920"
       transform="translate(-1353.1714,-107.66889)"
       style="stroke-width:0.3;stroke-miterlimit:4.9;stroke-dasharray:none">
      <path
         sodipodi:nodetypes="cccccccccczzzcc"
         inkscape:connector-curvature="0"
         id="path7896-5"
         d="m -6.3690811,145.52611 v 15.13226 h 9.73222 l 10.2681101,36.6174 h 29.99972 30.00024 l 10.25415,-36.6174 h 9.74566 v -15.13226 l -12.50001,-8e-5 c 0,0 -5.78089,-0.14637 -12.16593,0.86856 -6.38504,1.01493 -17.13201,6.44737 -25.80658,6.42478 -8.67458,-0.0226 -18.28027,-5.72016 -24.52756,-6.6934 -6.24729,-0.97324 -12.5000101,-0.53382 -12.5000101,-0.53382 z"
         style="opacity:1;fill:#a64242;fill-opacity:1;stroke:#000000;stroke-width:0.3;stroke-linecap:butt;stroke-linejoin:miter;stroke-miterlimit:4.9;stroke-dasharray:none;stroke-opacity:1" />
      <path
         sodipodi:nodetypes="cccccccccczzzcc"
         inkscape:connector-curvature="0"
         id="path7896-5-2"
         d="m -6.3690911,160.65837 v 15.13226 h 9.73222 l 10.2681101,36.6174 h 29.99972 30.00025 l 10.25415,-36.6174 h 9.74567 v -15.13226 l -12.50003,-8e-5 c 0,0 -5.78088,-0.14637 -12.16591,0.86856 -6.38505,1.01493 -17.13202,6.44737 -25.8066,6.42478 -8.67458,-0.0226 -18.28027,-5.72016 -24.52755,-6.6934 -6.24729,-0.97324 -12.5000201,-0.53382 -12.5000201,-0.53382 z"
         style="opacity:1;fill:#a64242;fill-opacity:1;stroke:#000000;stroke-width:0.3;stroke-linecap:butt;stroke-linejoin:miter;stroke-miterlimit:4.9;stroke-dasharray:none;stroke-opacity:1" />
      <path
         sodipodi:nodetypes="cccccccccczzzcc"
         inkscape:connector-curvature="0"
         id="path7896-5-2-3"
         d="m -6.3690911,175.79063 v 15.13226 h 9.73222 l 10.2681101,36.6174 h 29.99972 30.00025 l 10.25415,-36.6174 h 9.74567 v -15.13226 l -12.50003,-8e-5 c 0,0 -5.78088,-0.14637 -12.16591,0.86856 -6.38505,1.01493 -17.13202,6.44737 -25.8066,6.42478 -8.67458,-0.0226 -18.28027,-5.72016 -24.52755,-6.6934 -6.24729,-0.97324 -12.5000201,-0.53382 -12.5000201,-0.53382 z"
         style="opacity:1;fill:#a64242;fill-opacity:1;stroke:#000000;stroke-width:0.3;stroke-linecap:butt;stroke-linejoin:miter;stroke-miterlimit:4.9;stroke-dasharray:none;stroke-opacity:1" />
      <path
         inkscape:connector-curvature="0"
         id="rect854-3-5"
         d="m 10.205874,190.67856 c -2.3323902,-0.0118 -3.8876202,0.0982 -3.8876202,0.0982 l -12.43748,-0.0661 v 15.11846 h 5.1e-4 v 36.58432 H 13.780844 v 5.3e-4 h 29.84987 29.85036 v -5.3e-4 h 19.89957 v -36.58438 h 5.2e-4 V 190.7106 h -12.43748 c 0,0 -5.75207,-0.14637 -12.10521,0.86765 -6.35316,1.01403 -17.04627,6.44182 -25.67751,6.41925 -8.63125,-0.0226 -18.18914,-5.71508 -24.40523,-6.68745 -3.10804,-0.48619 -6.21748,-0.6197 -8.54986,-0.63149 z"
         style="opacity:1;fill:#d35f5f;fill-opacity:1;stroke:#000000;stroke-width:0.3;stroke-linecap:butt;stroke-linejoin:miter;stroke-miterlimit:4.9;stroke-dasharray:none;stroke-dashoffset:20.2394;stroke-opacity:1;paint-order:markers stroke fill" />
    </g>
    <g
       id="g926"
       transform="translate(-1346.0373,-107.90017)"
       style="stroke-width:0.3;stroke-miterlimit:4.9;stroke-dasharray:none">
      <path
         sodipodi:nodetypes="cccccccccczzzcc"
         inkscape:connector-curvature="0"
         id="path7896-5-1"
         d="m 116.49384,145.54148 v 15.13226 h 9.73222 l 10.26811,36.6174 h 29.99972 30.00024 l 10.25415,-36.6174 h 9.74566 v -15.13226 l -12.50001,-8e-5 c 0,0 -5.78089,-0.14637 -12.16593,0.86856 -6.38504,1.01493 -17.13201,6.44737 -25.80658,6.42478 -8.67458,-0.0226 -18.28027,-5.72016 -24.52756,-6.6934 -6.24729,-0.97324 -12.50001,-0.53382 -12.50001,-0.53382 z"
         style="opacity:1;fill:#a64242;fill-opacity:1;stroke:#000000;stroke-width:0.3;stroke-linecap:butt;stroke-linejoin:miter;stroke-miterlimit:4.9;stroke-dasharray:none;stroke-opacity:1" />
      <path
         sodipodi:nodetypes="cccccccccczzzcc"
         inkscape:connector-curvature="0"
         id="path7896-5-2-4"
         d="M 116.49384,160.67374 V 175.806 h 9.73222 l 10.26811,36.6174 h 29.99972 30.00024 l 10.25416,-36.6174 h 9.74565 v -15.13226 l -12.50001,-8e-5 c 0,0 -5.78089,-0.14637 -12.16592,0.86856 -6.38505,1.01493 -17.13202,6.44737 -25.80659,6.42478 -8.67458,-0.0226 -18.28027,-5.72016 -24.52755,-6.6934 -6.24729,-0.97324 -12.50002,-0.53382 -12.50002,-0.53382 z"
         style="opacity:1;fill:#a64242;fill-opacity:1;stroke:#000000;stroke-width:0.3;stroke-linecap:butt;stroke-linejoin:miter;stroke-miterlimit:4.9;stroke-dasharray:none;stroke-opacity:1" />
      <path
         sodipodi:nodetypes="cccccccccczzzcc"
         inkscape:connector-curvature="0"
         id="path7896-5-2-3-45"
         d="m 116.49384,175.806 v 15.13226 h 9.73222 l 10.26811,36.61741 h 29.99972 30.00024 l 10.25416,-36.61741 h 9.74565 V 175.806 l -12.50001,-8e-5 c 0,0 -5.78089,-0.14637 -12.16592,0.86856 -6.38505,1.01493 -17.13202,6.44738 -25.80659,6.42478 -8.67458,-0.0226 -18.28027,-5.72015 -24.52755,-6.6934 -6.24729,-0.97324 -12.50002,-0.53382 -12.50002,-0.53382 z"
         style="opacity:1;fill:#a64242;fill-opacity:1;stroke:#000000;stroke-width:0.3;stroke-linecap:butt;stroke-linejoin:miter;stroke-miterlimit:4.9;stroke-dasharray:none;stroke-opacity:1" />
      <path
         inkscape:connector-curvature="0"
         id="rect854-3-5-2"
         d="m 133.06879,190.90616 c -2.33239,-0.0118 -3.88762,0.0982 -3.88762,0.0982 l -12.43748,-0.0661 v 15.11846 h 5.1e-4 v 36.58432 h 19.89956 v 5.3e-4 h 29.84987 29.85036 v -5.3e-4 h 19.89957 v -36.58438 h 5.3e-4 V 190.9382 h -12.43748 c 0,0 -5.75207,-0.14637 -12.10521,0.86765 -6.35317,1.01403 -17.04628,6.44182 -25.67752,6.41925 -8.63125,-0.0226 -18.18914,-5.71508 -24.40523,-6.68745 -3.10804,-0.48619 -6.21748,-0.6197 -8.54986,-0.63149 z"
         style="opacity:1;fill:#d35f5f;fill-opacity:1;stroke:#000000;stroke-width:0.3;stroke-linecap:butt;stroke-linejoin:miter;stroke-miterlimit:4.9;stroke-dasharray:none;stroke-dashoffset:20.2394;stroke-opacity:1;paint-order:markers stroke fill" />
    </g>
    <path
       style="opacity:1;fill:none;fill-opacity:1;stroke:#000000;stroke-width:0.3;stroke-linecap:square;stroke-linejoin:miter;stroke-miterlimit:4.9;stroke-dasharray:none;stroke-dashoffset:20.2394;stroke-opacity:1;paint-order:markers stroke fill"
       d="m -638.48774,-229.30405 v 110.99731 h 259.46043 v -110.99731 z m 122.33572,7.99362 h 14.78842 c 3.67964,0 6.64228,2.61971 6.64228,5.87342 v 83.26322 c 0,3.25372 -2.96264,5.87342 -6.64228,5.87342 h -14.78842 c -3.67965,0 -6.64171,-2.6197 -6.64171,-5.87342 v -83.26322 c 0,-3.25371 2.96206,-5.87342 6.64171,-5.87342 z"
       id="rect8144-5"
       inkscape:connector-curvature="0" />
    <path
       style="opacity:1;fill:#a64242;fill-opacity:1;stroke:#000000;stroke-width:0.3;stroke-linecap:butt;stroke-linejoin:miter;stroke-miterlimit:4.9;stroke-dasharray:none;stroke-opacity:1"
       d="m -1275.9793,-276.27804 h -15.1322 v 9.73222 l -36.6174,10.26811 v 29.99971 30.00025 l 36.6174,10.25417 v 9.74564 h 15.1322 l 10e-5,-12.5 c 0,0 0.1464,-5.7809 -0.8685,-12.16593 -1.015,-6.38505 -6.4474,-17.13202 -6.4248,-25.80659 0.023,-8.67458 5.7201,-18.28028 6.6934,-24.52755 0.9732,-6.24729 0.5338,-12.50002 0.5338,-12.50002 z"
       id="path7896-5-2-3-3-5"
       inkscape:connector-curvature="0"
       sodipodi:nodetypes="cccccccccczzzcc" />
    <path
       style="opacity:1;fill:#d35f5f;fill-opacity:1;stroke:#000000;stroke-width:0.3;stroke-linecap:butt;stroke-linejoin:miter;stroke-miterlimit:4.9;stroke-dasharray:none;stroke-dashoffset:20.2394;stroke-opacity:1;paint-order:markers stroke fill"
       d="m -1274.5754,-104.16167 c 0.012,-2.3324 -0.098,-3.88762 -0.098,-3.88762 l 0.066,-12.43749 h -15.1184 v 5.3e-4 h -36.5843 v 19.89956 h -5e-4 v 29.849857 29.85037 h 5e-4 v 19.89956 h 36.5843 v 5.3e-4 h 15.1185 v -12.43748 c 0,0 0.1464,-5.75206 -0.8676,-12.1052 -1.0141,-6.35317 -6.4419,-17.04627 -6.4193,-25.67751 0.023,-8.63125 5.7151,-18.18915 6.6875,-24.40523 0.4861,-3.10803 0.6197,-6.217477 0.6314,-8.549857 z"
       id="rect854-3-4"
       inkscape:connector-curvature="0" />
    <path
       style="opacity:1;fill:#a64242;fill-opacity:1;stroke:#000000;stroke-width:0.3;stroke-linecap:square;stroke-linejoin:miter;stroke-miterlimit:4.9;stroke-dasharray:none;stroke-dashoffset:20.2394;stroke-opacity:1;paint-order:markers stroke fill"
       d="m -1147.5536,-269.25107 h -111.0289 v 229.492427 h 111.0289 z m -7.9959,108.20578 v 13.08034 c 0,3.25464 -2.6205,5.87509 -5.8751,5.87509 h -83.2869 c -3.2547,0 -5.8751,-2.62045 -5.8751,-5.87509 v -13.08034 c 0,-3.25464 2.6204,-5.87457 5.8751,-5.87457 h 83.2869 c 3.2546,0 5.8751,2.61993 5.8751,5.87457 z"
       id="rect8144-5-3"
       inkscape:connector-curvature="0" />
    <text
       xml:space="preserve"
       style="font-style:normal;font-weight:normal;font-size:10.5833px;line-height:1.25;font-family:sans-serif;letter-spacing:0px;word-spacing:0px;fill:#000000;fill-opacity:1;stroke:none;stroke-width:0.3;stroke-miterlimit:4.9;stroke-dasharray:none"
       x="-577.19202"
       y="-314.22928"
       id="text885"
       inkscape:transform-center-x="183.98768"
       inkscape:transform-center-y="-58.984344"><tspan
         sodipodi:role="line"
         x="-577.19202"
         y="-314.22928"
         style="stroke-width:0.3;stroke-miterlimit:4.9;stroke-dasharray:none"
         id="tspan887">RESIZED TO - 115mm</tspan></text>
    <path
       id="rect8144-5-0"
       style="opacity:1;fill:#c87137;fill-opacity:1;stroke:#000000;stroke-width:0.3;stroke-linecap:square;stroke-linejoin:miter;stroke-miterlimit:4.9;stroke-dasharray:none;stroke-dashoffset:20.2394;stroke-opacity:1;paint-order:markers stroke fill"
       d="M -660.3343,56.644037 V 167.64138 h 259.46065 V 56.644037 Z m 122.33569,7.9933 h 14.78877 c 3.67964,0 6.64197,2.61983 6.64197,5.87354 v 83.263133 c 0,3.25374 -2.96233,5.87356 -6.64197,5.87356 h -14.78877 c -3.67965,0 -6.64146,-2.61982 -6.64146,-5.87356 V 70.510877 c 0,-3.25371 2.96181,-5.87354 6.64146,-5.87354 z M -638.62193,118.6516 h 71.03598 l -1.17771,3.67163 h -34.34002 -34.33899 z m -0.13539,14.69988 h 71.30676 l -1.3131,4.09382 h -34.34002 -34.33899 z m -0.0739,14.89316 h 71.45404 l -1.38648,4.32274 h -34.34002 -34.33899 z" />
    <path
       style="opacity:0.6;fill:#552200;fill-opacity:1;stroke:#000000;stroke-width:0.3;stroke-linecap:butt;stroke-linejoin:miter;stroke-miterlimit:4.9;stroke-dasharray:none;stroke-opacity:1"
       d="m -660.33608,70.608297 v 15.12209 h 11.14 l 11.7534,36.592813 h 34.3392 34.33982 l 11.73744,-36.592813 h 11.15537 v -15.12209 l -14.30816,-8e-5 c 0,0 -6.61709,-0.14627 -13.92573,0.86798 -7.30865,1.01425 -19.61018,6.44304 -29.53954,6.42046 -9.92938,-0.0226 -20.92454,-5.71631 -28.07549,-6.6889 -7.15096,-0.97259 -14.30816,-0.53346 -14.30816,-0.53346 z"
       id="path7896-5-2-3-3-1-0-3"
       inkscape:connector-curvature="0"
       sodipodi:nodetypes="cccccccccczzzcc" />
    <path
       style="opacity:0.6;fill:#803300;fill-opacity:1;stroke:#000000;stroke-width:0.3;stroke-linecap:butt;stroke-linejoin:miter;stroke-miterlimit:4.9;stroke-dasharray:none;stroke-opacity:1"
       d="m -660.33608,85.730387 v 15.122093 h 11.14 l 11.7534,36.59281 h 34.3392 34.33982 l 11.73744,-36.59281 h 11.15537 V 85.730387 l -14.30816,-8e-5 c 0,0 -6.61709,-0.14627 -13.92573,0.86798 -7.30865,1.01425 -19.61018,6.44304 -29.53954,6.42046 -9.92938,-0.0226 -20.92454,-5.71631 -28.07549,-6.6889 -7.15096,-0.97259 -14.30816,-0.53346 -14.30816,-0.53346 z"
       id="path7896-5-2-3-3-1-0"
       inkscape:connector-curvature="0"
       sodipodi:nodetypes="cccccccccczzzcc" />
    <path
       style="opacity:0.6;fill:#d45500;fill-opacity:1;stroke:#000000;stroke-width:0.3;stroke-linecap:butt;stroke-linejoin:miter;stroke-miterlimit:4.9;stroke-dasharray:none;stroke-opacity:1"
       d="m -660.33608,100.85248 v 15.12209 h 11.14 l 11.7534,36.59281 h 34.3392 34.33982 l 11.73744,-36.59281 h 11.15537 v -15.12209 l -14.30816,-8e-5 c 0,0 -6.61709,-0.14627 -13.92573,0.86798 -7.30865,1.01425 -19.61018,6.44304 -29.53954,6.42046 -9.92938,-0.0226 -20.92454,-5.71631 -28.07549,-6.6889 -7.15096,-0.97259 -14.30816,-0.53346 -14.30816,-0.53346 z"
       id="path7896-5-2-3-3-1"
       inkscape:connector-curvature="0"
       sodipodi:nodetypes="cccccccccczzzcc" />
    <path
       style="opacity:0.6;fill:#ff9955;fill-opacity:1;stroke:#000000;stroke-width:0.3;stroke-linecap:butt;stroke-linejoin:miter;stroke-miterlimit:4.9;stroke-dasharray:none;stroke-dashoffset:20.2394;stroke-opacity:1;paint-order:markers stroke fill"
       d="m -641.55457,115.94255 c -2.68316,-0.0118 -4.47227,0.0981 -4.47227,0.0981 l -14.30791,-0.0661 v 15.108 h 5.8e-4 v 36.55881 h 22.8922 v 4.6e-4 h 34.33887 34.33947 v -5.2e-4 h 22.89219 v -36.55881 h 5.9e-4 v -15.10792 h -14.30791 c 0,0 -6.6171,-0.14627 -13.92567,0.86705 -7.30859,1.01332 -19.60979,6.43733 -29.53905,6.41477 -9.92928,-0.0226 -20.92455,-5.71109 -28.07544,-6.68279 -3.57545,-0.48585 -7.15251,-0.61926 -9.83565,-0.63105 z"
       id="rect854-3-57"
       inkscape:connector-curvature="0" />
    <text
       xml:space="preserve"
       style="font-style:normal;font-weight:normal;font-size:10.5833px;line-height:1.25;font-family:sans-serif;letter-spacing:0px;word-spacing:0px;fill:#000000;fill-opacity:1;stroke:none;stroke-width:0.3;stroke-miterlimit:4.9;stroke-dasharray:none"
       x="-1280.5751"
       y="-312.62201"
       id="text885-2"
       inkscape:transform-center-x="-447.86118"
       inkscape:transform-center-y="-70.633514"><tspan
         sodipodi:role="line"
         x="-1280.5751"
         y="-312.62201"
         style="stroke-width:0.3;stroke-miterlimit:4.9;stroke-dasharray:none"
         id="tspan951">SIZED TO - 100mm  {FOR SOFTER LEATHER}</tspan></text>
    <path
       style="opacity:1;fill:none;fill-opacity:1;stroke:#000000;stroke-width:0.3;stroke-linecap:butt;stroke-linejoin:miter;stroke-miterlimit:4.9;stroke-dasharray:none;stroke-opacity:1"
       d="m -953.94799,-76.993243 v 15.12552 h 10.65453 l 11.2412,36.6011 h 32.84273 32.84333 l 11.22594,-36.6011 h 10.66923 v -15.12552 l -13.68463,-8e-5 c 0,0 -6.32872,-0.1463 -13.31886,0.86818 -6.99015,1.01448 -18.75559,6.4445 -28.25224,6.42191 -9.49667,-0.0226 -20.01267,-5.7176 -26.85199,-6.69041 -6.83933,-0.97281 -13.68462,-0.53358 -13.68462,-0.53358 z"
       id="path892"
       inkscape:connector-curvature="0"
       sodipodi:nodetypes="cccccccccczzzcc" />
    <path
       style="opacity:1;fill:none;fill-opacity:1;stroke:#000000;stroke-width:0.3;stroke-linecap:butt;stroke-linejoin:miter;stroke-miterlimit:4.9;stroke-dasharray:none;stroke-dashoffset:20.2394;stroke-opacity:1;paint-order:markers stroke fill"
       d="m -795.19864,-78.070653 c -2.56622,-0.0118 -4.27736,0.0981 -4.27736,0.0981 l -13.68439,-0.0661 v 15.11144 h 5.6e-4 v 36.56712 h 21.89457 v 4.6e-4 h 32.84242 32.84298 v -5.2e-4 h 21.89457 v -36.56712 h 5.6e-4 v -15.11136 h -13.68438 c 0,0 -6.32873,-0.1463 -13.3188,0.86725 -6.99009,1.01355 -18.75521,6.43879 -28.25176,6.41623 -9.49657,-0.0226 -20.01269,-5.71239 -26.85195,-6.68431 -3.41963,-0.48596 -6.84081,-0.6194 -9.40702,-0.6312 z"
       id="path894"
       inkscape:connector-curvature="0" />
    <path
       style="opacity:1;fill:none;fill-opacity:1;stroke:#000000;stroke-width:0.3;stroke-linecap:square;stroke-linejoin:miter;stroke-miterlimit:4.9;stroke-dasharray:none;stroke-dashoffset:20.2394;stroke-opacity:1;paint-order:markers stroke fill"
       d="m -954.94,-230.37828 v 111.00761 h 249.47074 v -111.00761 z m 117.62557,7.99436 h 14.21904 c 3.53797,0 6.38654,2.61995 6.38654,5.87397 v 83.27095 c 0,3.25402 -2.84857,5.87397 -6.38654,5.87397 h -14.21904 c -3.53798,0 -6.38599,-2.61995 -6.38599,-5.87397 v -83.27095 c 0,-3.25402 2.84801,-5.87397 6.38599,-5.87397 z"
       id="path896"
       inkscape:connector-curvature="0" />
    <text
       xml:space="preserve"
       style="font-style:normal;font-weight:normal;font-size:10.5833px;line-height:1.25;font-family:sans-serif;letter-spacing:0px;word-spacing:0px;fill:#000000;fill-opacity:1;stroke:none;stroke-width:0.3;stroke-miterlimit:4.9;stroke-dasharray:none"
       x="-577.19202"
       y="-314.22928"
       id="text912"
       inkscape:transform-center-x="183.98768"
       inkscape:transform-center-y="-58.984344"><tspan
         sodipodi:role="line"
         x="-577.19202"
         y="-314.22928"
         style="stroke-width:0.3;stroke-miterlimit:4.9;stroke-dasharray:none"
         id="tspan910">RESIZED TO - 115mm</tspan></text>
    <text
       xml:space="preserve"
       style="font-style:normal;font-weight:normal;font-size:10.5833px;line-height:1.25;font-family:sans-serif;letter-spacing:0px;word-spacing:0px;fill:#000000;fill-opacity:1;stroke:none;stroke-width:0.3;stroke-miterlimit:4.9;stroke-dasharray:none"
       x="-872.25757"
       y="-323.85098"
       id="text916"
       inkscape:transform-center-x="183.98768"
       inkscape:transform-center-y="-58.984344"><tspan
         sodipodi:role="line"
         x="-872.25757"
         y="-323.85098"
         style="stroke-width:0.3;stroke-miterlimit:4.9;stroke-dasharray:none"
         id="tspan914">RESIZED TO - 110</tspan><tspan
         sodipodi:role="line"
         x="-872.25757"
         y="-310.62186"
         style="stroke-width:0.3;stroke-miterlimit:4.9;stroke-dasharray:none"
         id="tspan918">mm</tspan></text>
    <path
       id="path943"
       style="opacity:1;fill:#c87137;fill-opacity:1;stroke:#000000;stroke-width:0.3;stroke-linecap:square;stroke-linejoin:miter;stroke-miterlimit:4.9;stroke-dasharray:none;stroke-dashoffset:20.2394;stroke-opacity:1;paint-order:markers stroke fill"
       d="M -947.84548,56.123547 V 167.13119 h 249.47074 V 56.123547 Z m 117.62544,7.99404 h 14.21937 c 3.53796,0 6.38623,2.62007 6.38623,5.87408 v 83.270873 c 0,3.25404 -2.84827,5.8741 -6.38623,5.8741 h -14.21937 c -3.53797,0 -6.38574,-2.62006 -6.38574,-5.8741 V 69.991667 c 0,-3.25401 2.84777,-5.87408 6.38574,-5.87408 z m -96.74906,54.019273 h 68.30091 l -1.13236,3.67198 h -33.01784 -33.01685 z m -0.13017,14.70125 h 68.56126 l -1.26254,4.0942 h -33.01784 -33.01685 z m -0.0711,14.89454 h 68.70287 l -1.33309,4.32314 h -33.01784 -33.01685 z" />
    <path
       style="opacity:0.6;fill:#fff6d5;fill-opacity:1;stroke:#000000;stroke-width:0.3;stroke-linecap:butt;stroke-linejoin:miter;stroke-miterlimit:4.9;stroke-dasharray:none;stroke-opacity:1"
       d="m -947.38234,70.080167 v 15.12552 h 10.65453 l 11.2412,36.601103 h 32.84273 32.84333 l 11.22594,-36.601103 h 10.66923 v -15.12552 l -13.68463,-8e-5 c 0,0 -6.32872,-0.1463 -13.31886,0.86818 -6.99015,1.01448 -18.75559,6.4445 -28.25224,6.42191 -9.49667,-0.0226 -20.01267,-5.7176 -26.85199,-6.69041 -6.83933,-0.97281 -13.68462,-0.53358 -13.68462,-0.53358 z"
       id="path941"
       inkscape:connector-curvature="0"
       sodipodi:nodetypes="cccccccccczzzcc" />
    <path
       style="opacity:0.6;fill:#ffe680;fill-opacity:1;stroke:#000000;stroke-width:0.3;stroke-linecap:butt;stroke-linejoin:miter;stroke-miterlimit:4.9;stroke-dasharray:none;stroke-opacity:1"
       d="m -947.38234,85.205687 v 15.125523 h 10.65453 l 11.2412,36.6011 h 32.84273 32.84333 l 11.22594,-36.6011 h 10.66923 V 85.205687 l -13.68463,-8e-5 c 0,0 -6.32872,-0.1463 -13.31886,0.86818 -6.99015,1.01448 -18.75559,6.4445 -28.25224,6.42191 -9.49667,-0.0226 -20.01267,-5.7176 -26.85199,-6.69041 -6.83933,-0.97281 -13.68462,-0.53358 -13.68462,-0.53358 z"
       id="path939"
       inkscape:connector-curvature="0"
       sodipodi:nodetypes="cccccccccczzzcc" />
    <path
       style="opacity:0.6;fill:#ffd42a;fill-opacity:1;stroke:#000000;stroke-width:0.3;stroke-linecap:butt;stroke-linejoin:miter;stroke-miterlimit:4.9;stroke-dasharray:none;stroke-opacity:1"
       d="m -947.38234,100.33121 v 15.12552 h 10.65453 l 11.2412,36.6011 h 32.84273 32.84333 l 11.22594,-36.6011 h 10.66923 v -15.12552 l -13.68463,-8e-5 c 0,0 -6.32872,-0.1463 -13.31886,0.86818 -6.99015,1.01448 -18.75559,6.4445 -28.25224,6.42191 -9.49667,-0.0226 -20.01267,-5.7176 -26.85199,-6.69041 -6.83933,-0.972813 -13.68462,-0.53358 -13.68462,-0.53358 z"
       id="path933"
       inkscape:connector-curvature="0"
       sodipodi:nodetypes="cccccccccczzzcc" />
    <path
       style="opacity:0.6;fill:#ffcc00;fill-opacity:1;stroke:#000000;stroke-width:0.3;stroke-linecap:butt;stroke-linejoin:miter;stroke-miterlimit:4.9;stroke-dasharray:none;stroke-dashoffset:20.2394;stroke-opacity:1;paint-order:markers stroke fill"
       d="m -929.41929,115.42471 c -2.56622,-0.0118 -4.27736,0.0981 -4.27736,0.0981 l -13.68439,-0.0661 v 15.11144 h 5.6e-4 v 36.56712 h 21.89457 v 4.6e-4 h 32.84242 32.84298 v -5.2e-4 h 21.89457 v -36.56712 h 5.6e-4 v -15.11136 h -13.68438 c 0,0 -6.32873,-0.1463 -13.3188,0.86725 -6.99009,1.01355 -18.75521,6.43879 -28.25176,6.41623 -9.49657,-0.0226 -20.01269,-5.71239 -26.85195,-6.68431 -3.41963,-0.48596 -6.84081,-0.6194 -9.40702,-0.6312 z"
       id="path935"
       inkscape:connector-curvature="0" />
    <g
       id="g927"
       transform="translate(160.01283,19.999357)">
      <path
         id="rect897"
         style="fill:none;fill-rule:evenodd;stroke:#000000;stroke-width:1.00157;paint-order:stroke markers fill"
         d="m 1706.0078,459.75586 v 471.43945 h 168.2168 149.7539 c 5.4546,0 9.8457,-4.39109 9.8457,-9.8457 V 469.60156 c 0,-5.45461 -4.3911,-9.8457 -9.8457,-9.8457 h -149.7539 z"
         transform="scale(0.26458333)" />
      <text
         xml:space="preserve"
         style="font-size:11.2889px;line-height:1.1;font-family:sans-serif;letter-spacing:0px;word-spacing:0px;stroke-width:0.264583"
         x="465.85077"
         y="182.27782"
         id="text921"><tspan
           sodipodi:role="line"
           id="tspan919"
           x="465.85077"
           y="182.27782"
           style="font-size:11.2889px;stroke-width:0.264583">PASSPORT</tspan></text>
    </g>
    <rect
       style="fill:none;fill-rule:evenodd;stroke:#000000;stroke-width:0.264999;stroke-linejoin:miter;stroke-miterlimit:4.9;stroke-dasharray:none;paint-order:stroke markers fill"
       id="rect1032"
       width="114.735"
       height="154.735"
       x="421.63937"
       y="85.18206"
       ry="0" />
    <rect
       style="fill:none;fill-rule:evenodd;stroke:#000000;stroke-width:0.264999;stroke-linejoin:miter;stroke-miterlimit:4.9;stroke-dasharray:none;paint-order:stroke markers fill"
       id="rect1034"
       width="114.735"
       height="154.735"
       x="306.90439"
       y="85.18206"
       ry="0" />
    <rect
       style="opacity:0.51;fill:#ffe680;fill-rule:evenodd;stroke:#000000;stroke-width:0.264999;stroke-linejoin:miter;stroke-miterlimit:4.9;stroke-dasharray:none;paint-order:stroke markers fill"
       id="rect1058"
       width="94.735001"
       height="154.735"
       x="306.90439"
       y="85.18206"
       ry="0" />
    <rect
       style="opacity:0.51;fill:#ff9955;fill-rule:evenodd;stroke:#000000;stroke-width:0.264999;stroke-linejoin:miter;stroke-miterlimit:4.9;stroke-dasharray:none;paint-order:stroke markers fill"
       id="rect1060"
       width="79.735001"
       height="154.735"
       x="306.90439"
       y="85.18206"
       ry="0" />
    <g
       id="g1075"
       transform="translate(-346.22618,19.654761)">
      <rect
         ry="4.7247024"
         y="76.294777"
         x="658.17578"
         height="55"
         width="85"
         id="rect8146"
         style="fill:#00ffff;fill-opacity:1;stroke:#000000;stroke-width:0.3;stroke-linecap:square;stroke-linejoin:miter;stroke-miterlimit:4.9;stroke-dasharray:none;stroke-dashoffset:20.2394;stroke-opacity:1;paint-order:markers stroke fill" />
      <text
         id="text8178"
         y="106.53288"
         x="670.271"
         style="font-style:normal;font-weight:normal;font-size:10.5833px;line-height:1.25;font-family:sans-serif;letter-spacing:0px;word-spacing:0px;fill:#000000;fill-opacity:1;stroke:none;stroke-width:0.3;stroke-linejoin:miter;stroke-miterlimit:4.9;stroke-dasharray:none"
         xml:space="preserve"><tspan
           style="stroke-width:0.3;stroke-linejoin:miter;stroke-miterlimit:4.9;stroke-dasharray:none"
           y="106.53288"
           x="670.271"
           id="tspan8176"
           sodipodi:role="line">85 x 55 mm</tspan></text>
    </g>
    <g
       id="g1080"
       transform="translate(-346.22618,19.654761)">
      <rect
         ry="4.7247024"
         y="154.00945"
         x="658.79413"
         height="55"
         width="85"
         id="rect1036"
         style="fill:#00ffff;fill-opacity:1;stroke:#000000;stroke-width:0.3;stroke-linecap:square;stroke-linejoin:miter;stroke-miterlimit:4.9;stroke-dasharray:none;stroke-dashoffset:20.2394;stroke-opacity:1;paint-order:markers stroke fill" />
      <text
         id="text1040"
         y="184.24754"
         x="670.8894"
         style="font-style:normal;font-weight:normal;font-size:10.5833px;line-height:1.25;font-family:sans-serif;letter-spacing:0px;word-spacing:0px;fill:#000000;fill-opacity:1;stroke:none;stroke-width:0.3;stroke-linejoin:miter;stroke-miterlimit:4.9;stroke-dasharray:none"
         xml:space="preserve"><tspan
           style="stroke-width:0.3;stroke-linejoin:miter;stroke-miterlimit:4.9;stroke-dasharray:none"
           y="184.24754"
           x="670.8894"
           id="tspan1038"
           sodipodi:role="line">85 x 55 mm</tspan></text>
    </g>
    <rect
       style="opacity:0.51;fill:#ff9955;fill-rule:evenodd;stroke:#000000;stroke-width:0.264999;stroke-linejoin:miter;stroke-miterlimit:4.9;stroke-dasharray:none;paint-order:stroke markers fill"
       id="rect1082"
       width="79.735001"
       height="154.735"
       x="456.63937"
       y="85.18206"
       ry="0" />
    <g
       id="g1095"
       transform="translate(-36.615925,172.65611)">
      <g
         id="g935"
         transform="translate(404.27955,-203.69657)" />
      <g
         id="g1108"
         transform="translate(-278.49484,23.519718)">
        <g
           id="g943"
           transform="translate(371.13813,-222.93997)"
           style="opacity:1" />
        <g
           id="g1127"
           transform="translate(-66.94296,-2.2937647)">
          <path
             id="path929"
             style="opacity:1;fill:none;fill-rule:evenodd;stroke:#000000;stroke-width:0.264999;paint-order:stroke markers fill"
             d="m 451.38123,121.64417 v 139.735 h 46.04692 40.99296 c 1.49312,0 2.69512,-1.30152 2.69512,-2.91827 V 124.56244 c 0,-1.61675 -1.202,-2.91827 -2.69512,-2.91827 h -40.99296 z"
             transform="translate(371.13813,-222.93997)" />
          <text
             xml:space="preserve"
             style="font-size:11.2889px;line-height:1.1;font-family:sans-serif;letter-spacing:0px;word-spacing:0px;opacity:1;stroke-width:0.264583"
             x="461.23123"
             y="188.88911"
             id="text933"
             transform="translate(371.13813,-222.93997)"><tspan
               sodipodi:role="line"
               id="tspan931"
               x="461.23123"
               y="188.88911"
               style="font-size:11.2889px;stroke-width:0.264583">MOLESKIN</tspan><tspan
               sodipodi:role="line"
               x="461.23123"
               y="201.3069"
               style="font-size:8.46667px;stroke-width:0.264583"
               id="tspan1112">width 15mm</tspan><tspan
               sodipodi:role="line"
               x="461.23123"
               y="213.7247"
               style="font-size:11.2889px;stroke-width:0.264583"
               id="tspan937" /></text>
          <rect
             style="opacity:0.51;fill:#ff0000;fill-rule:evenodd;stroke:#000000;stroke-width:0.264998;paint-order:stroke markers fill"
             id="rect1084"
             width="4.7350011"
             height="139.735"
             x="893.51569"
             y="-101.08325" />
        </g>
      </g>
    </g>
    <g
       id="g1167"
       transform="translate(134.22931,30.537067)">
      <g
         id="g1147"
         transform="translate(404.27955,-203.69657)" />
      <g
         id="g1165"
         transform="translate(-278.49484,23.519718)">
        <g
           id="g1149"
           transform="translate(371.13813,-222.93997)"
           style="opacity:1" />
        <g
           id="g1163"
           transform="translate(-66.94296,-2.2937647)">
          <path
             id="path1151"
             style="opacity:1;fill:none;fill-rule:evenodd;stroke:#000000;stroke-width:0.264999;paint-order:stroke markers fill"
             d="m 451.38123,121.64417 v 139.735 h 46.04692 40.99296 c 1.49312,0 2.69512,-1.30152 2.69512,-2.91827 V 124.56244 c 0,-1.61675 -1.202,-2.91827 -2.69512,-2.91827 h -40.99296 z"
             transform="translate(371.13813,-222.93997)" />
          <text
             xml:space="preserve"
             style="font-size:11.2889px;line-height:1.1;font-family:sans-serif;letter-spacing:0px;word-spacing:0px;opacity:1;stroke-width:0.264583"
             x="461.23123"
             y="188.88911"
             id="text1159"
             transform="translate(371.13813,-222.93997)"><tspan
               sodipodi:role="line"
               id="tspan1153"
               x="461.23123"
               y="188.88911"
               style="font-size:11.2889px;stroke-width:0.264583">MOLESKIN</tspan><tspan
               sodipodi:role="line"
               x="461.23123"
               y="201.3069"
               style="font-size:8.46667px;stroke-width:0.264583"
               id="tspan1155">width 15mm</tspan><tspan
               sodipodi:role="line"
               x="461.23123"
               y="213.7247"
               style="font-size:11.2889px;stroke-width:0.264583"
               id="tspan1157" /></text>
          <rect
             style="opacity:0.51;fill:#ff0000;fill-rule:evenodd;stroke:#000000;stroke-width:0.264998;paint-order:stroke markers fill"
             id="rect1161"
             width="4.7350011"
             height="139.735"
             x="893.51569"
             y="-101.08325" />
        </g>
      </g>
    </g>
  </g>
</svg>
