<?xml version="1.0" encoding="UTF-8" standalone="no"?>
<svg
   xmlns:osb="http://www.openswatchbook.org/uri/2009/osb"
   xmlns:dc="http://purl.org/dc/elements/1.1/"
   xmlns:cc="http://creativecommons.org/ns#"
   xmlns:rdf="http://www.w3.org/1999/02/22-rdf-syntax-ns#"
   xmlns:svg="http://www.w3.org/2000/svg"
   xmlns="http://www.w3.org/2000/svg"
   xmlns:xlink="http://www.w3.org/1999/xlink"
   xmlns:sodipodi="http://sodipodi.sourceforge.net/DTD/sodipodi-0.dtd"
   xmlns:inkscape="http://www.inkscape.org/namespaces/inkscape"
   width="210mm"
   height="297mm"
   viewBox="0 0 210 297"
   version="1.1"
   id="svg8"
   inkscape:version="1.0.2 (e86c870879, 2021-01-15, custom)"
   sodipodi:docname="PHONE TRAY.svg">
  <defs
     id="defs2">
    <inkscape:path-effect
       effect="skeletal"
       id="path-effect3023"
       is_visible="true"
       lpeversion="1"
       pattern="#rect3031"
       copytype="repeated"
       prop_scale="1"
       scale_y_rel="false"
       spacing="18"
       normal_offset="0"
       tang_offset="0"
       prop_units="false"
       vertical_pattern="true"
       hide_knot="false"
       fuse_tolerance="0" />
    <inkscape:path-effect
       effect="attach_path"
       id="path-effect3021"
       lpeversion="1" />
    <linearGradient
       inkscape:collect="always"
       id="linearGradient2918">
      <stop
         style="stop-color:#474747;stop-opacity:1;"
         offset="0"
         id="stop2914" />
      <stop
         style="stop-color:#474747;stop-opacity:0;"
         offset="1"
         id="stop2916" />
    </linearGradient>
    <linearGradient
       id="linearGradient2894"
       osb:paint="solid">
      <stop
         style="stop-color:#474747;stop-opacity:1;"
         offset="0"
         id="stop2892" />
    </linearGradient>
    <radialGradient
       inkscape:collect="always"
       xlink:href="#linearGradient2918"
       id="radialGradient2922"
       cx="120.47485"
       cy="163.72739"
       fx="120.47485"
       fy="163.72739"
       r="4.9999552"
       gradientUnits="userSpaceOnUse"
       gradientTransform="matrix(0.65063975,0.65428249,-1.0467808,1.0409527,213.47579,-85.529666)" />
  </defs>
  <sodipodi:namedview
     id="base"
     pagecolor="#ffffff"
     bordercolor="#666666"
     borderopacity="1.0"
     inkscape:pageopacity="0.0"
     inkscape:pageshadow="2"
     inkscape:zoom="0.15857992"
     inkscape:cx="891.12556"
     inkscape:cy="1071.1988"
     inkscape:document-units="mm"
     inkscape:current-layer="layer1"
     inkscape:document-rotation="0"
     showgrid="false"
     inkscape:window-width="1920"
     inkscape:window-height="1017"
     inkscape:window-x="-8"
     inkscape:window-y="-8"
     inkscape:window-maximized="1" />
  <metadata
     id="metadata5">
    <rdf:RDF>
      <cc:Work
         rdf:about="">
        <dc:format>image/svg+xml</dc:format>
        <dc:type
           rdf:resource="http://purl.org/dc/dcmitype/StillImage" />
        <dc:title></dc:title>
      </cc:Work>
    </rdf:RDF>
  </metadata>
  <g
     inkscape:label="Layer 1"
     inkscape:groupmode="layer"
     id="layer1">
    <path
       id="path3008"
       style="fill:#e6e6e6;stroke:none;stroke-width:2.13408px;stroke-linecap:butt;stroke-linejoin:miter;stroke-opacity:1"
       d="M 141.18555 123.81445 L 141.18555 163.52734 L 203.54688 212.94531 L 203.54688 186.17773 L 233.81055 186.17773 L 154.82812 123.81445 L 141.18555 123.81445 z M 263.04883 123.81445 L 342.51758 186.17773 L 407.31055 186.17773 L 327.54688 123.81445 L 263.04883 123.81445 z M 437.0625 123.81445 L 517.33789 186.17773 L 582.94531 186.17773 L 502.35938 123.81445 L 437.0625 123.81445 z M 613.27344 123.81445 L 662.75977 161.85742 L 662.75977 123.81445 L 613.27344 123.81445 z M 600.39648 199.68359 L 600.39648 250.70312 L 662.75977 299.15039 L 662.75977 247.94531 L 600.39648 199.68359 z M 141.18555 249.07422 L 141.18555 299.96094 L 203.54688 349.84375 L 203.54688 298.78516 L 141.18555 249.07422 z M 600.39648 337.14062 L 600.39648 388.54883 L 662.75977 437.48828 L 662.75977 385.89844 L 600.39648 337.14062 z M 141.18555 386.16992 L 141.18555 437.44141 L 203.54688 487.77539 L 203.54688 436.33594 L 141.18555 386.16992 z M 600.39648 475.63477 L 600.39648 527.42188 L 662.75977 576.83984 L 662.75977 524.87695 L 600.39648 475.63477 z M 141.18555 524.28906 L 141.18555 575.91406 L 203.54688 626.69531 L 203.54688 574.89844 L 141.18555 524.28906 z M 600.39648 615.12891 L 600.39648 667.2793 L 662.75977 717.16406 L 662.75977 664.8418 L 600.39648 615.12891 z M 141.18555 663.33594 L 141.18555 715.33789 L 203.54688 766.61523 L 203.54688 714.42773 L 141.18555 663.33594 z M 600.39648 755.58594 L 600.39648 808.08398 L 662.75977 858.41797 L 662.75977 805.75586 L 600.39648 755.58594 z M 141.18555 803.44727 L 141.18555 855.86328 L 251.83203 947.75195 L 315.59766 947.75195 L 240.22266 885.38867 L 203.54688 885.38867 L 203.54688 855.04297 L 141.18555 803.44727 z M 347.99609 885.38867 L 423.83984 947.75195 L 488.34375 947.75195 L 412.22266 885.38867 L 347.99609 885.38867 z M 521.24023 885.38867 L 597.82617 947.75195 L 662.75977 947.75195 L 662.75977 947.57617 L 586.13281 885.38867 L 521.24023 885.38867 z M 141.18555 944.69727 L 141.18555 947.75195 L 144.8418 947.75195 L 141.18555 944.69727 z "
       transform="scale(0.26458333)" />
    <g
       id="g872" />
    <rect
       style="opacity:1;fill:none;fill-opacity:0.570281;stroke:#000000;stroke-width:0.3;stroke-miterlimit:4.9000001;paint-order:markers stroke fill;stroke-dasharray:none"
       id="rect2931"
       width="150"
       height="230"
       x="31.355465"
       y="26.759293"
       ry="0.89170623" />
    <g
       id="g2929"
       transform="translate(179.19559,28.799173)">
      <rect
         style="opacity:1;fill:#404040;fill-opacity:1;stroke:none;stroke-width:0.3;stroke-miterlimit:4.9;paint-order:markers stroke fill"
         id="rect833"
         width="67.099998"
         height="138.3"
         x="86.92485"
         y="34.921696"
         ry="7.7107162" />
      <rect
         style="opacity:1;fill:#cccccc;stroke:none;stroke-width:0.3;stroke-miterlimit:4.9;paint-order:markers stroke fill"
         id="rect835"
         width="58"
         height="104"
         x="91.474854"
         y="52.071697"
         ry="0" />
      <rect
         style="opacity:1;fill:#353535;fill-opacity:1;stroke:none;stroke-width:0.3;stroke-miterlimit:4.9;paint-order:markers stroke fill"
         id="rect837"
         width="11"
         height="2"
         x="114.97485"
         y="43.812084"
         ry="0.8504464" />
      <circle
         style="opacity:1;fill:#2b2b2b;fill-opacity:1;stroke:none;stroke-width:0.15;stroke-miterlimit:4.9;paint-order:markers stroke fill"
         id="path839"
         cx="120.47485"
         cy="163.72739"
         r="5" />
      <path
         id="path839-3"
         style="fill:url(#radialGradient2922);fill-opacity:1;stroke:none;stroke-width:0.15;stroke-miterlimit:4.9;paint-order:markers stroke fill"
         d="m 120.45496,158.72744 a 5,5 0 0 0 -4.98006,5.00021 5,5 0 0 0 4.99969,4.99969 5,5 0 0 0 5.00022,-4.99969 5,5 0 0 0 -5.00022,-5.00021 5,5 0 0 0 -0.0196,0 z m 0.0196,0.99994 a 3.9999999,3.9999999 0 0 1 4.00028,4.00027 3.9999999,3.9999999 0 0 1 -4.00028,3.99975 3.9999999,3.9999999 0 0 1 -3.99975,-3.99975 3.9999999,3.9999999 0 0 1 3.99975,-4.00027 z" />
    </g>
    <path
       style="color:#000000;font-style:normal;font-variant:normal;font-weight:normal;font-stretch:normal;font-size:medium;line-height:normal;font-family:sans-serif;font-variant-ligatures:normal;font-variant-position:normal;font-variant-caps:normal;font-variant-numeric:normal;font-variant-alternates:normal;font-variant-east-asian:normal;font-feature-settings:normal;font-variation-settings:normal;text-indent:0;text-align:start;text-decoration:none;text-decoration-line:none;text-decoration-style:solid;text-decoration-color:#000000;letter-spacing:normal;word-spacing:normal;text-transform:none;writing-mode:lr-tb;direction:ltr;text-orientation:mixed;dominant-baseline:auto;baseline-shift:baseline;text-anchor:start;white-space:normal;shape-padding:0;shape-margin:0;inline-size:0;clip-rule:nonzero;display:inline;overflow:visible;visibility:visible;isolation:auto;mix-blend-mode:normal;color-interpolation:sRGB;color-interpolation-filters:linearRGB;solid-color:#000000;solid-opacity:1;vector-effect:none;fill:#000000;fill-opacity:1;fill-rule:nonzero;stroke:none;stroke-linecap:butt;stroke-linejoin:miter;stroke-miterlimit:4;stroke-dasharray:none;stroke-dashoffset:0;stroke-opacity:1;paint-order:markers stroke fill;color-rendering:auto;image-rendering:auto;shape-rendering:auto;text-rendering:auto;enable-background:accumulate;stop-color:#000000"
       d="M -602.86555,-21.493619 V 1.006371 253.50637 h 195 V -21.493619 Z"
       id="path2953" />
    <rect
       style="opacity:1;fill:#a05a2c;fill-opacity:0.570281;stroke:none;stroke-width:0.313651;stroke-miterlimit:4.9;paint-order:markers stroke fill"
       id="rect2968"
       width="150"
       height="230"
       x="-350.84647"
       y="-18.232527"
       ry="0.89170623" />
    <path
       id="path2984"
       style="opacity:1;fill:none;fill-opacity:0.570281;stroke:#000000;stroke-width:0.30000001;stroke-miterlimit:4.9000001;paint-order:markers stroke fill;stroke-dasharray:1.20000006,1.20000006;stroke-dashoffset:0"
       d="M 37.355534,32.759228 V 250.75935 H 175.3554 V 32.759228 Z M 53.855321,49.259511 H 158.85511 V 234.25906 H 53.855321 Z" />
    <g
       id="path2955"
       transform="translate(23.890507,152.19097)"
       style="fill:#008000" />
    <rect
       style="opacity:1;fill:#a05a2c;fill-opacity:0.570281;stroke:none;stroke-width:0.313651;stroke-miterlimit:4.9;paint-order:markers stroke fill"
       id="rect2987"
       width="150"
       height="230"
       x="369.21744"
       y="40.106926"
       ry="0.89170623" />
    <path
       id="path2989"
       style="opacity:1;fill:#a05a2c;fill-opacity:0.570281;stroke:none;stroke-width:0.390073;stroke-miterlimit:4.9;paint-order:markers stroke fill"
       d="M 375.21751,46.106862 V 264.10698 H 513.21737 V 46.106862 Z M 391.7173,62.607145 H 496.71708 V 247.60669 H 391.7173 Z" />
    <text
       xml:space="preserve"
       style="font-style:normal;font-weight:normal;font-size:10.5833px;line-height:1.25;font-family:sans-serif;letter-spacing:0px;word-spacing:0px;fill:#000000;fill-opacity:1;stroke:none;stroke-width:0.264583"
       x="34.213482"
       y="5.8988762"
       id="text2993"><tspan
         sodipodi:role="line"
         id="tspan2991"
         x="34.213482"
         y="5.8988762"
         style="stroke-width:0.264583" /></text>
    <rect
       style="opacity:1;fill:#000000;fill-opacity:1;stroke:none;stroke-width:0.258892;stroke-linejoin:miter;stroke-miterlimit:4.9;stroke-dasharray:1.03557, 1.03557;stroke-dashoffset:0;stroke-opacity:1;paint-order:normal"
       id="rect3031"
       width="424.71909"
       height="10.665387"
       x="-128.5955"
       y="-82.631676"
       ry="0.020105017" />
  </g>
</svg>
